<svg xmlns="http://www.w3.org/2000/svg" viewBox="0 0 750 500"><g id="freepik--background-simple--inject-112"><path d="M692.76,353.87c17.27-32,19.82-68.48,15.77-103.72-3.59-31.26-9-67.11-24.17-95.33C646,83.34,548.89,49.79,470.07,71.29c-32.88,9-55.94,29.74-82.33,49.52-19.52,14.62-40.93,28.89-66.15,31.82-60.39,7-129.12-50-186.39-45s-102,56-104.13,100,41.65,89,37.49,119-31.24,110,76,113,163.48-57,205.14-44,133.28,51,210.33,41c50.27-6.53,99.42-31.21,127-73.14Q690.13,358.75,692.76,353.87Z" style="fill:#92E3A9"></path><path d="M692.76,353.87c17.27-32,19.82-68.48,15.77-103.72-3.59-31.26-9-67.11-24.17-95.33C646,83.34,548.89,49.79,470.07,71.29c-32.88,9-55.94,29.74-82.33,49.52-19.52,14.62-40.93,28.89-66.15,31.82-60.39,7-129.12-50-186.39-45s-102,56-104.13,100,41.65,89,37.49,119-31.24,110,76,113,163.48-57,205.14-44,133.28,51,210.33,41c50.27-6.53,99.42-31.21,127-73.14Q690.13,358.75,692.76,353.87Z" style="fill:#fff;opacity:0.8"></path></g><g id="freepik--Clouds--inject-112"><path d="M341.09,184.12H202.32l15-6.56c.69-1,5.19-7.44,9.82-9.75,4.4-2.21,12.9,1.76,15.24,2.93.5-2.15,2.44-8.9,7.43-11,3.35-1.44,9.12.77,14.21,2.72,3.53,1.36,7.18,2.76,8.41,2.14.87-.44,1.72-2,2.71-3.92,2.24-4.25,5.63-10.69,13.69-10.69,11.4,0,23.27,14.82,23.84,15.55,4.9,5.78,7.31,4.14,10.36,2.07,2.28-1.55,4.87-3.31,8.8-2.24,9.16,2.5,9.26,17.64,9.26,18.28Zm-134-1h133c-.1-2.62-1-14.75-8.51-16.81-3.49-.95-5.77.6-8,2.1-3.19,2.17-6.21,4.21-11.69-2.26h0C311.77,166,299.78,151,288.83,151c-7.46,0-10.55,5.87-12.81,10.16-1.11,2.1-2,3.76-3.14,4.35-1.62.81-5-.48-9.22-2.11-4.91-1.88-10.48-4-13.46-2.74-5.34,2.3-7,10.87-7,11l-.12.67-.61-.32c-.1-.06-10.34-5.51-14.91-3.23s-9.46,9.46-9.51,9.54l-.08.12Z" style="fill:#263238"></path><path d="M574.22,184.12H500.09l8.84-3.87c.48-.68,2.8-3.93,5.2-5.13s6.4.66,7.93,1.41c.37-1.39,1.45-4.59,4-5.67,1.85-.78,4.92.39,7.63,1.43,1.63.63,3.66,1.41,4.21,1.13a5.54,5.54,0,0,0,1.32-1.95c1.2-2.28,3-5.73,7.39-5.73,6.07,0,12.35,7.81,12.68,8.24,2.43,2.86,3.5,2.13,5.11,1,1.18-.8,2.65-1.79,4.81-1.2,5,1.36,5,9.47,5,9.81Zm-69.35-1H573.2c-.1-1.72-.68-7.36-4.28-8.35-1.73-.47-2.82.28-4,1.07-1.69,1.15-3.44,2.33-6.45-1.22v0c-.06-.08-6.28-7.86-11.9-7.86-3.77,0-5.35,3-6.51,5.2a5.38,5.38,0,0,1-1.75,2.38c-.9.44-2.49-.13-5-1.1s-5.41-2.07-6.88-1.44c-2.68,1.15-3.51,5.53-3.52,5.57l-.12.68-.61-.33c-1.47-.79-5.7-2.64-7.59-1.69-2.4,1.2-4.87,4.88-4.9,4.92l-.08.12Z" style="fill:#263238"></path><path d="M170.58,184.12H96.45l8.84-3.87c.48-.68,2.8-3.93,5.2-5.13s6.4.66,7.94,1.41c.36-1.39,1.44-4.59,4-5.67,1.84-.78,4.92.39,7.63,1.43,1.63.63,3.67,1.41,4.22,1.13a5.55,5.55,0,0,0,1.31-1.95c1.2-2.28,3-5.73,7.39-5.73,6.07,0,12.35,7.81,12.68,8.24,2.43,2.86,3.5,2.13,5.11,1,1.18-.8,2.65-1.79,4.81-1.2,5,1.36,5,9.47,5,9.81Zm-69.35-1h68.33c-.09-1.72-.68-7.36-4.28-8.35-1.72-.46-2.82.28-4,1.07-1.69,1.15-3.44,2.33-6.45-1.22v0c-.06-.08-6.28-7.86-11.9-7.86-3.77,0-5.35,3-6.5,5.2a5.47,5.47,0,0,1-1.76,2.38c-.89.44-2.49-.13-5-1.1s-5.4-2.07-6.88-1.44c-2.68,1.15-3.51,5.53-3.52,5.57l-.12.68-.61-.33c-1.47-.79-5.7-2.63-7.59-1.69-2.4,1.2-4.87,4.88-4.9,4.92l-.08.12Z" style="fill:#263238"></path><path d="M405.76,229.83H324.12l9.56-4.18c.5-.73,3.07-4.34,5.73-5.67,2.51-1.25,7.15.79,8.79,1.59.38-1.49,1.56-5.09,4.36-6.29,2-.87,5.41.43,8.39,1.58,1.92.73,4.08,1.56,4.71,1.24a6,6,0,0,0,1.48-2.18c1.32-2.51,3.32-6.31,8.12-6.31,6.69,0,13.62,8.63,14,9.09,2.71,3.21,3.91,2.39,5.72,1.16,1.29-.88,2.9-2,5.27-1.32,5.47,1.49,5.53,10.41,5.53,10.79Zm-76.86-1h75.84c-.09-1.84-.72-8.22-4.77-9.33-1.93-.52-3.21.35-4.45,1.19-1.84,1.25-3.75,2.55-7-1.35h0c-.07-.09-7-8.72-13.2-8.72-4.2,0-5.95,3.34-7.24,5.78-.66,1.25-1.18,2.24-1.91,2.61-1,.49-2.73-.14-5.51-1.21s-6-2.3-7.64-1.59c-3,1.28-3.92,6.14-3.93,6.19l-.12.68-.61-.33c-1.63-.88-6.33-2.92-8.44-1.87-2.66,1.33-5.41,5.42-5.43,5.46l-.09.12Z" style="fill:#263238"></path></g><g id="freepik--Trees--inject-112"><path d="M559,200.74s31.19,3.09,47,22.43c0,0,16.7-22.4,46.7-21.94A60.63,60.63,0,1,0,559,200.8Z" style="fill:#92E3A9"></path><path d="M559,200.74s31.19,3.09,47,22.43c0,0,16.7-22.4,46.7-21.94A60.63,60.63,0,1,0,559,200.8Z" style="fill:#92E3A9;opacity:0.5"></path><polygon points="604.94 106.18 603.88 422.65 609.15 422.65 604.94 106.18" style="fill:#828282"></polygon><path d="M606.52,217.27s10.53-19,29.48-24.74c0,0-20,4.74-30,21.06Z" style="fill:#828282"></path><path d="M605.37,164.08s11.68-19.46,30.63-25.26c0,0-20.63,5.94-30.63,22.26Z" style="fill:#828282"></path><path d="M605.78,191.77s11.27-20.3,30.22-26.09c0,0-20.49,5.68-30.49,22Z" style="fill:#828282"></path><path d="M605,177.26s-10.16-18.95-28.45-24.75c0,0,19.3,4.74,29,21.06Z" style="fill:#828282"></path><path d="M605,203.58s-10.16-19-28.45-24.74c0,0,19.3,4.74,29,21.06Z" style="fill:#828282"></path><path d="M623.94,297.55s17.58,1.74,26.49,12.64c0,0,9.42-12.62,26.33-12.37a34.17,34.17,0,1,0-52.83-.24Z" style="fill:#92E3A9"></path><path d="M623.94,297.55s17.58,1.74,26.49,12.64c0,0,9.42-12.62,26.33-12.37a34.17,34.17,0,1,0-52.83-.24Z" style="fill:#92E3A9"></path><path d="M623.94,297.55s17.58,1.74,26.49,12.64c0,0,9.42-12.62,26.33-12.37a34.17,34.17,0,1,0-52.83-.24Z" style="fill:#fff;opacity:0.5"></path><polygon points="649.85 244.25 649.26 422.65 652.23 422.65 649.85 244.25" style="fill:#828282"></polygon><path d="M650.74,306.87s5.94-10.68,16.62-13.95c0,0-11.28,2.67-16.92,11.87Z" style="fill:#828282"></path><path d="M650.09,276.89s6.59-11,17.27-14.24c0,0-11.63,3.34-17.27,12.54Z" style="fill:#828282"></path><path d="M650.32,292.5s6.36-11.45,17-14.72c0,0-11.55,3.21-17.19,12.41Z" style="fill:#828282"></path><path d="M649.86,284.31s-5.73-10.68-16-13.95c0,0,10.89,2.68,16.33,11.88Z" style="fill:#828282"></path><path d="M649.86,299.15s-5.73-10.68-16-13.95c0,0,10.89,2.68,16.33,11.88Z" style="fill:#828282"></path><path d="M411.56,297.55s17.59,1.74,26.5,12.64c0,0,9.41-12.62,26.33-12.37a34.18,34.18,0,1,0-52.83-.24Z" style="fill:#92E3A9"></path><path d="M411.56,297.55s17.59,1.74,26.5,12.64c0,0,9.41-12.62,26.33-12.37a34.18,34.18,0,1,0-52.83-.24Z" style="fill:#92E3A9"></path><path d="M411.56,297.55s17.59,1.74,26.5,12.64c0,0,9.41-12.62,26.33-12.37a34.18,34.18,0,1,0-52.83-.24Z" style="fill:#fff;opacity:0.5"></path><polygon points="437.48 244.25 436.88 422.65 439.85 422.65 437.48 244.25" style="fill:#828282"></polygon><path d="M438.37,306.87s5.93-10.68,16.62-13.95c0,0-11.28,2.67-16.92,11.87Z" style="fill:#828282"></path><path d="M437.72,276.89s6.58-11,17.27-14.24c0,0-11.63,3.34-17.27,12.54Z" style="fill:#828282"></path><path d="M438,292.5s6.35-11.45,17-14.72c0,0-11.55,3.21-17.19,12.41Z" style="fill:#828282"></path><path d="M437.49,284.31s-5.73-10.68-16-13.95c0,0,10.88,2.68,16.32,11.88Z" style="fill:#828282"></path><path d="M437.49,299.15s-5.73-10.68-16-13.95c0,0,10.88,2.68,16.32,11.88Z" style="fill:#828282"></path><path d="M77.23,297.55s17.58,1.74,26.49,12.64c0,0,9.42-12.62,26.33-12.37a34.17,34.17,0,1,0-52.83-.24Z" style="fill:#92E3A9"></path><path d="M77.23,297.55s17.58,1.74,26.49,12.64c0,0,9.42-12.62,26.33-12.37a34.17,34.17,0,1,0-52.83-.24Z" style="fill:#92E3A9"></path><path d="M77.23,297.55s17.58,1.74,26.49,12.64c0,0,9.42-12.62,26.33-12.37a34.17,34.17,0,1,0-52.83-.24Z" style="fill:#fff;opacity:0.5"></path><polygon points="103.14 244.25 102.55 422.65 105.52 422.65 103.14 244.25" style="fill:#828282"></polygon><path d="M104,306.87s5.94-10.68,16.62-13.95c0,0-11.28,2.67-16.92,11.87Z" style="fill:#828282"></path><path d="M103.38,276.89s6.59-11,17.27-14.24c0,0-11.63,3.34-17.27,12.54Z" style="fill:#828282"></path><path d="M103.61,292.5s6.36-11.45,17-14.72c0,0-11.55,3.21-17.19,12.41Z" style="fill:#828282"></path><path d="M103.15,284.31s-5.73-10.68-16-13.95c0,0,10.89,2.68,16.33,11.88Z" style="fill:#828282"></path><path d="M103.15,299.15s-5.73-10.68-16-13.95c0,0,10.89,2.68,16.33,11.88Z" style="fill:#828282"></path></g><g id="freepik--Plants--inject-112"><path d="M660.57,397.6a10.15,10.15,0,0,0,2.93.33s-.45-1.37-.48-1.45c-.46-1-1.91-2.53-3.08-2.38a1.41,1.41,0,0,0-1.13,1.76A2.89,2.89,0,0,0,660.57,397.6Z" style="fill:#263238"></path><path d="M661.28,403.64a9.53,9.53,0,0,0,2.9-.46,23.82,23.82,0,0,0,1.12,3.12c.26.6.54,1.18.82,1.77-.17-.25-.32-.47-.35-.5-.69-.8-2.5-1.94-3.6-1.48a1.42,1.42,0,0,0-.62,2,3,3,0,0,0,2.15,1.21,9.12,9.12,0,0,0,2.81-.43c.12.22.22.45.34.67.54,1.07,1.08,2.14,1.58,3.2.17.38.33.75.49,1.13l-.3-.43c-.69-.8-2.5-1.94-3.6-1.48a1.42,1.42,0,0,0-.62,2,3,3,0,0,0,2.16,1.21,9,9,0,0,0,2.73-.41c.15.39.31.78.44,1.16s.18.51.25.78.15.53.22.79c.12.51.25,1,.36,1.53l.21,1c-.17-.38-.52-1.1-.56-1.16-.56-.9-2.18-2.3-3.33-2a1.41,1.41,0,0,0-.92,1.88,2.93,2.93,0,0,0,1.95,1.52,9.56,9.56,0,0,0,2.91,0q.16.83.3,1.59c0,.27.09.53.13.78H672c-.05-.29-.11-.59-.17-.91-.11-.56-.24-1.15-.38-1.76a16.09,16.09,0,0,0,1.62-.77,10.42,10.42,0,0,0,2.37,1.53q-.31.78-.63,1.5l-.18.41h.77l.06-.14c.22-.53.44-1.1.66-1.68a9.64,9.64,0,0,0,2.9.22,2.91,2.91,0,0,0,2-1.37,1.4,1.4,0,0,0-.77-1.94c-1.13-.38-2.84.9-3.47,1.75,0,0-.38.64-.59,1l.27-.72c.18-.49.34-1,.52-1.52l.24-.78c.08-.26.14-.55.21-.82.15-.65.27-1.3.38-2a9,9,0,0,0,2.76.63,2.87,2.87,0,0,0,2.23-1.05,1.4,1.4,0,0,0-.47-2c-1.05-.55-2.94.46-3.69,1.2,0,.05-.53.65-.79,1,.07-.4.13-.8.18-1.21.15-1.17.26-2.37.38-3.56,0-.37.07-.73.11-1.1a9.73,9.73,0,0,0,2.85.67,2.87,2.87,0,0,0,2.23-1,1.4,1.4,0,0,0-.47-2c-1-.55-2.95.46-3.7,1.2-.05.06-.74.92-.9,1.15.08-.8.17-1.6.29-2.38a25.26,25.26,0,0,1,.69-3.14,9.6,9.6,0,0,0,2.86.67,2.93,2.93,0,0,0,2.24-1,1.41,1.41,0,0,0-.47-2c-1.06-.54-2.95.46-3.7,1.21-.06.06-.8,1-.92,1.16,0-.06,0-.12.05-.18a17.29,17.29,0,0,1,1.24-3c.27-.53.56-1,.85-1.49a9.18,9.18,0,0,0,2.71,1,2.9,2.9,0,0,0,2.34-.79,1.41,1.41,0,0,0-.25-2.08c-1-.65-3,.14-3.81.8l-.76.76c.14-.21.27-.43.4-.63.5-.75,1-1.4,1.45-2,.26-.33.49-.61.72-.88a9.31,9.31,0,0,0,2.83-.41,2.9,2.9,0,0,0,1.71-1.78,1.4,1.4,0,0,0-1.17-1.73c-1.18-.13-2.59,1.49-3,2.46,0,.08-.47,1.46-.44,1.46h0l-.71.83c-.46.57-1,1.21-1.49,1.95a24.48,24.48,0,0,0-1.55,2.47,17.22,17.22,0,0,0-1.32,3,0,0,0,0,0,0,0c0-.35,0-1.32,0-1.39-.14-1.05-1-3-2.19-3.22a1.4,1.4,0,0,0-1.62,1.32,2.93,2.93,0,0,0,1.13,2.2,10.14,10.14,0,0,0,2.66,1.22,25.23,25.23,0,0,0-.78,3.22c-.11.63-.21,1.28-.29,1.92,0-.3,0-.57,0-.6-.14-1.05-1-3-2.18-3.22a1.39,1.39,0,0,0-1.62,1.32,2.92,2.92,0,0,0,1.12,2.2,9.46,9.46,0,0,0,2.58,1.19l-.09.74c-.14,1.19-.28,2.38-.45,3.55-.06.41-.13.81-.2,1.21,0-.27,0-.49,0-.53-.14-1.05-1-3-2.18-3.22a1.41,1.41,0,0,0-1.62,1.33,2.9,2.9,0,0,0,1.12,2.19,9.17,9.17,0,0,0,2.51,1.17c-.09.41-.17.82-.27,1.21s-.13.53-.23.79-.16.53-.25.78c-.18.49-.36,1-.54,1.47l-.38,1c.06-.4.17-1.2.17-1.27a5.41,5.41,0,0,0-.73-2.66,1.67,1.67,0,0,0,0-.31,1.4,1.4,0,0,0-1.72-1.19c-1.14.31-1.87,2.32-1.93,3.38,0,.06,0,.74.07,1.17-.05-.25-.11-.49-.17-.75-.12-.5-.25-1-.4-1.55l-.24-.78c-.07-.27-.18-.53-.27-.8-.23-.62-.49-1.24-.76-1.86a8.87,8.87,0,0,0,2.64-1,2.92,2.92,0,0,0,1.29-2.11,1.41,1.41,0,0,0-1.52-1.44c-1.18.13-2.2,2-2.42,3.05,0,.07-.08.83-.11,1.25-.17-.37-.33-.74-.52-1.11-.52-1.06-1.09-2.12-1.65-3.18l-.51-1a9.92,9.92,0,0,0,2.74-1,2.92,2.92,0,0,0,1.29-2.11,1.4,1.4,0,0,0-1.52-1.43c-1.18.12-2.2,2-2.42,3,0,.08-.11,1.18-.12,1.46-.37-.72-.74-1.43-1.07-2.16a25.58,25.58,0,0,1-1.16-3,9.68,9.68,0,0,0,2.76-1,3,3,0,0,0,1.29-2.11,1.4,1.4,0,0,0-1.52-1.44c-1.18.13-2.2,2-2.41,3,0,.09-.13,1.27-.13,1.48l-.06-.18a17.54,17.54,0,0,1-.6-3.16c-.07-.59-.1-1.15-.12-1.7a9.5,9.5,0,0,0,2.79-.71,2.91,2.91,0,0,0,1.51-1.95,1.4,1.4,0,0,0-1.35-1.6c-1.18,0-2.41,1.76-2.73,2.77,0,0-.14.63-.22,1,0-.25,0-.51,0-.75,0-.89.05-1.71.11-2.44,0-.42.08-.79.12-1.14a9.32,9.32,0,0,0,2.14-1.9,2.93,2.93,0,0,0,.44-2.43,1.41,1.41,0,0,0-1.94-.79c-1,.54-1.33,2.67-1.15,3.71,0,.09.41,1.48.43,1.47l0,0c-.05.34-.09.7-.14,1.09-.07.73-.14,1.55-.16,2.45a22.27,22.27,0,0,0,.07,2.91,18.68,18.68,0,0,0,.53,3.21s0,0,0,0c-.19-.29-.74-1.09-.79-1.15-.69-.8-2.5-1.94-3.6-1.48a1.42,1.42,0,0,0-.62,2A3,3,0,0,0,661.28,403.64Z" style="fill:#263238"></path><path d="M681.64,398.06s.38-1.38.39-1.47c.15-1-.19-3.17-1.26-3.69a1.41,1.41,0,0,0-1.91.85,3,3,0,0,0,.51,2.42A9.94,9.94,0,0,0,681.64,398.06Z" style="fill:#263238"></path><path d="M616,397.6a10.21,10.21,0,0,0,2.94.33s-.45-1.37-.49-1.45c-.46-1-1.9-2.53-3.08-2.38a1.41,1.41,0,0,0-1.13,1.76A2.91,2.91,0,0,0,616,397.6Z" style="fill:#263238"></path><path d="M616.74,403.64a9.51,9.51,0,0,0,2.89-.46,23.88,23.88,0,0,0,1.13,3.12c.25.6.53,1.18.81,1.77l-.34-.5c-.7-.8-2.51-1.94-3.6-1.48a1.4,1.4,0,0,0-.62,2,2.93,2.93,0,0,0,2.15,1.21,9.17,9.17,0,0,0,2.81-.43l.33.67c.54,1.07,1.08,2.14,1.58,3.2.18.38.34.75.5,1.13l-.3-.43c-.7-.8-2.51-1.94-3.6-1.48a1.4,1.4,0,0,0-.62,2,3,3,0,0,0,2.15,1.21,8.91,8.91,0,0,0,2.73-.41c.16.39.31.78.44,1.16a7.08,7.08,0,0,1,.25.78c.08.27.15.53.22.79.13.51.26,1,.36,1.53.08.34.14.68.21,1-.17-.38-.52-1.1-.55-1.16-.57-.9-2.19-2.3-3.34-2a1.4,1.4,0,0,0-.91,1.88,2.89,2.89,0,0,0,1.94,1.52,9.56,9.56,0,0,0,2.91,0q.16.83.3,1.59c0,.27.09.53.13.78h.74c-.06-.29-.12-.59-.18-.91-.11-.56-.24-1.15-.37-1.76.13-.06.92-.38,1.62-.77a10.41,10.41,0,0,0,2.36,1.53q-.32.78-.63,1.5l-.18.41h.77l.06-.14c.22-.53.44-1.1.66-1.68a9.71,9.71,0,0,0,2.91.22,2.93,2.93,0,0,0,2-1.37,1.4,1.4,0,0,0-.78-1.94c-1.12-.38-2.84.9-3.47,1.75,0,0-.38.64-.59,1l.27-.72c.18-.49.35-1,.52-1.52l.24-.78c.08-.26.14-.55.21-.82.15-.65.28-1.3.39-2a9,9,0,0,0,2.75.63,2.9,2.9,0,0,0,2.24-1.05,1.4,1.4,0,0,0-.47-2c-1.06-.55-3,.46-3.7,1.2,0,.05-.53.65-.78,1,.06-.4.13-.8.18-1.21.14-1.17.25-2.37.37-3.56,0-.37.07-.73.11-1.1a9.81,9.81,0,0,0,2.85.67,2.9,2.9,0,0,0,2.24-1,1.4,1.4,0,0,0-.47-2c-1.06-.55-3,.46-3.7,1.2-.06.06-.75.92-.91,1.15.08-.8.18-1.6.3-2.38A25.26,25.26,0,0,1,635,403a9.69,9.69,0,0,0,2.87.67,2.89,2.89,0,0,0,2.23-1,1.41,1.41,0,0,0-.47-2c-1-.54-2.94.46-3.7,1.21,0,.06-.79,1-.92,1.16,0-.06,0-.12,0-.18a19,19,0,0,1,1.24-3c.27-.53.56-1,.85-1.49a9.4,9.4,0,0,0,2.71,1,2.9,2.9,0,0,0,2.34-.79,1.41,1.41,0,0,0-.24-2.08c-1-.65-3,.14-3.81.8,0,0-.46.45-.76.76.13-.21.26-.43.4-.63.49-.75,1-1.4,1.44-2,.26-.33.5-.61.73-.88a9.39,9.39,0,0,0,2.83-.41,3,3,0,0,0,1.71-1.78,1.41,1.41,0,0,0-1.18-1.73c-1.18-.13-2.58,1.49-3,2.46,0,.08-.47,1.46-.45,1.46h0c-.23.25-.46.53-.72.83-.46.57-1,1.21-1.49,1.95a24.48,24.48,0,0,0-1.55,2.47,18.89,18.89,0,0,0-1.32,3v0c0-.35,0-1.32,0-1.39-.14-1.05-1-3-2.18-3.22A1.4,1.4,0,0,0,631,399.4a2.92,2.92,0,0,0,1.12,2.2,10.17,10.17,0,0,0,2.67,1.22A25.24,25.24,0,0,0,634,406c-.11.63-.2,1.28-.29,1.92a5.61,5.61,0,0,0,0-.6c-.13-1.05-1-3-2.18-3.22a1.4,1.4,0,0,0-1.62,1.32,2.93,2.93,0,0,0,1.13,2.2,9.33,9.33,0,0,0,2.58,1.19c0,.25-.07.49-.09.74-.15,1.19-.28,2.38-.45,3.55-.06.41-.14.81-.21,1.21,0-.27,0-.49,0-.53-.14-1.05-1-3-2.19-3.22a1.41,1.41,0,0,0-1.62,1.33,2.91,2.91,0,0,0,1.13,2.19,8.91,8.91,0,0,0,2.51,1.17c-.09.41-.18.82-.28,1.21s-.13.53-.22.79-.17.53-.25.78c-.18.49-.36,1-.55,1.47s-.25.65-.38,1c.06-.4.17-1.2.18-1.27a5.54,5.54,0,0,0-.74-2.66,1.1,1.1,0,0,0,0-.31,1.4,1.4,0,0,0-1.71-1.19c-1.15.31-1.88,2.32-1.93,3.38,0,.06,0,.74.07,1.17-.06-.25-.11-.49-.17-.75l-.4-1.55-.24-.78c-.07-.27-.19-.53-.28-.8-.22-.62-.48-1.24-.76-1.86a9,9,0,0,0,2.65-1,2.93,2.93,0,0,0,1.28-2.11,1.4,1.4,0,0,0-1.51-1.44c-1.18.13-2.21,2-2.42,3.05,0,.07-.08.83-.12,1.25q-.24-.56-.51-1.11c-.53-1.06-1.1-2.12-1.66-3.18l-.51-1a10.07,10.07,0,0,0,2.75-1,2.93,2.93,0,0,0,1.28-2.11,1.39,1.39,0,0,0-1.51-1.43c-1.18.12-2.21,2-2.42,3,0,.08-.12,1.18-.13,1.46-.37-.72-.73-1.43-1.06-2.16a23.92,23.92,0,0,1-1.16-3,9.9,9.9,0,0,0,2.76-1,3,3,0,0,0,1.29-2.11,1.41,1.41,0,0,0-1.52-1.44c-1.18.13-2.2,2-2.42,3,0,.09-.12,1.27-.13,1.48a1.27,1.27,0,0,0-.06-.18,18.45,18.45,0,0,1-.6-3.16c-.06-.59-.09-1.15-.11-1.7a9.65,9.65,0,0,0,2.79-.71,3,3,0,0,0,1.51-1.95,1.42,1.42,0,0,0-1.35-1.6c-1.19,0-2.41,1.76-2.74,2.77,0,0-.14.63-.22,1,0-.25,0-.51,0-.75,0-.89.06-1.71.12-2.44,0-.42.07-.79.11-1.14a8.93,8.93,0,0,0,2.14-1.9,2.93,2.93,0,0,0,.44-2.43,1.4,1.4,0,0,0-1.93-.79c-1.06.54-1.33,2.67-1.16,3.71,0,.09.41,1.48.43,1.47l0,0c0,.34-.09.7-.13,1.09-.07.73-.15,1.55-.17,2.45a26.42,26.42,0,0,0,.07,2.91,17.8,17.8,0,0,0,.54,3.21s0,0,0,0l-.78-1.15c-.7-.8-2.51-1.94-3.6-1.48a1.4,1.4,0,0,0-.62,2A3,3,0,0,0,616.74,403.64Z" style="fill:#263238"></path><path d="M637.09,398.06s.38-1.38.39-1.47c.15-1-.18-3.17-1.25-3.69a1.41,1.41,0,0,0-1.91.85,2.93,2.93,0,0,0,.5,2.42A10.16,10.16,0,0,0,637.09,398.06Z" style="fill:#263238"></path><path d="M75.45,403.91a7.37,7.37,0,0,0,2.19.24s-.33-1-.36-1.08c-.34-.71-1.42-1.89-2.3-1.77a1,1,0,0,0-.85,1.31A2.2,2.2,0,0,0,75.45,403.91Z" style="fill:#263238"></path><path d="M76,408.42a7,7,0,0,0,2.17-.34,18.26,18.26,0,0,0,.84,2.34c.19.44.4.88.61,1.32l-.26-.37c-.52-.6-1.87-1.46-2.69-1.11a1.05,1.05,0,0,0-.47,1.49,2.2,2.2,0,0,0,1.61.91,6.89,6.89,0,0,0,2.11-.32l.24.5c.41.8.81,1.6,1.19,2.4.13.28.25.56.37.84a3.71,3.71,0,0,0-.23-.32c-.52-.6-1.87-1.46-2.69-1.11a1,1,0,0,0-.46,1.49,2.2,2.2,0,0,0,1.61.91,6.58,6.58,0,0,0,2-.31q.18.43.33.87c.06.2.14.38.19.59s.11.39.16.59c.09.38.19.77.27,1.14s.11.51.16.75c-.13-.28-.39-.82-.42-.86-.42-.67-1.63-1.72-2.49-1.5a1,1,0,0,0-.69,1.4,2.2,2.2,0,0,0,1.46,1.14,6.94,6.94,0,0,0,2.17,0c.09.42.16.82.23,1.2,0,.2.06.39.1.58H84c0-.22-.08-.44-.13-.68-.08-.42-.17-.86-.28-1.32a10.62,10.62,0,0,0,1.22-.57,7.56,7.56,0,0,0,1.77,1.14l-.47,1.12c0,.11-.1.21-.14.31h.58a1,1,0,0,1,0-.1c.16-.4.33-.82.49-1.26a7.55,7.55,0,0,0,2.17.17,2.21,2.21,0,0,0,1.54-1,1,1,0,0,0-.58-1.45c-.84-.29-2.13.67-2.6,1.31l-.44.76c.07-.18.14-.36.2-.54.14-.37.26-.74.4-1.13,0-.2.11-.39.17-.59s.11-.41.16-.62c.11-.48.21-1,.29-1.47a6.87,6.87,0,0,0,2.06.48,2.17,2.17,0,0,0,1.67-.79,1,1,0,0,0-.35-1.52c-.79-.41-2.2.34-2.77.9,0,0-.39.48-.58.73,0-.3.09-.6.13-.9.11-.88.19-1.78.28-2.67l.09-.81a7.27,7.27,0,0,0,2.13.49,2.16,2.16,0,0,0,1.67-.78,1.06,1.06,0,0,0-.35-1.52c-.79-.41-2.21.34-2.77.9,0,0-.56.69-.68.86.06-.6.13-1.2.22-1.79a19,19,0,0,1,.52-2.34,7.34,7.34,0,0,0,2.14.5,2.2,2.2,0,0,0,1.67-.78,1,1,0,0,0-.35-1.52c-.79-.41-2.2.34-2.77.9,0,0-.59.73-.69.87a1,1,0,0,0,0-.14,13.09,13.09,0,0,1,.93-2.22c.2-.39.42-.76.63-1.11a6.89,6.89,0,0,0,2,.71,2.19,2.19,0,0,0,1.75-.59,1.06,1.06,0,0,0-.18-1.56c-.74-.49-2.23.1-2.85.6l-.57.57c.1-.16.2-.33.3-.47.37-.56.74-1.05,1.08-1.48.19-.25.37-.46.54-.66a7.17,7.17,0,0,0,2.12-.31,2.21,2.21,0,0,0,1.28-1.33,1.06,1.06,0,0,0-.88-1.29c-.88-.1-1.93,1.11-2.26,1.84,0,.06-.35,1.09-.33,1.09h0c-.17.19-.35.39-.53.62-.35.42-.74.91-1.12,1.46a18.28,18.28,0,0,0-1.16,1.84,14.18,14.18,0,0,0-1,2.23v0c0-.26,0-1,0-1.05-.1-.78-.76-2.24-1.63-2.4a1.06,1.06,0,0,0-1.22,1,2.2,2.2,0,0,0,.85,1.64,7.07,7.07,0,0,0,2,.91,18.44,18.44,0,0,0-.59,2.41c-.08.48-.15,1-.22,1.44a4.16,4.16,0,0,0,0-.45c-.1-.79-.76-2.25-1.63-2.41a1,1,0,0,0-1.21,1,2.19,2.19,0,0,0,.84,1.64,7,7,0,0,0,1.93.89c0,.19,0,.37-.07.56-.11.89-.21,1.78-.33,2.65,0,.31-.1.61-.16.91,0-.2,0-.37,0-.4-.1-.78-.76-2.24-1.63-2.4a1,1,0,0,0-1.21,1,2.18,2.18,0,0,0,.84,1.65,6.75,6.75,0,0,0,1.87.87c-.06.31-.13.61-.2.91s-.1.39-.17.59-.12.39-.19.58c-.13.37-.27.75-.4,1.1l-.29.72c0-.31.13-.9.13-1a4,4,0,0,0-.55-2,.89.89,0,0,0,0-.23,1,1,0,0,0-1.28-.89c-.86.23-1.41,1.73-1.45,2.52,0,.05,0,.56.06.88,0-.19-.09-.37-.13-.56-.09-.38-.2-.75-.3-1.16l-.18-.59c0-.19-.14-.39-.21-.6q-.26-.69-.57-1.38a7,7,0,0,0,2-.74,2.17,2.17,0,0,0,1-1.58,1,1,0,0,0-1.13-1.08c-.88.1-1.65,1.51-1.81,2.28,0,0-.06.62-.08.93-.13-.27-.25-.55-.39-.82-.4-.8-.82-1.59-1.24-2.38L80,412a7.26,7.26,0,0,0,2-.76,2.22,2.22,0,0,0,1-1.58,1.05,1.05,0,0,0-1.14-1.07c-.88.09-1.65,1.5-1.81,2.28,0,.06-.08.88-.09,1.09-.28-.54-.55-1.08-.8-1.61a21.5,21.5,0,0,1-.87-2.24,7.45,7.45,0,0,0,2.07-.76,2.17,2.17,0,0,0,1-1.58,1.05,1.05,0,0,0-1.13-1.08c-.89.1-1.65,1.51-1.81,2.28,0,.06-.09.95-.1,1.11,0-.05,0-.09,0-.14a12.88,12.88,0,0,1-.45-2.36c0-.44-.07-.86-.09-1.28a7,7,0,0,0,2.09-.52A2.18,2.18,0,0,0,81,402.29a1.06,1.06,0,0,0-1-1.2c-.89,0-1.8,1.31-2,2.07,0,0-.1.47-.16.79,0-.19,0-.38,0-.56,0-.67,0-1.29.09-1.83,0-.31,0-.59.08-.85a6.88,6.88,0,0,0,1.6-1.42,2.19,2.19,0,0,0,.33-1.82,1,1,0,0,0-1.44-.59c-.79.41-1,2-.87,2.78,0,.06.31,1.1.32,1.09h0c0,.25-.07.52-.1.81-.06.55-.11,1.16-.13,1.84a20.34,20.34,0,0,0,.06,2.17,13.17,13.17,0,0,0,.4,2.41v0c-.14-.22-.55-.82-.59-.86-.52-.6-1.87-1.45-2.69-1.1a1.05,1.05,0,0,0-.47,1.49A2.19,2.19,0,0,0,76,408.42Z" style="fill:#263238"></path><path d="M91.21,404.25s.28-1,.29-1.1c.11-.78-.14-2.37-.94-2.75a1,1,0,0,0-1.43.63,2.22,2.22,0,0,0,.38,1.81A7.62,7.62,0,0,0,91.21,404.25Z" style="fill:#263238"></path></g><g id="freepik--Character--inject-112"><path d="M518.38,268.66l-1.74,26.95-5.41,19.82-.43,6.49-8.12.76s3.57-49.47,4.87-54.24,6.28-12.12,6.28-12.12l8.23-4" style="fill:#92E3A9"></path><path d="M502.68,323.18a.5.5,0,0,1-.35-.14.5.5,0,0,1-.15-.4c.15-2,3.59-49.57,4.89-54.33s6.14-12,6.34-12.27a.47.47,0,0,1,.2-.17l8.23-4a.5.5,0,1,1,.43.9l-8.1,3.95c-.62.93-5,7.55-6.14,11.86s-4.4,47.95-4.81,53.56l7.11-.67.4-6.07,5.42-19.86,1.73-26.9a.49.49,0,0,1,.53-.47.5.5,0,0,1,.46.53l-1.73,27s0,.06,0,.1l-5.42,19.81L511.3,322a.5.5,0,0,1-.46.47l-8.12.76Z" style="fill:#263238"></path><path d="M514.53,308.06l4.14,56.42s-.62,17.94.61,23.77-.46,20.84-.46,20.84l-2,1.38v4s-7.52,2.76-8.74,3.52-1.08,4.45,0,5.06a16.66,16.66,0,0,0,9.35.77c3.53-.92,7.9-1.56,8.51-1.87s2.68.2,3.76-1.33.3-5.37.3-6,.77-14.27.77-14.27,2.45-23.3,2-27.29.77-12.11.77-12.11l2.15-26.22,7.82,36,4.83,37.34-.76,2.15.91,3.83s-.61,7.06-.61,8,4.91,4.44,6.9,3.83,5.06-2.15,5.67-4.29-1.84-8.74-1.84-8.74a38,38,0,0,0,2.61-4.45c0-.46-2.15-4.91-2.15-6.13s-1.92-45.63-1.92-45.63l.92-29-.15-16.26.15-5.67-43.85-2.61Z" style="fill:#263238"></path><path d="M554.27,426.47c-1.48,0-3.52-1.11-5-2.18-1.27-.94-1.92-1.69-1.92-2.22,0-.89.54-7.11.61-7.94l-.9-3.75a.57.57,0,0,1,0-.29l.73-2L543,370.84l-7.1-32.71L534,361c0,.11-1.22,8.14-.77,12s-1.89,26.45-2,27.41c-.27,4.69-.77,13.74-.77,14.21,0,.11,0,.33.07.63.18,1.48.51,4.25-.47,5.64a3.88,3.88,0,0,1-3.25,1.41,2.76,2.76,0,0,0-.69.08,17.61,17.61,0,0,1-3,.7c-1.66.32-3.74.72-5.59,1.2a17,17,0,0,1-9.72-.81c-.79-.45-1.09-1.79-1.12-2.89,0-.54,0-2.37,1.1-3s7-2.9,8.51-3.45v-3.64a.51.51,0,0,1,.21-.41l1.81-1.25c.2-1.89,1.55-15.16.44-20.46-1.23-5.82-.65-23.15-.62-23.88L514,308.09h0l-.31-4.91a.49.49,0,0,1,.14-.38.53.53,0,0,1,.39-.15l43.85,2.61a.5.5,0,0,1,.47.51l-.15,5.68.15,16.23-.92,29c.08,1.78,1.93,44.38,1.93,45.61a20.53,20.53,0,0,0,1.41,4.09,8.12,8.12,0,0,1,.73,2c0,.15,0,.59-2.55,4.51.48,1.33,2.36,6.74,1.77,8.81-.65,2.26-3.64,3.91-6,4.64A2.34,2.34,0,0,1,554.27,426.47Zm-6.17-16.18L549,414a.42.42,0,0,1,0,.16c-.21,2.43-.61,7.22-.61,7.93a9.71,9.71,0,0,0,3.22,2.5,4.9,4.9,0,0,0,3,.85c1.72-.53,4.77-1.95,5.34-3.95.47-1.63-1.16-6.64-1.82-8.43a.48.48,0,0,1,.05-.45,39.7,39.7,0,0,0,2.53-4.23c0-.08-.37-.89-.66-1.6a17.24,17.24,0,0,1-1.49-4.47c0-1.21-1.91-45.16-1.93-45.6l.92-29-.15-16.23.14-5.21-42.81-2.55L515,308l4.14,56.43c0,.23-.59,18,.61,23.7s-.39,20.38-.45,21a.51.51,0,0,1-.22.35l-1.77,1.23v3.73a.52.52,0,0,1-.33.47c-2.08.76-7.68,2.87-8.65,3.48a2.74,2.74,0,0,0-.63,2.16,2.89,2.89,0,0,0,.61,2,16.52,16.52,0,0,0,9,.72c1.88-.49,4-.9,5.65-1.23a27.93,27.93,0,0,0,2.77-.6,2.81,2.81,0,0,1,1.07-.19,3,3,0,0,0,2.5-1c.75-1.07.42-3.79.28-4.94,0-.36-.07-.62-.07-.75,0-.62.74-13.74.77-14.29,0-.26,2.44-23.33,2-27.21s.72-11.91.77-12.25l2.15-26.18a.5.5,0,0,1,.46-.46.47.47,0,0,1,.52.39l7.82,36,4.85,37.38a.45.45,0,0,1,0,.23Zm-29.28-1.2h0Z" style="fill:#263238"></path><path d="M514.69,295.72l-2.27-1.08-2.81,4.55,2.7,9.63s2.28,1,2.6.76a36.09,36.09,0,0,0,2.27-3.25s12.35,5.41,22.2,5.09,15.37-2.27,15.37-2.27l.76,6.6s4.54,2.17,4.87,1.41,2.71-10.94,2.71-10.94l-2.39-4s-.75-4.33-1.08-4.33-2.6.43-2.6.43Z" style="fill:#263238"></path><path d="M560,317.81c-1.2,0-3.63-1.09-4.72-1.61a.5.5,0,0,1-.28-.39l-.69-6a60.8,60.8,0,0,1-14.93,2.11c-9,.29-19.8-4-22-5a19.34,19.34,0,0,1-2.19,3c-.18.11-.56.36-3.07-.72a.51.51,0,0,1-.29-.32l-2.7-9.64a.51.51,0,0,1,.05-.4l2.82-4.54a.5.5,0,0,1,.64-.19l2.18,1L557,297.82c.61-.12,2.3-.43,2.63-.43s.74,0,1.56,4.65l2.33,3.93a.48.48,0,0,1,.06.37c-.24,1-2.4,10.24-2.73,11a.74.74,0,0,1-.43.4A1.16,1.16,0,0,1,560,317.81Zm-4-2.39a15.7,15.7,0,0,0,4,1.4h0c.33-1.05,1.68-6.67,2.58-10.51l-2.28-3.84a.49.49,0,0,1-.06-.17,34.32,34.32,0,0,0-.85-3.88c-.46.06-1.4.23-2.24.39H557l-42.33-2.6a.41.41,0,0,1-.18-.05l-1.87-.89-2.46,4,2.58,9.2a11.4,11.4,0,0,0,2,.65c.28-.34,1.25-1.77,2.07-3.05a.53.53,0,0,1,.63-.19c.12.06,12.37,5.37,22,5.05s15.17-2.23,15.22-2.25a.5.5,0,0,1,.43.05.52.52,0,0,1,.24.37Z" style="fill:#263238"></path><path d="M517.08,263.25l-2.39,35s4.88,3,18.41,3.14a89,89,0,0,0,23.92-3l.65-20.78,5.85,11.15s1,.65,6-1,5.09-4.33,5.09-5.3S561,254.8,561,254.8l-19.38-7.25-13.32,2.06-10.39,5" style="fill:#92E3A9"></path><path d="M533.77,301.86h-.68c-13.51-.11-18.46-3.09-18.66-3.21a.48.48,0,0,1-.23-.46l2.38-35a.49.49,0,0,1,.53-.46.5.5,0,0,1,.47.53l-2.37,34.65c1.17.58,6.38,2.83,17.89,2.92a90.11,90.11,0,0,0,23.43-2.91l.64-20.42a.5.5,0,0,1,.39-.47.49.49,0,0,1,.55.25l5.76,11c.32,0,1.69.17,5.45-1.05,4.74-1.55,4.74-4,4.74-4.83-.22-1.05-8.09-16.79-13.39-27.21l-19.07-7.14-13.12,2L518.16,255a.51.51,0,0,1-.67-.24.5.5,0,0,1,.24-.67l10.39-5,.14,0,13.31-2.06a.57.57,0,0,1,.26,0l19.37,7.25a.47.47,0,0,1,.27.25c4.09,8,13.59,26.84,13.59,27.83,0,2.66-1.83,4.6-5.43,5.78-4.83,1.57-6.11,1.1-6.39.91a.4.4,0,0,1-.16-.18l-5-9.47-.59,18.89a.49.49,0,0,1-.35.46A90.33,90.33,0,0,1,533.77,301.86Z" style="fill:#263238"></path><path d="M530.18,255.13a29.9,29.9,0,0,1,2.81,2.38c.54.65-4.44,44.06-4.44,44.06l3.79,5.41,4.76-5.19-1.94-44.17,3.78-2.49L534.51,251Z" style="fill:#263238"></path><path d="M532.34,307.48h0a.52.52,0,0,1-.38-.21l-3.79-5.41a.56.56,0,0,1-.09-.35c1.91-16.6,4.64-41.67,4.48-43.77a32.92,32.92,0,0,0-2.66-2.22.47.47,0,0,1-.19-.37.5.5,0,0,1,.15-.39l4.33-4.11a.5.5,0,0,1,.68,0l4.44,4.11a.46.46,0,0,1,.16.41.47.47,0,0,1-.22.37l-3.55,2.34,1.93,43.88a.46.46,0,0,1-.13.36l-4.76,5.2A.52.52,0,0,1,532.34,307.48Zm-3.27-6,3.32,4.74,4.2-4.58-1.93-44a.47.47,0,0,1,.22-.44l3.26-2.14-3.63-3.36-3.57,3.39a20.68,20.68,0,0,1,2.43,2.1C533.54,257.39,534.05,258,529.07,301.44Z" style="fill:#263238"></path><path d="M528.66,242.36l.13,5.51,5.67,7.36,7.67-8.72-.63-3.89s-3.36,2.84-5.15,3S528.66,242.36,528.66,242.36Z" style="fill:#d1d1d1"></path><path d="M534.46,255.73h0a.54.54,0,0,1-.38-.19l-5.68-7.36a.51.51,0,0,1-.1-.29l-.13-5.52a.5.5,0,0,1,.25-.44.52.52,0,0,1,.51,0c2.22,1.33,6.17,3.38,7.37,3.24,1.35-.16,4-2.17,4.89-2.93a.51.51,0,0,1,.5-.09.51.51,0,0,1,.32.39l.63,3.89a.5.5,0,0,1-.12.41l-7.67,8.72A.5.5,0,0,1,534.46,255.73Zm-5.18-8,5.21,6.74,7.11-8.09-.45-2.8c-1.12.87-3.31,2.45-4.74,2.61s-5.5-1.94-7.23-2.92Z" style="fill:#263238"></path><polygon points="536.35 245.67 528.79 247.87 528.98 241.51 536.35 245.67" style="fill:#263238"></polygon><path d="M528.27,248.55l.24-7.88,9.12,5.14Zm1.19-6.19-.15,4.84,5.76-1.68Z" style="fill:#263238"></path><path d="M530.6,221.18a6.66,6.66,0,0,0-3.88,3.89c-1,2.92-.33,8.21-.33,8.21s1.19,7.89,2.27,9.08,4.86,4.21,6.7,4.21,6.37-3.35,7-4.86,1.19-11.13.54-13.83-1.73-5.72-5.08-6.91S530.6,221.18,530.6,221.18Z" style="fill:#d1d1d1"></path><path d="M535.36,247.07c-2.16,0-6.11-3.32-7.07-4.37-1.13-1.24-2.19-8-2.39-9.34,0-.24-.66-5.45.34-8.44a7.12,7.12,0,0,1,4.2-4.21c.23-.08,4.13-1.44,7.57-.21s4.7,4.37,5.4,7.27c.65,2.74.15,12.47-.57,14.14S537.37,247.07,535.36,247.07ZM534.84,221a14,14,0,0,0-4.07.66h0a6.22,6.22,0,0,0-3.57,3.57c-.93,2.78-.31,7.94-.3,8,.45,3,1.43,8,2.14,8.8,1.06,1.17,4.74,4,6.33,4s6-3.19,6.56-4.56,1.16-10.84.51-13.51-1.7-5.48-4.75-6.56A8.56,8.56,0,0,0,534.84,221Zm-4.24.19h0Z" style="fill:#263238"></path><path d="M532.11,232.31c0,.46-.25.83-.56.83s-.57-.37-.57-.83.25-.83.57-.83S532.11,231.85,532.11,232.31Z" style="fill:#263238"></path><ellipse cx="538.82" cy="232.31" rx="0.56" ry="0.83" style="fill:#263238"></ellipse><path d="M536,237.9a12.29,12.29,0,0,1-2.76-.7l.32-.94a12,12,0,0,0,2.44.64,6.35,6.35,0,0,0,1.58-.72l.55.83a6.83,6.83,0,0,1-2,.88Z" style="fill:#263238"></path><path d="M535.66,240.27a9.45,9.45,0,0,1-3.07-.52c-.81-.31-1.21-.64-1.24-1.05l1-.08a.3.3,0,0,0,0-.15,5.87,5.87,0,0,0,3,.78,4.92,4.92,0,0,0,3.6-1.08l.71.71A5.57,5.57,0,0,1,535.66,240.27Z" style="fill:#263238"></path><path d="M529.6,231.45l-.69-.73a4.88,4.88,0,0,1,4.52-.79l-.25,1A3.88,3.88,0,0,0,529.6,231.45Z" style="fill:#263238"></path><path d="M540.7,230.65a2.58,2.58,0,0,0-3-.06l-.67-.74a3.52,3.52,0,0,1,4.18-.06Z" style="fill:#263238"></path><path d="M526.39,233.28s-.86-1.8-1.59-.6-.33,3.25.6,4.65a6.93,6.93,0,0,0,1.93,2Z" style="fill:#d1d1d1"></path><path d="M528,240.3l-.91-.55A7.39,7.39,0,0,1,525,237.6c-1-1.43-1.49-3.74-.6-5.18a1.12,1.12,0,0,1,1-.65c.77,0,1.29,1,1.43,1.3l0,.14Zm-2.63-7.53s-.05,0-.12.17c-.57.93-.31,2.77.59,4.11a7.12,7.12,0,0,0,.81,1l-.72-4.63C525.74,233.12,525.47,232.79,525.35,232.77Z" style="fill:#263238"></path><path d="M543.27,232.28s.93-1.33,1.33.07-1.53,5.71-1.53,5.71Z" style="fill:#d1d1d1"></path><path d="M542.48,240.6l.3-8.49.08-.12c.11-.15.65-.89,1.34-.77.42.07.71.4.88,1,.43,1.49-1.22,5.3-1.55,6Zm1.29-8.14-.1,2.62a6,6,0,0,0,.45-2.6.78.78,0,0,0-.13-.3S543.87,232.33,543.77,232.46Z" style="fill:#263238"></path><path d="M542.27,227.5a10.64,10.64,0,0,0,.93,3.32,16.26,16.26,0,0,0-.28-2.94c-.65-2.7-1.73-5.72-5.08-6.91s-7.24.21-7.24.21a6.66,6.66,0,0,0-3.88,3.89c-.76,2.28-.54,6-.4,7.51a16.33,16.33,0,0,0,.81-2.83c0-.59.13-4.25.13-4.25s-.13-1.53,5.12-2a21.3,21.3,0,0,1,8.63.8A6.28,6.28,0,0,1,542.27,227.5Z" style="fill:#263238"></path><path d="M526,234.91l-.21-2.28c-.13-1.53-.37-5.35.42-7.71a7.1,7.1,0,0,1,4.21-4.21,12.56,12.56,0,0,1,7.56-.21c3.52,1.25,4.7,4.37,5.4,7.27a16.75,16.75,0,0,1,.29,3l.06,2.31-1-2.07a10.66,10.66,0,0,1-1-3.49h0a6.06,6.06,0,0,0-1.07-2.82,21.94,21.94,0,0,0-8.29-.72c-4.36.38-4.66,1.49-4.66,1.5s-.13,3.66-.13,4.24a14.56,14.56,0,0,1-.84,3ZM534.84,221a14,14,0,0,0-4.07.66,6.56,6.56,0,0,0-3.09,2.52,11,11,0,0,1,4.65-1.16,23.35,23.35,0,0,1,8.34.66,6.12,6.12,0,0,0-3-2.23A8.56,8.56,0,0,0,534.84,221Z" style="fill:#263238"></path><polygon points="528.79 247.87 526.06 250.25 527.9 260.65 532.99 253.72 528.79 247.87" style="fill:#92E3A9"></polygon><path d="M527.9,261.15l-.11,0a.48.48,0,0,1-.38-.4l-1.84-10.39a.49.49,0,0,1,.16-.46l2.73-2.38a.47.47,0,0,1,.38-.12.49.49,0,0,1,.35.2l4.21,5.85a.51.51,0,0,1,0,.59l-5.09,6.92A.49.49,0,0,1,527.9,261.15Zm-1.3-10.7,1.59,9,4.18-5.69-3.67-5.11Z" style="fill:#263238"></path><polygon points="536.13 253.29 540.89 258.92 544.9 248.31 542.13 246.51 536.13 253.29" style="fill:#92E3A9"></polygon><path d="M540.89,259.42a.53.53,0,0,1-.38-.18l-4.76-5.63a.49.49,0,0,1,0-.65l6-6.78a.48.48,0,0,1,.64-.09l2.77,1.8a.5.5,0,0,1,.2.59l-4,10.61a.5.5,0,0,1-.38.32Zm-4.1-6.13,3.94,4.65,3.56-9.43-2.07-1.35Z" style="fill:#263238"></path><polygon points="546.2 247.98 545.12 250.58 559.19 256.32 561.03 254.8 546.2 247.98" style="fill:#263238"></polygon><path d="M559.28,256.89l-14.82-6,1.48-3.54,16,7.37Zm-13.51-6.58,13.33,5.43,1-.82-13.63-6.27Z" style="fill:#263238"></path><polygon points="525.85 249.5 525.2 251.34 512.53 257.29 514.8 254.59 525.85 249.5" style="fill:#263238"></polygon><path d="M510.68,258.71l3.91-4.58,12.12-5.58-1.11,3.15Zm4.43-3.72-.73.88,10.41-4.9.19-.52Z" style="fill:#263238"></path><path d="M565.14,282.73l-18.29,13,4.11,7.36s15.26-7,19-9.41,6.39-7.26,6.28-9.53-4.44-3.46-4.44-3.46" style="fill:#92E3A9"></path><path d="M551,303.58a.5.5,0,0,1-.44-.25L546.41,296a.5.5,0,0,1,.15-.65l18.29-13a.51.51,0,0,1,.7.11.5.5,0,0,1-.12.7L547.5,295.87l3.67,6.57c2.48-1.15,15.21-7.08,18.58-9.2,3.65-2.29,6.14-7,6-9.08-.07-1.56-3-2.7-4.07-3a.5.5,0,1,1,.27-1c.47.13,4.68,1.36,4.8,3.93s-2.75,7.61-6.51,10-18.49,9.16-19.11,9.45A.52.52,0,0,1,551,303.58Z" style="fill:#263238"></path><path d="M546.85,295.72l-5.63,1.09-4.87,3.35s-1.52-.22-1.52.22.33,1.3,1,1.3,2.6-.33,2.6-.33l-3,5.31s.33,1.3,1.08,1.08,1.3-.43,1.3-.43a31.66,31.66,0,0,0,3.36,1.08c.76.11,2.27-.87,3-1.52s4.33-4.87,4.33-4.87l1.41-1Z" style="fill:#d1d1d1"></path><path d="M541.22,308.9l-.18,0a25.55,25.55,0,0,1-3.28-1c-.23.08-.65.23-1.17.38a1.07,1.07,0,0,1-.84-.1,2.28,2.28,0,0,1-.86-1.34.44.44,0,0,1,.05-.37l2.51-4.41a13.86,13.86,0,0,1-1.65.18c-.94,0-1.47-1.07-1.47-1.8a.64.64,0,0,1,.24-.51,2.36,2.36,0,0,1,1.65-.23l4.71-3.25a.64.64,0,0,1,.19-.08l5.63-1.08a.51.51,0,0,1,.53.24l3,5.31a.49.49,0,0,1-.15.66l-1.35.94c-.43.5-3.6,4.24-4.34,4.87C543.91,307.73,542.3,308.9,541.22,308.9Zm-3.47-2.09.18,0a29.59,29.59,0,0,0,3.25,1.05,5.39,5.39,0,0,0,2.64-1.4c.59-.51,3.28-3.65,4.27-4.81l.1-.09,1-.71-2.63-4.6-5.18,1-4.78,3.29a.54.54,0,0,1-.35.09,5.06,5.06,0,0,0-.91-.05c.07.27.24.57.43.57a25.17,25.17,0,0,0,2.52-.32.5.5,0,0,1,.49.21.51.51,0,0,1,0,.53l-2.93,5.11a1.29,1.29,0,0,0,.34.54,12.78,12.78,0,0,0,1.32-.41Z" style="fill:#263238"></path><path d="M510.8,321.92l1.08,3.9s.65,6.39.87,6.82.21,2.06-.76,1.62S510.8,332,510.8,332l-1.19-3.36-1.19,3.14,1.08,3,3.46,1.95s.65,1.3.22,1.63-1.73-.76-1.73-.76-3.36-1.41-4-1.73-3.35-5.42-3.35-5.74v-7.69Z" style="fill:#d1d1d1"></path><path d="M513,338.93a3.43,3.43,0,0,1-1.8-.88c-.49-.21-3.35-1.41-4-1.72-.85-.42-3.63-5.69-3.63-6.18v-7.69a.5.5,0,0,1,.46-.5l6.71-.54a.51.51,0,0,1,.52.37l1.08,3.89c.32,3,.71,6.37.84,6.76a2.19,2.19,0,0,1-.23,2.1,1,1,0,0,1-1.18.18c-1.13-.5-1.43-2.22-1.48-2.61l-.72-2-.64,1.7,1,2.68,3.3,1.86a.58.58,0,0,1,.2.21c.25.5.76,1.73.07,2.25A.82.82,0,0,1,513,338.93Zm-8.39-16v7.23a31.2,31.2,0,0,0,3.1,5.3c.6.3,3.92,1.69,3.95,1.71l.13.07a4.27,4.27,0,0,0,1.09.69,4.62,4.62,0,0,0-.28-.81l-3.33-1.87A.53.53,0,0,1,509,335l-1.08-3a.53.53,0,0,1,0-.35l1.19-3.13a.48.48,0,0,1,.47-.33.51.51,0,0,1,.47.34l1.19,3.35a.43.43,0,0,1,0,.11c0,.4.32,1.62.9,1.87l.1,0h0a1.67,1.67,0,0,0,0-1,66.87,66.87,0,0,1-.92-7l-.95-3.42Z" style="fill:#263238"></path><path d="M515.56,270.07l-.43,6.38s3.68-1.3,5.52-.21c0,0,3.79-3.68,7.47-1.09l-.11-6.6Z" style="fill:#263238"></path><path d="M515.13,277a.45.45,0,0,1-.3-.1.48.48,0,0,1-.2-.43l.43-6.39a.5.5,0,0,1,.44-.46L528,268.05a.51.51,0,0,1,.39.12.5.5,0,0,1,.17.37l.11,6.61a.5.5,0,0,1-.79.41c-3.29-2.32-6.69.9-6.83,1a.53.53,0,0,1-.61.07c-1.33-.79-4.13-.08-5.1.25A.45.45,0,0,1,515.13,277Zm.9-6.44-.35,5.25c1.13-.31,3.37-.78,4.89-.12.91-.75,3.92-2.9,7-1.37l-.08-5.16Z" style="fill:#263238"></path><path d="M517,289.29a.5.5,0,0,1-.05-1l10.16-.94v-11a.5.5,0,0,1,.5-.5.51.51,0,0,1,.5.5v11.48a.51.51,0,0,1-.46.5l-10.61,1Z" style="fill:#263238"></path><path d="M552.72,270.28l.09,6.29s-3.67-1.26-5.6-.19c0,0-3.64-3.62-7.52-1l.47-6.51Z" style="fill:#263238"></path><path d="M552.81,277.07a.51.51,0,0,1-.17,0c-1-.33-3.77-1-5.18-.23a.5.5,0,0,1-.6-.08c-.14-.13-3.41-3.29-6.9-1a.49.49,0,0,1-.53,0,.5.5,0,0,1-.24-.47l.47-6.51a.5.5,0,0,1,.18-.34.53.53,0,0,1,.38-.12l12.55,1.46a.5.5,0,0,1,.45.49l.09,6.29a.49.49,0,0,1-.5.5Zm-3.55-1.62a12.32,12.32,0,0,1,3,.45l-.08-5.17-11.6-1.34-.37,5.06c3.23-1.51,6.16.6,7,1.33A5.24,5.24,0,0,1,549.26,275.45Z" style="fill:#263238"></path><path d="M550.26,289.24h0l-10.72-.92a.5.5,0,0,1-.46-.52l.63-11.31a.51.51,0,0,1,.53-.47.5.5,0,0,1,.47.53l-.6,10.82,10.23.88a.5.5,0,0,1,0,1Z" style="fill:#263238"></path><path d="M561.63,256.08s-2.18,2.18-1.74,3.49,6.09,5.66,6.09,5.66Z" style="fill:#fff"></path><path d="M566,265.73a.5.5,0,0,1-.3-.11c-1-.74-5.8-4.51-6.27-5.89-.51-1.56,1.62-3.75,1.87-4a.49.49,0,0,1,.8.14l4.35,9.14a.51.51,0,0,1-.13.61A.54.54,0,0,1,566,265.73ZM561.5,257c-.68.82-1.32,1.88-1.14,2.44s2.26,2.46,4.24,4.08Z" style="fill:#263238"></path><path d="M547.41,260.44l-3.7,1.74a12.2,12.2,0,0,0,.8,2.61,15.36,15.36,0,0,0,2.75,3.34,10.6,10.6,0,0,0,3.27-5.59Z" style="fill:#fff"></path><path d="M547.26,268.63a.51.51,0,0,1-.34-.14,15.5,15.5,0,0,1-2.87-3.5,12.27,12.27,0,0,1-.83-2.73.48.48,0,0,1,.28-.53l3.7-1.74a.48.48,0,0,1,.49,0l3.12,2.11a.5.5,0,0,1,.21.51,11,11,0,0,1-3.43,5.87A.52.52,0,0,1,547.26,268.63Zm-3-6.17a11.84,11.84,0,0,0,.68,2.13,13,13,0,0,0,2.31,2.85,10.18,10.18,0,0,0,2.7-4.67l-2.6-1.76Z" style="fill:#263238"></path></g><g id="freepik--Car--inject-112"><path d="M119.85,398.91h214.2a21.46,21.46,0,0,0,5.11-.62l35-8.67a21.22,21.22,0,0,0,14-29.85L386.76,357a21.22,21.22,0,0,0-19.1-12h-242a21.23,21.23,0,0,0-18.92,11.61l-5.83,11.48a21.22,21.22,0,0,0,4.87,25.52h0A21.26,21.26,0,0,0,119.85,398.91Z" style="fill:#263238"></path><path d="M334.05,399.41H119.85a21.72,21.72,0,0,1-19.37-31.56l5.83-11.47a21.64,21.64,0,0,1,19.37-11.89h242a21.85,21.85,0,0,1,19.55,12.26l1.36,2.8a21.72,21.72,0,0,1-14.32,30.55l-35,8.67A22,22,0,0,1,334.05,399.41ZM125.68,345.49a20.64,20.64,0,0,0-18.48,11.34l-5.83,11.48a20.72,20.72,0,0,0,18.48,30.1h214.2a21,21,0,0,0,5-.61l35-8.67A20.72,20.72,0,0,0,387.67,360l-1.36-2.81a20.84,20.84,0,0,0-18.65-11.69Z" style="fill:#263238"></path><path d="M367.87,354.21H355v2.53A34.16,34.16,0,0,0,355,420v2.52h12.89a34.16,34.16,0,0,0,0-68.32Z" style="fill:#263238"></path><path d="M367.87,423H355a.5.5,0,0,1-.5-.5v-2.19a34.66,34.66,0,0,1,0-63.94v-2.19a.5.5,0,0,1,.5-.5h12.89a34.66,34.66,0,0,1,0,69.32Zm-12.39-1h12.39a33.66,33.66,0,0,0,0-67.32H355.48v2a.5.5,0,0,1-.31.46,33.66,33.66,0,0,0,0,62.34.5.5,0,0,1,.31.47Z" style="fill:#263238"></path><circle cx="354.98" cy="388.37" r="34.16" style="fill:#878787"></circle><path d="M355,423a34.66,34.66,0,1,1,34.66-34.66A34.7,34.7,0,0,1,355,423Zm0-68.32a33.66,33.66,0,1,0,33.66,33.66A33.7,33.7,0,0,0,355,354.71Z" style="fill:#263238"></path><circle cx="354.98" cy="388.37" r="24.88" style="fill:#fff"></circle><path d="M355,413.75a25.38,25.38,0,1,1,25.38-25.38A25.41,25.41,0,0,1,355,413.75ZM355,364a24.38,24.38,0,1,0,24.38,24.37A24.39,24.39,0,0,0,355,364Z" style="fill:#263238"></path><path d="M477.5,354.21H464.61a34.16,34.16,0,0,0,0,68.32H477.5a34.16,34.16,0,1,0,0-68.32Z" style="fill:#263238"></path><path d="M477.5,423H464.61a34.66,34.66,0,0,1,0-69.32H477.5a34.66,34.66,0,0,1,0,69.32Zm-12.89-68.32a33.66,33.66,0,0,0,0,67.32H477.5a33.66,33.66,0,1,0,0-67.32Z" style="fill:#263238"></path><path d="M151.61,354.21H134.37v14.55a52.25,52.25,0,0,0,0,39.32v14.55h17.24c11.65,0,21.09-15.32,21.09-34.21S163.26,354.21,151.61,354.21Z" style="fill:#263238"></path><path d="M151.61,423.13H134.37a.5.5,0,0,1-.5-.5V408.18a52.76,52.76,0,0,1,0-39.52V354.21a.5.5,0,0,1,.5-.5h17.24c11.91,0,21.59,15.57,21.59,34.71S163.52,423.13,151.61,423.13Zm-16.74-1h16.74c11.35,0,20.59-15.12,20.59-33.71s-9.24-33.71-20.59-33.71H134.87v14.05a.46.46,0,0,1-.05.2,51.85,51.85,0,0,0,0,38.92.46.46,0,0,1,.05.2Z" style="fill:#263238"></path><ellipse cx="134.37" cy="388.42" rx="21.08" ry="34.21" style="fill:#878787"></ellipse><path d="M134.37,423.13c-11.9,0-21.59-15.57-21.59-34.71s9.69-34.71,21.59-34.71S156,369.28,156,388.42,146.27,423.13,134.37,423.13Zm0-68.42c-11.35,0-20.59,15.12-20.59,33.71s9.24,33.71,20.59,33.71S155,407,155,388.42,145.72,354.71,134.37,354.71Z" style="fill:#263238"></path><ellipse cx="134.37" cy="388.42" rx="14.93" ry="24.23" style="fill:#fff"></ellipse><path d="M134.37,413.15c-8.51,0-15.44-11.09-15.44-24.73s6.93-24.73,15.44-24.73,15.43,11.09,15.43,24.73S142.88,413.15,134.37,413.15Zm0-48.46c-8,0-14.44,10.64-14.44,23.73s6.48,23.73,14.44,23.73,14.43-10.64,14.43-23.73S142.32,364.69,134.37,364.69Z" style="fill:#263238"></path><polygon points="424.11 309.69 413.95 318.6 413.95 322.13 427.94 322.13 424.11 309.69" style="fill:#fff"></polygon><path d="M427.94,322.63H414a.5.5,0,0,1-.5-.5V318.6a.49.49,0,0,1,.17-.38l10.16-8.91a.5.5,0,0,1,.47-.1.49.49,0,0,1,.34.33L428.41,322a.49.49,0,0,1-.47.65Zm-13.49-1h12.81l-3.4-11.06-9.41,8.25Z" style="fill:#263238"></path><rect x="424.11" y="305.87" width="26.13" height="16.36" rx="3.39" transform="translate(874.35 628.09) rotate(180)" style="fill:#fff"></rect><path d="M446.85,322.72H427.5a3.89,3.89,0,0,1-3.89-3.88v-9.59a3.89,3.89,0,0,1,3.89-3.88h19.35a3.89,3.89,0,0,1,3.89,3.88v9.59A3.89,3.89,0,0,1,446.85,322.72ZM427.5,306.37a2.89,2.89,0,0,0-2.89,2.88v9.59a2.89,2.89,0,0,0,2.89,2.88h19.35a2.88,2.88,0,0,0,2.89-2.88v-9.59a2.88,2.88,0,0,0-2.89-2.88Z" style="fill:#263238"></path><circle cx="435.71" cy="311.31" r="7.1" style="fill:#fff"></circle><path d="M435.71,318.92a7.61,7.61,0,1,1,7.61-7.61A7.62,7.62,0,0,1,435.71,318.92Zm0-14.21a6.61,6.61,0,1,0,6.61,6.6A6.61,6.61,0,0,0,435.71,304.71Z" style="fill:#263238"></path><path d="M435.42,321.86l-41.07-33.68A62.35,62.35,0,0,0,354.8,274H246l70.68,47.83Z" style="fill:#fff"></path><path d="M435.42,322.36H316.69a.54.54,0,0,1-.28-.08l-70.68-47.83a.5.5,0,0,1,.28-.91H354.8a63,63,0,0,1,39.87,14.25l41.07,33.69a.48.48,0,0,1,.16.55A.51.51,0,0,1,435.42,322.36Zm-118.58-1H434l-40-32.79a62,62,0,0,0-39.24-14H247.64Z" style="fill:#263238"></path><path d="M397.65,292.42a62.34,62.34,0,0,0-39.55-14.14H268.61a62.36,62.36,0,0,1,23.88,16.54l24.2,27H433.55Z" style="fill:#263238"></path><path d="M433.55,322.36H316.69a.51.51,0,0,1-.37-.16l-24.2-27.05a62.22,62.22,0,0,0-23.69-16.41.48.48,0,0,1-.31-.56.49.49,0,0,1,.49-.4H358.1A63,63,0,0,1,398,292l35.9,29.45a.5.5,0,0,1-.32.88Zm-116.63-1H432.15l-34.82-28.55a62,62,0,0,0-39.23-14h-87a63.19,63.19,0,0,1,21.74,15.71Z" style="fill:#263238"></path><polygon points="316.69 321.86 313.76 321.89 319.99 326.1 334.99 326.1 316.69 321.86" style="fill:#fff"></polygon><path d="M335,326.6H320a.54.54,0,0,1-.28-.08l-6.23-4.21a.51.51,0,0,1,.28-.92l2.93,0,.11,0,18.3,4.24a.49.49,0,0,1,.39.54A.51.51,0,0,1,335,326.6Zm-14.85-1h10.48l-14-3.24-1.27,0Z" style="fill:#263238"></path><polygon points="556.55 399.27 427.22 399.27 424.79 382.24 411.72 343.89 451.89 340.88 509.81 340.88 546.39 343.89 559.45 382.18 556.55 399.27" style="fill:#fff"></polygon><path d="M556.55,399.77H427.22a.51.51,0,0,1-.5-.43l-2.42-17-13.06-38.26a.52.52,0,0,1,.06-.44.5.5,0,0,1,.38-.22l40.18-3h57.95l36.62,3a.5.5,0,0,1,.43.34L559.92,382a.65.65,0,0,1,0,.24l-2.89,17.09A.51.51,0,0,1,556.55,399.77Zm-128.9-1H556.13l2.8-16.55L546,344.36l-36.25-3H451.89l-39.49,3,12.86,37.74Z" style="fill:#263238"></path><path d="M434,377.74l4.31,12.64a6.61,6.61,0,0,0,6.26,4.48H558.3A3.72,3.72,0,0,0,562,391l-.42-13.94a3.72,3.72,0,0,0-3.72-3.61H437A3.24,3.24,0,0,0,434,377.74Z" style="fill:#263238"></path><path d="M558.3,395.36H444.54a7.1,7.1,0,0,1-6.73-4.82l-4.31-12.63h0A3.74,3.74,0,0,1,437,373H557.88a4.2,4.2,0,0,1,4.22,4.1l.42,13.94a4.22,4.22,0,0,1-4.22,4.35ZM434.45,377.58l4.3,12.64a6.11,6.11,0,0,0,5.79,4.14H558.3a3.19,3.19,0,0,0,2.31-1,3.15,3.15,0,0,0,.91-2.34l-.42-13.94a3.21,3.21,0,0,0-3.22-3.13H437a2.72,2.72,0,0,0-2.58,3.61Z" style="fill:#263238"></path><polygon points="550.85 365.72 543.57 345.87 524 344.95 531.08 365.72 550.85 365.72" style="fill:#fff"></polygon><path d="M550.85,366.22H531.08a.51.51,0,0,1-.48-.34l-7.08-20.77a.51.51,0,0,1,.08-.46.47.47,0,0,1,.42-.2l19.57.92a.5.5,0,0,1,.45.32l7.28,19.86a.46.46,0,0,1-.06.45A.48.48,0,0,1,550.85,366.22Zm-19.42-1h18.71l-6.93-18.87-18.5-.87Z" style="fill:#263238"></path><polygon points="460.67 365.72 453.59 344.95 422.74 348.55 428.41 365.72 460.67 365.72" style="fill:#fff"></polygon><path d="M460.67,366.22H428.41a.5.5,0,0,1-.48-.35l-5.66-17.16a.5.5,0,0,1,.05-.43.54.54,0,0,1,.37-.23l30.84-3.6a.5.5,0,0,1,.53.34l7.08,20.77a.48.48,0,0,1-.06.45A.52.52,0,0,1,460.67,366.22Zm-31.9-1H460l-6.72-19.73L423.41,349Z" style="fill:#263238"></path><polygon points="522.97 365.72 515.89 344.95 461.69 344.95 468.77 365.72 522.97 365.72" style="fill:#263238"></polygon><path d="M523,366.22h-54.2a.51.51,0,0,1-.47-.34l-7.08-20.77a.5.5,0,0,1,.47-.66h54.2a.51.51,0,0,1,.48.34l7.08,20.77a.52.52,0,0,1-.07.45A.51.51,0,0,1,523,366.22Zm-53.84-1h53.14l-6.73-19.77H462.39Z" style="fill:#263238"></path><path d="M122.86,323.75l36.92-33.52A62.35,62.35,0,0,1,201.71,274H246a62.33,62.33,0,0,1,46.48,20.78l24.2,27Z" style="fill:#fff"></path><path d="M122.86,324.25a.5.5,0,0,1-.46-.32.48.48,0,0,1,.13-.55l36.91-33.52a62.74,62.74,0,0,1,42.27-16.32H246a62.94,62.94,0,0,1,46.86,20.95l24.19,27a.51.51,0,0,1,.09.54.49.49,0,0,1-.45.29l-193.83,1.89Zm78.85-49.71a61.75,61.75,0,0,0-41.6,16.06l-35.94,32.64,191.41-1.87-23.46-26.22A61.94,61.94,0,0,0,246,274.54Z" style="fill:#263238"></path><path d="M143.38,323.75l31.52-30.64a51.35,51.35,0,0,1,35.81-14.81h37.83a51.77,51.77,0,0,1,39.69,19L308.89,322Z" style="fill:#263238"></path><path d="M143.38,324.25a.5.5,0,0,1-.35-.86l31.52-30.64a51.76,51.76,0,0,1,36.16-14.95h37.83A52.31,52.31,0,0,1,288.61,297l20.67,24.72a.51.51,0,0,1,.07.53.49.49,0,0,1-.45.29l-165.52,1.73Zm67.33-45.45a50.78,50.78,0,0,0-35.46,14.66l-30.63,29.78,163.21-1.7-20-23.92a51.36,51.36,0,0,0-39.31-18.82Z" style="fill:#263238"></path><polygon points="435.43 321.86 546.39 343.89 509.81 340.88 451.89 340.88 411.72 343.89 316.69 321.86 435.43 321.86" style="fill:#fff"></polygon><path d="M546.39,344.39h0l-36.58-3H451.89l-40.13,3h-.15l-95-22a.5.5,0,0,1,.11-1H435.52l111,22a.5.5,0,0,1-.1,1Zm-225.33-22,90.7,21,40.1-3h57.95l27.88,2.29L435.38,322.36Z" style="fill:#263238"></path><path d="M227.43,278.3A97.79,97.79,0,0,0,214.14,323l12.24-.12c.48-11.66,3.05-32.55,14.61-44.59Z" style="fill:#878787"></path><path d="M214.14,323.51a.51.51,0,0,1-.36-.15.57.57,0,0,1-.14-.37A98.24,98.24,0,0,1,227,278a.51.51,0,0,1,.43-.24H241a.51.51,0,0,1,.46.3.49.49,0,0,1-.1.54c-11.49,12-14,32.88-14.47,44.27a.49.49,0,0,1-.49.47l-12.24.13Zm13.57-44.71a97.31,97.31,0,0,0-13,43.71l11.24-.12c.51-11.36,3-31.44,13.93-43.59Z" style="fill:#263238"></path><path d="M183.83,286.1a99.77,99.77,0,0,0-9.16,37.32l2.77,0c.49-10.64,2.53-27.37,10.08-39.4C186.26,284.64,185,285.35,183.83,286.1Z" style="fill:#878787"></path><path d="M174.67,323.92a.48.48,0,0,1-.36-.15.47.47,0,0,1-.14-.37,100.66,100.66,0,0,1,9.21-37.51.48.48,0,0,1,.19-.21c1.25-.78,2.5-1.5,3.72-2.13a.49.49,0,0,1,.59.11.48.48,0,0,1,.06.6c-7.32,11.67-9.48,27.74-10,39.16a.52.52,0,0,1-.5.48l-2.77,0Zm9.55-37.47a100,100,0,0,0-9,36.47l1.77,0c.54-11,2.61-26.07,9.19-37.59C185.51,285.67,184.87,286.05,184.22,286.45Z" style="fill:#263238"></path><polygon points="289.78 322.22 308.89 322.02 292.55 302.47 289.78 322.22" style="fill:#878787"></polygon><path d="M289.78,322.72a.5.5,0,0,1-.38-.17.52.52,0,0,1-.12-.4l2.78-19.75a.49.49,0,0,1,.87-.25l16.35,19.55a.51.51,0,0,1,.07.53.49.49,0,0,1-.45.29l-19.12.2Zm3.11-19.07-2.54,18.07,17.48-.18Z" style="fill:#263238"></path><polygon points="289.78 309.69 299.94 318.6 299.94 322.13 285.95 322.13 289.78 309.69" style="fill:#263238"></polygon><path d="M299.94,322.63H286a.49.49,0,0,1-.48-.65l3.82-12.44a.49.49,0,0,1,.34-.33.5.5,0,0,1,.47.1l10.16,8.91a.49.49,0,0,1,.17.38v3.53A.5.5,0,0,1,299.94,322.63Zm-13.31-1h12.81v-2.81L290,310.57Z" style="fill:#263238"></path><rect x="263.65" y="305.87" width="26.13" height="16.36" rx="3.39" style="fill:#fff"></rect><path d="M286.39,322.72H267a3.89,3.89,0,0,1-3.89-3.88v-9.59a3.89,3.89,0,0,1,3.89-3.88h19.35a3.89,3.89,0,0,1,3.89,3.88v9.59A3.89,3.89,0,0,1,286.39,322.72ZM267,306.37a2.89,2.89,0,0,0-2.89,2.88v9.59a2.89,2.89,0,0,0,2.89,2.88h19.35a2.89,2.89,0,0,0,2.89-2.88v-9.59a2.89,2.89,0,0,0-2.89-2.88Z" style="fill:#263238"></path><circle cx="282.67" cy="311.31" r="7.1" style="fill:#fff"></circle><path d="M282.67,318.92a7.61,7.61,0,1,1,7.61-7.61A7.62,7.62,0,0,1,282.67,318.92Zm0-14.21a6.61,6.61,0,1,0,6.61,6.6A6.61,6.61,0,0,0,282.67,304.71Z" style="fill:#263238"></path><rect x="223.11" y="259.7" width="132.83" height="12.97" style="fill:#263238"></rect><path d="M356,273.17H223.11a.5.5,0,0,1-.5-.5v-13a.5.5,0,0,1,.5-.5H356a.5.5,0,0,1,.5.5v13A.5.5,0,0,1,356,273.17Zm-132.34-1H355.45v-12H223.61Z" style="fill:#263238"></path><rect x="238.6" y="259.7" width="117.35" height="12.97" style="fill:#92E3A9"></rect><path d="M356,273.17H238.6a.5.5,0,0,1-.5-.5v-13a.5.5,0,0,1,.5-.5H356a.5.5,0,0,1,.5.5v13A.5.5,0,0,1,356,273.17Zm-116.85-1H355.45v-12H239.1Z" style="fill:#263238"></path><rect x="238.6" y="259.7" width="55.34" height="12.97" style="fill:#878787"></rect><path d="M293.94,273.17H238.6a.5.5,0,0,1-.5-.5v-13a.5.5,0,0,1,.5-.5h55.34a.5.5,0,0,1,.5.5v13A.5.5,0,0,1,293.94,273.17Zm-54.84-1h54.34v-12H239.1Z" style="fill:#263238"></path><rect x="287.54" y="259.7" width="19.46" height="12.97" style="fill:#263238"></rect><path d="M307,273.17H287.54a.5.5,0,0,1-.5-.5v-13a.5.5,0,0,1,.5-.5H307a.5.5,0,0,1,.5.5v13A.5.5,0,0,1,307,273.17Zm-19-1h18.47v-12H288Z" style="fill:#263238"></path><rect x="253.78" y="259.7" width="17.7" height="12.97" style="fill:#fff"></rect><path d="M271.48,273.17h-17.7a.5.5,0,0,1-.5-.5v-13a.5.5,0,0,1,.5-.5h17.7a.5.5,0,0,1,.5.5v13A.5.5,0,0,1,271.48,273.17Zm-17.2-1H271v-12h-16.7Z" style="fill:#263238"></path><rect x="323.98" y="259.7" width="17.7" height="12.97" style="fill:#fff"></rect><path d="M341.68,273.17H324a.5.5,0,0,1-.5-.5v-13a.5.5,0,0,1,.5-.5h17.7a.5.5,0,0,1,.5.5v13A.5.5,0,0,1,341.68,273.17Zm-17.2-1h16.7v-12h-16.7Z" style="fill:#263238"></path><path d="M315.5,380.42c0-9.57,2.07-31.65,31.46-31.65,22.25,0,29.13,31.65,29.13,31.65s1.72,13.75,5.58,19.34L384,403h5l38.24-3.77-2.43-17-13.07-38.35-95-22-193.83,1.89-22.44,5.39a37.58,37.58,0,0,0-7.62,2.71c-4.63,2.23-10.33,5.69-10.64,8.56L77.73,381.2c-.67,6.17,14.64,12,20.48,14.1l13.61,3.61a42.08,42.08,0,0,1-3.43-15.48c0-12.46,4.73-34.66,25.45-34.66,10.66,0,17.23,2.18,21.37,5.91l0,0,.32.34a17.66,17.66,0,0,1,3.46,4.66,50.38,50.38,0,0,1,7,18.63c2.58,15.47,8.17,22.78,13.32,24.5l.81.27H323.65C318.78,396.16,315.5,388.2,315.5,380.42Z" style="fill:#fff"></path><path d="M384,403.54a.49.49,0,0,1-.41-.21L381.26,400c-3.89-5.62-5.6-19-5.67-19.56-.06-.26-7-31.21-28.63-31.21-20.25,0-31,10.77-31,31.15,0,9,4.38,17.14,8.06,22.33a.49.49,0,0,1,0,.52.48.48,0,0,1-.44.27H180.1l-.17,0-.8-.28c-3-1-10.41-5.45-13.65-24.88a49.87,49.87,0,0,0-6.9-18.45,16.71,16.71,0,0,0-3.38-4.57c-.08-.08-.14-.16-.2-.21l-.13-.08c-4.31-3.89-11.19-5.78-21-5.78-24.25,0-25,30.66-25,34.16a41.38,41.38,0,0,0,3.39,15.29.49.49,0,0,1-.08.52.52.52,0,0,1-.51.15l-13.61-3.61c-14.35-5.16-21.35-10.08-20.85-14.64l4.43-40.79c.37-3.38,7-7.06,10.92-9a38.15,38.15,0,0,1,7.73-2.75l22.44-5.39h.11l193.83-1.89.11,0,95,22a.48.48,0,0,1,.36.33l13.07,38.35,2.45,17.12a.48.48,0,0,1-.1.38.55.55,0,0,1-.34.19L389,403.54Zm.26-1H389l37.67-3.72-2.35-16.51-13-38-94.69-21.95-193.72,1.89-22.38,5.37A37.93,37.93,0,0,0,93,332.3c-6.26,3-10.14,6.07-10.36,8.16l-4.44,40.79c-.24,2.27,2,7.06,20.16,13.58L111,398.17a41.57,41.57,0,0,1-3.1-14.74c0-16.22,6.8-35.16,26-35.16,10,0,17,1.94,21.56,5.91a.52.52,0,0,1,.19.11l.33.36a17.46,17.46,0,0,1,3.53,4.77,50.78,50.78,0,0,1,7,18.77c2.19,13.11,7,22.12,13,24.1l.74.25h142.5c-3.63-5.33-7.69-13.26-7.69-22.12,0-21,11.05-32.15,32-32.15,22.4,0,29.55,31.73,29.62,32.05s1.75,13.73,5.5,19.15Z" style="fill:#263238"></path><path d="M86.9,367.75v12.58h21.59a53.23,53.23,0,0,1,2.25-12.58Z" style="fill:#92E3A9"></path><path d="M108.49,380.83H86.9a.5.5,0,0,1-.5-.5V367.75a.51.51,0,0,1,.5-.5h23.84a.51.51,0,0,1,.48.65A52.66,52.66,0,0,0,109,380.36.5.5,0,0,1,108.49,380.83Zm-21.09-1H108a54.22,54.22,0,0,1,2-11.58H87.4Z" style="fill:#263238"></path><path d="M163.08,367.75A53.08,53.08,0,0,1,166,378.27c.12.71.25,1.38.38,2.06H315.5a44.18,44.18,0,0,1,1.69-12.58Z" style="fill:#92E3A9"></path><path d="M315.5,380.83H166.35a.5.5,0,0,1-.49-.41l0-.12c-.13-.64-.25-1.28-.36-1.94a52.09,52.09,0,0,0-2.87-10.43.5.5,0,0,1,.47-.68H317.19a.54.54,0,0,1,.41.2.52.52,0,0,1,.07.45A42.45,42.45,0,0,0,316,380.33.5.5,0,0,1,315.5,380.83Zm-148.74-1H315a43.25,43.25,0,0,1,1.52-11.58H163.8a52.81,52.81,0,0,1,2.66,9.94C166.56,378.75,166.66,379.29,166.76,379.83Z" style="fill:#263238"></path><path d="M410.31,367.75H371.52a63.46,63.46,0,0,1,4.55,12.58h34.24Z" style="fill:#92E3A9"></path><path d="M410.31,380.83H376.07a.49.49,0,0,1-.49-.39A63.25,63.25,0,0,0,371.07,368a.51.51,0,0,1,0-.48.49.49,0,0,1,.42-.24h38.79a.51.51,0,0,1,.5.5v12.58A.5.5,0,0,1,410.31,380.83Zm-33.85-1h33.35V368.25H372.32A65.32,65.32,0,0,1,376.46,379.83Z" style="fill:#263238"></path><polygon points="303.21 356.74 295.91 356.92 291.51 362.73 286.82 357.15 279.53 357.33 280.97 350.18 276.28 344.59 282.78 341.26 284.22 334.11 290.87 337.11 297.36 333.78 299.16 340.85 305.81 343.85 301.41 349.67 303.21 356.74" style="fill:#263238"></polygon><polygon points="300.27 354.42 294.7 354.56 291.34 359 287.76 354.73 282.19 354.87 283.29 349.41 279.71 345.14 284.67 342.6 285.77 337.14 290.85 339.43 295.81 336.89 297.18 342.29 302.26 344.58 298.9 349.02 300.27 354.42" style="fill:#92E3A9"></polygon><path d="M291.34,359.5a.49.49,0,0,1-.38-.18l-3.43-4.08-5.33.13a.52.52,0,0,1-.39-.18.5.5,0,0,1-.11-.42l1.06-5.23-3.43-4.08a.5.5,0,0,1-.11-.42.52.52,0,0,1,.26-.35l4.75-2.43,1-5.22a.5.5,0,0,1,.27-.35.5.5,0,0,1,.43,0l4.86,2.2,4.74-2.44a.56.56,0,0,1,.44,0,.51.51,0,0,1,.27.34l1.32,5.16,4.86,2.19a.5.5,0,0,1,.19.76l-3.22,4.25,1.32,5.17a.53.53,0,0,1-.09.42.49.49,0,0,1-.39.2l-5.32.13-3.22,4.25a.53.53,0,0,1-.39.2Zm-3.58-5.27a.46.46,0,0,1,.38.18l3.18,3.79,3-3.94a.49.49,0,0,1,.39-.2l4.94-.13-1.22-4.79a.53.53,0,0,1,.09-.42l3-3.94-4.5-2a.49.49,0,0,1-.28-.33l-1.22-4.79-4.4,2.26a.54.54,0,0,1-.43,0l-4.51-2-1,4.85a.5.5,0,0,1-.26.34l-4.4,2.26,3.18,3.79a.52.52,0,0,1,.1.42l-1,4.84,4.95-.12Z" style="fill:#263238"></path><path d="M168.24,363.33V332.44h10.37a9.08,9.08,0,0,1,4.58,1.05,6.48,6.48,0,0,1,2.67,3.05,12.2,12.2,0,0,1,.88,4.86,10.39,10.39,0,0,1-1.19,5.48,6.17,6.17,0,0,1-3.2,2.61,13.47,13.47,0,0,1-4.54.72h-2.74v13.12Zm6.83-17.88h2.29a3.31,3.31,0,0,0,1.9-.46,2.22,2.22,0,0,0,.86-1.37,10.71,10.71,0,0,0,.21-2.33,11.58,11.58,0,0,0-.17-2.08,2.43,2.43,0,0,0-.82-1.43,3.19,3.19,0,0,0-2-.53h-2.25Z" style="fill:#263238"></path><path d="M198.86,363.78a10.54,10.54,0,0,1-5.49-1.22,6.83,6.83,0,0,1-2.9-3.5,15.4,15.4,0,0,1-.87-5.46V342.13a15.12,15.12,0,0,1,.87-5.45,6.75,6.75,0,0,1,2.9-3.45,10.75,10.75,0,0,1,5.49-1.2,10.94,10.94,0,0,1,5.55,1.2,6.68,6.68,0,0,1,2.91,3.45,14.89,14.89,0,0,1,.88,5.45V353.6a15.17,15.17,0,0,1-.88,5.46,6.75,6.75,0,0,1-2.91,3.5A10.72,10.72,0,0,1,198.86,363.78Zm0-4.84a2.06,2.06,0,0,0,1.56-.53,2.66,2.66,0,0,0,.65-1.37,9.74,9.74,0,0,0,.15-1.72V340.45a9.52,9.52,0,0,0-.15-1.73,2.67,2.67,0,0,0-.65-1.36,2.06,2.06,0,0,0-1.56-.53,2,2,0,0,0-1.49.53,2.75,2.75,0,0,0-.65,1.36,9.52,9.52,0,0,0-.15,1.73v14.87a10.79,10.79,0,0,0,.14,1.72,2.55,2.55,0,0,0,.61,1.37A2,2,0,0,0,198.86,358.94Z" style="fill:#263238"></path><path d="M212.36,363.33V332.44h6.82v26.27h7.09v4.62Z" style="fill:#263238"></path><path d="M229,363.33V332.44h6.82v30.89Z" style="fill:#263238"></path><path d="M249.26,363.78a10.41,10.41,0,0,1-5.55-1.27,6.82,6.82,0,0,1-2.87-3.59,15.84,15.84,0,0,1-.84-5.43V342.36a16.13,16.13,0,0,1,.84-5.51,6.74,6.74,0,0,1,2.87-3.57,10.52,10.52,0,0,1,5.55-1.25,10.69,10.69,0,0,1,5.36,1.12,6.2,6.2,0,0,1,2.72,3.15,12.38,12.38,0,0,1,.8,4.65v2.67h-6.67v-3.09a16.58,16.58,0,0,0-.09-1.76,2.63,2.63,0,0,0-.56-1.39,1.91,1.91,0,0,0-1.56-.55,2,2,0,0,0-1.58.57,2.74,2.74,0,0,0-.65,1.43,11.68,11.68,0,0,0-.13,1.81v14.53a9.36,9.36,0,0,0,.17,1.89,2.56,2.56,0,0,0,.69,1.37,2,2,0,0,0,1.5.51,1.89,1.89,0,0,0,1.53-.55,2.81,2.81,0,0,0,.57-1.43,15,15,0,0,0,.11-1.79v-3.24h6.67v2.67a13.27,13.27,0,0,1-.78,4.7,6.44,6.44,0,0,1-2.7,3.28A10.24,10.24,0,0,1,249.26,363.78Z" style="fill:#263238"></path><path d="M261.88,363.33V332.44h13.88v4.66H268.7v7.66h5.38v4.73H268.7v9.22h7.13v4.62Z" style="fill:#263238"></path><polygon points="428.41 365.72 440.02 365.72 434.24 347.21 422.74 348.55 428.41 365.72" style="fill:#fff"></polygon><path d="M440,366.22H428.41a.5.5,0,0,1-.48-.35l-5.66-17.16a.5.5,0,0,1,.05-.43.54.54,0,0,1,.37-.23l11.49-1.34a.51.51,0,0,1,.54.35l5.78,18.51a.49.49,0,0,1-.07.44A.52.52,0,0,1,440,366.22Zm-11.25-1h10.57l-5.46-17.47L423.41,349Z" style="fill:#263238"></path><polygon points="544.7 365.72 550.85 365.72 543.57 345.87 537.26 345.57 544.7 365.72" style="fill:#fff"></polygon><path d="M550.85,366.22H544.7a.5.5,0,0,1-.47-.33l-7.44-20.15a.48.48,0,0,1,.07-.46.44.44,0,0,1,.42-.21l6.31.3a.5.5,0,0,1,.45.32l7.28,19.86a.46.46,0,0,1-.06.45A.48.48,0,0,1,550.85,366.22Zm-5.8-1h5.09l-6.93-18.87-5.22-.24Z" style="fill:#263238"></path><path d="M531.91,339.73V373.1h3v21.77h-2.43v5.46h5.76s5.46-5.71,5.77-30.26c.23-19.09-4.3-27.53-6.33-30.34Z" style="fill:#fff"></path><path d="M538.28,400.83h-5.76a.5.5,0,0,1-.5-.5v-5.46a.5.5,0,0,1,.5-.5h1.93V373.6h-2.54a.5.5,0,0,1-.5-.5V339.73a.5.5,0,0,1,.5-.5h5.81a.52.52,0,0,1,.41.21c2,2.78,6.66,11.35,6.42,30.64-.3,24.46-5.68,30.36-5.91,30.6A.48.48,0,0,1,538.28,400.83Zm-5.26-1h5c.8-1.06,5.23-7.9,5.5-29.76.23-18.54-4.06-26.93-6.09-29.84h-5.05V372.6H535a.5.5,0,0,1,.5.5v21.77a.51.51,0,0,1-.5.5H533Z" style="fill:#263238"></path><path d="M528.88,339.73V373.1h3v21.77h-2.42v5.46h5.76s5.46-5.71,5.76-30.26c.24-19.09-4.29-27.53-6.32-30.34Z" style="fill:#263238"></path><path d="M535.25,400.83h-5.76a.5.5,0,0,1-.5-.5v-5.46a.5.5,0,0,1,.5-.5h1.92V373.6h-2.53a.5.5,0,0,1-.5-.5V339.73a.5.5,0,0,1,.5-.5h5.81a.49.49,0,0,1,.4.21c2,2.78,6.66,11.35,6.42,30.64-.3,24.46-5.67,30.36-5.9,30.6A.48.48,0,0,1,535.25,400.83Zm-5.26-1h5c.81-1.06,5.23-7.9,5.5-29.76.23-18.54-4.06-26.93-6.08-29.84h-5V372.6h2.53a.5.5,0,0,1,.5.5v21.77a.5.5,0,0,1-.5.5H530Z" style="fill:#263238"></path><path d="M476.93,343.81h55.53a2.06,2.06,0,0,1,2.06,2.06v1a2.06,2.06,0,0,1-2.06,2.06H476.93a0,0,0,0,1,0,0v-5.16A0,0,0,0,1,476.93,343.81Z" style="fill:#fff"></path><path d="M532.46,349.47H476.93a.5.5,0,0,1-.5-.5v-5.16a.5.5,0,0,1,.5-.5h55.53a2.56,2.56,0,0,1,2.56,2.56v1A2.56,2.56,0,0,1,532.46,349.47Zm-55-1h55a1.56,1.56,0,0,0,1.56-1.56v-1a1.56,1.56,0,0,0-1.56-1.56h-55Z" style="fill:#263238"></path><path d="M476.93,366.53h55.53a2.06,2.06,0,0,1,2.06,2.06v1a2.06,2.06,0,0,1-2.06,2.06H476.93a0,0,0,0,1,0,0v-5.16A0,0,0,0,1,476.93,366.53Z" style="fill:#fff"></path><path d="M532.46,372.2H476.93a.51.51,0,0,1-.5-.5v-5.17a.51.51,0,0,1,.5-.5h55.53A2.56,2.56,0,0,1,535,368.6v1A2.56,2.56,0,0,1,532.46,372.2Zm-55-1h55a1.56,1.56,0,0,0,1.56-1.57v-1a1.56,1.56,0,0,0-1.56-1.57h-55Z" style="fill:#263238"></path><path d="M472.73,339.73V373.1h3v21.77h-2.43v5.46h5.76s5.46-5.71,5.77-30.26c.23-19.09-4.3-27.53-6.33-30.34Z" style="fill:#fff"></path><path d="M479.1,400.83h-5.76a.5.5,0,0,1-.5-.5v-5.46a.5.5,0,0,1,.5-.5h1.93V373.6h-2.54a.5.5,0,0,1-.5-.5V339.73a.5.5,0,0,1,.5-.5h5.81a.52.52,0,0,1,.41.21c2,2.78,6.66,11.35,6.42,30.64-.3,24.46-5.68,30.36-5.91,30.6A.48.48,0,0,1,479.1,400.83Zm-5.26-1h5c.8-1.06,5.23-7.9,5.5-29.76.23-18.54-4.06-26.93-6.09-29.84h-5V372.6h2.54a.5.5,0,0,1,.5.5v21.77a.51.51,0,0,1-.5.5h-1.93Z" style="fill:#263238"></path><path d="M469.7,339.73V373.1h3v21.77h-2.42v5.46h5.76s5.46-5.71,5.76-30.26c.24-19.09-4.29-27.53-6.32-30.34Z" style="fill:#263238"></path><path d="M476.07,400.83h-5.76a.5.5,0,0,1-.5-.5v-5.46a.5.5,0,0,1,.5-.5h1.92V373.6H469.7a.5.5,0,0,1-.5-.5V339.73a.5.5,0,0,1,.5-.5h5.81a.49.49,0,0,1,.4.21c2,2.78,6.66,11.35,6.42,30.64-.3,24.46-5.67,30.36-5.9,30.6A.48.48,0,0,1,476.07,400.83Zm-5.26-1h5c.81-1.06,5.23-7.9,5.5-29.76.23-18.54-4.06-26.93-6.08-29.84H470.2V372.6h2.53a.5.5,0,0,1,.5.5v21.77a.5.5,0,0,1-.5.5h-1.92Z" style="fill:#263238"></path><rect x="159.18" y="334.17" width="13.83" height="5.63" rx="2.25" style="fill:#fff"></rect><path d="M170.76,340.3h-9.33a2.75,2.75,0,0,1-2.75-2.75v-1.13a2.75,2.75,0,0,1,2.75-2.75h9.33a2.75,2.75,0,0,1,2.75,2.75v1.13A2.75,2.75,0,0,1,170.76,340.3Zm-9.33-5.63a1.75,1.75,0,0,0-1.75,1.75v1.13a1.76,1.76,0,0,0,1.75,1.75h9.33a1.76,1.76,0,0,0,1.75-1.75v-1.13a1.75,1.75,0,0,0-1.75-1.75Z" style="fill:#263238"></path><rect x="224.48" y="334.17" width="13.83" height="5.63" rx="2.25" style="fill:#fff"></rect><path d="M236.06,340.3h-9.33a2.75,2.75,0,0,1-2.75-2.75v-1.13a2.75,2.75,0,0,1,2.75-2.75h9.33a2.75,2.75,0,0,1,2.75,2.75v1.13A2.75,2.75,0,0,1,236.06,340.3Zm-9.33-5.63a1.75,1.75,0,0,0-1.75,1.75v1.13a1.76,1.76,0,0,0,1.75,1.75h9.33a1.75,1.75,0,0,0,1.75-1.75v-1.13a1.75,1.75,0,0,0-1.75-1.75Z" style="fill:#263238"></path><path d="M310.28,397.66a.5.5,0,0,1-.45-.27,31.76,31.76,0,0,1-2.27-6.44.49.49,0,0,1,.36-.6.5.5,0,0,1,.61.36,30.92,30.92,0,0,0,2.19,6.23.49.49,0,0,1-.22.67A.44.44,0,0,1,310.28,397.66Z" style="fill:#263238"></path><path d="M307.23,387.45a.51.51,0,0,1-.5-.41c-3-17.23-.67-43,.5-48.87a22.93,22.93,0,0,1,6.3-12.06.5.5,0,0,1,.66.75,22.36,22.36,0,0,0-6,11.5c-1.16,5.8-3.51,31.41-.49,48.51a.48.48,0,0,1-.41.57Z" style="fill:#263238"></path><path d="M376.35,372.05a.49.49,0,0,1-.5-.45c-.65-7.84-3.87-26.48-19.59-30.29-11.41-2.77-20.48,1.77-26.08,6.06a.5.5,0,1,1-.61-.79c5.77-4.43,15.13-9.1,26.92-6.24,16.36,4,19.69,23.12,20.36,31.17a.5.5,0,0,1-.46.54Z" style="fill:#263238"></path><path d="M323.08,354.13a.5.5,0,0,1-.4-.8,33.38,33.38,0,0,1,3.8-4.13.48.48,0,0,1,.7,0,.49.49,0,0,1,0,.7,35.63,35.63,0,0,0-3.68,4A.48.48,0,0,1,323.08,354.13Z" style="fill:#263238"></path><path d="M82.16,340.41l-1.67,15.36H86.9V340.2H82.2C82.19,340.27,82.17,340.34,82.16,340.41Z" style="fill:#fff"></path><path d="M86.9,356.27H80.49a.51.51,0,0,1-.37-.16.52.52,0,0,1-.13-.39l1.67-15.37c0-.07,0-.14,0-.21a.6.6,0,0,1,.5-.44h4.7a.5.5,0,0,1,.5.5v15.57A.5.5,0,0,1,86.9,356.27Zm-5.85-1H86.4V340.7H82.63Z" style="fill:#263238"></path></g><g id="freepik--Floor--inject-112"><path d="M692.74,423.15H59.16a.5.5,0,0,1-.5-.5.5.5,0,0,1,.5-.5H692.74a.5.5,0,0,1,.5.5A.5.5,0,0,1,692.74,423.15Z" style="fill:#263238"></path></g></svg>
