<svg xmlns="http://www.w3.org/2000/svg" xmlns:xlink="http://www.w3.org/1999/xlink" viewBox="0 0 500 500"><defs><clipPath id="freepik--clip-path--inject-20"><polygon points="196.29 310.88 204.6 312.6 207.43 315.54 211.12 316.1 212.3 319.61 211.44 321.98 208.92 323.13 202.75 322.12 202.59 321.37 205.5 319.33 203.49 315.62 197.97 314.86 195.04 312.35 196.29 310.88" style="fill:#fff"></polygon></clipPath><clipPath id="freepik--clip-path-2--inject-20"><path d="M220,320.78a.51.51,0,0,1-.31-.11l-6.29-5.14a.52.52,0,0,1-.14-.19L211,310.27l-6.84-3.71-3-1.9-1.43,3.57a.48.48,0,0,1-.28.28.53.53,0,0,1-.39,0l-3.94-1.7a.51.51,0,0,1-.3-.38l-1-6.32a.5.5,0,0,1,.28-.53l3.94-1.86a.5.5,0,0,1,.5,0l2.14,1.48.42-3.07a.49.49,0,0,1,.37-.42l5.43-1.4a.55.55,0,0,1,.22,0l13.68,2.71a.51.51,0,0,1,.26.14l2.83,2.94a.51.51,0,0,1,.12.5l-1.13,3.49,2,7.21,2.34,2.75a.5.5,0,0,1,.1.19l.82,2.79a.51.51,0,0,1-.29.6l-7.64,3.08A.41.41,0,0,1,220,320.78Zm-5.88-5.95,6,4.87,6.94-2.8-.66-2.25L224,311.9a.5.5,0,0,1-.1-.19l-2.06-7.47a.57.57,0,0,1,0-.29l1.08-3.34L220.42,298,207,295.35l-5,1.29-.48,3.55a.49.49,0,0,1-.29.39.51.51,0,0,1-.49-.05l-2.57-1.79-3.35,1.59.91,5.67,3.22,1.38,1.47-3.65a.45.45,0,0,1,.31-.29.48.48,0,0,1,.42.05l3.46,2.21,6.95,3.78a.45.45,0,0,1,.22.23Z" style="fill:#263238;clip-path:url(#freepik--clip-path-16--inject-20)"></path></clipPath><clipPath id="freepik--clip-path-3--inject-20"><polygon points="231.79 299.43 228.79 299.31 226.79 301.93 229.33 307.11 231.78 306.56 231.79 299.43" style="fill:#fff;clip-path:url(#freepik--clip-path-2--inject-20)"></polygon></clipPath><clipPath id="freepik--clip-path-4--inject-20"><path d="M229.33,307.61a.51.51,0,0,1-.45-.28l-2.54-5.18a.51.51,0,0,1,.06-.53l2-2.62a.56.56,0,0,1,.42-.2l3,.13a.5.5,0,0,1,.48.5v7.13a.5.5,0,0,1-.4.49l-2.45.55Zm-2-5.63,2.23,4.55,1.68-.37v-6.25l-2.26-.09Z" style="fill:#263238;clip-path:url(#freepik--clip-path-3--inject-20)"></path></clipPath><clipPath id="freepik--clip-path-5--inject-20"><polygon points="250.14 299.12 242.97 297.15 241.14 295.17 239.76 296.08 241.92 299.56 244.14 304.21 247.22 304.72 247.62 303.84 245.29 301.38 250.62 302.18 250.14 299.12" style="fill:#fff;clip-path:url(#freepik--clip-path-4--inject-20)"></polygon></clipPath><clipPath id="freepik--clip-path-6--inject-20"><path d="M247.22,305.22h-.08l-3.08-.5a.51.51,0,0,1-.37-.28l-2.22-4.66-2.14-3.43a.51.51,0,0,1,.15-.68l1.39-.91a.5.5,0,0,1,.64.08l1.73,1.87,7,1.94a.49.49,0,0,1,.36.4l.49,3.06a.52.52,0,0,1-.14.43.5.5,0,0,1-.43.15l-3.89-.59,1.32,1.4a.51.51,0,0,1,.1.55l-.4.88A.49.49,0,0,1,247.22,305.22Zm-2.74-1.46,2.45.4.1-.22-2.1-2.21a.5.5,0,0,1-.08-.58.49.49,0,0,1,.52-.26l4.65.7-.32-2.07-6.87-1.89a.59.59,0,0,1-.23-.14l-1.54-1.67-.62.41,1.9,3.06Z" style="fill:#263238;clip-path:url(#freepik--clip-path-5--inject-20)"></path></clipPath><clipPath id="freepik--clip-path-7--inject-20"><polygon points="210.15 379.51 209.56 380.43 215.6 380.88 218.46 383.01 222.13 382.6 222.99 380.23 218.48 380.44 210.15 379.51" style="fill:#fff;clip-path:url(#freepik--clip-path-6--inject-20)"></polygon></clipPath><clipPath id="freepik--clip-path-8--inject-20"><path d="M218.46,383.52a.57.57,0,0,1-.31-.1l-2.73-2.06-5.89-.43a.47.47,0,0,1-.41-.27.5.5,0,0,1,0-.49l.59-.93a.51.51,0,0,1,.47-.23l8.33.93,4.43-.21a.49.49,0,0,1,.43.2.52.52,0,0,1,.07.47l-.86,2.37a.5.5,0,0,1-.42.32l-3.67.42Zm-2.29-2.84,2.43,1.82,3.16-.37.5-1.37-3.76.17Z" style="fill:#263238;clip-path:url(#freepik--clip-path-7--inject-20)"></path></clipPath><clipPath id="freepik--clip-path-9--inject-20"><path d="M208.92,323.63h-.08l-6.17-1a.5.5,0,0,1-.4-.39l-.17-.75a.48.48,0,0,1,.2-.52l2.55-1.78-1.68-3.1-5.27-.72a.42.42,0,0,1-.25-.12l-2.94-2.51a.51.51,0,0,1-.05-.71l1.25-1.47a.5.5,0,0,1,.49-.16l8.3,1.72a.51.51,0,0,1,.26.14l2.71,2.82,3.53.54a.52.52,0,0,1,.4.33l1.17,3.51a.47.47,0,0,1,0,.33l-.86,2.37a.51.51,0,0,1-.26.28l-2.52,1.15A.54.54,0,0,1,208.92,323.63Zm-5.75-1.95,5.68.93,2.19-1,.73-2-1-3.05-3.39-.52a.54.54,0,0,1-.29-.15l-2.72-2.82-7.87-1.63-.74.86,2.45,2.1,5.37.73a.55.55,0,0,1,.37.26l2,3.71a.5.5,0,0,1-.15.65l-2.64,1.85Z" style="fill:#263238;clip-path:url(#freepik--clip-path--inject-20)"></path></clipPath><clipPath id="freepik--clip-path-10--inject-20"><path d="M263.24,387.53l-6.59-1.11-7.95-1-5.85,1.3-5.73.08-5.75,2.67-3.35.94-2.08.46L222.48,394,219,396.36l-5.81-2.08.15-5.58-3.5-.61-3.78.84-.94-1.57-.38-3.49L203,382.28l-2.56,1-.34,2.06-3.16.9-3.59-2.77-2.14-4.28,1.66-5.91,5.56-.84,1.8,1,2.27-.51,2.45-2.33,2.62.21,4.7,5.1,1.28-.48-1.34-4.26-1.64-2-.42-3.67,6.32-4.57-.61-7.2,2.48-3.12,1.49-4.89,1.8-.8,3.71-3.79-.14-1.56-3,.86-.9-1.38-2.08.46-3,1.47,1-2.79,6.19-3.36,1.13-2,3.57,3.56,2.08,1.33,2.47-1.35-1.68-2.2-4.59-1.95L220.71,328l-5.44-2.16-4.69.25-2.77-1.76-3.19-.09-.21.84.84,5.56,1.17,1.72-.35,6.42-4.45-2.18,0-2.77-4.39-1-2.16-1.7-.1-4.93,4.59-5.18-.62-4.61-2,.65-1.7-1.41L194,313l-1.37.1-.08,3.19-2,.84-2.41-6.4-1.72-.61-2.9-.54-2.68,2.18,4.57,2.74,1.47,3L179,313.94l-5.85-4.05-1.51-5-5.25-.42-3.23,3.29a30,30,0,0,1-2.49,2.14,33.29,33.29,0,0,1-4.37,1.76l0,3.38-4.3,1.15.84,2,7.24-.42,4.46,3.17,1.47,6.61-.78,6.31L166.9,340l-3.23,10.42,1.93,14,3.46,7.56,3.8,5.49,2.91-.25-1.61-2.81-2-1.93-1.86-3.94,1.61-.76L176,374l3.23,5.62,1.09,4.91,4.56,3.55,7.46,3.29,10.41.46,3.64,2.16,2.94,2.52,3.86,1.32,4.41.21,4.11-1.11s.23,1.93.44,2.88-1.72,4.74-1.72,4.74l-1.24,4.23,2.43,3.82,4.53.78,7.19,4.74,2.9.55.63,2.83.62,1.24A81.24,81.24,0,0,0,273,395.32l-.21-1.39,3-10.38L273,382.39Z" style="fill:#fff;clip-path:url(#freepik--clip-path-9--inject-20)"></path></clipPath><clipPath id="freepik--clip-path-11--inject-20"><path d="M237.53,423.25a.51.51,0,0,1-.45-.27l-.62-1.25a.36.36,0,0,1,0-.11l-.56-2.51-2.57-.49a.56.56,0,0,1-.18-.07L226,413.86l-4.42-.75a.51.51,0,0,1-.34-.23l-2.43-3.82a.49.49,0,0,1-.06-.41l1.24-4.23c.92-1.85,1.81-4,1.71-4.49-.14-.64-.29-1.7-.38-2.35l-3.55,1a.43.43,0,0,1-.16,0l-4.4-.21-.14,0L209.21,397a1,1,0,0,1-.17-.1l-2.93-2.52-3.47-2-10.28-.46a.58.58,0,0,1-.18,0l-7.47-3.3a.27.27,0,0,1-.1-.06l-4.55-3.54a.48.48,0,0,1-.18-.29l-1.08-4.83-3.19-5.56-3.9-5.82-.77.36,1.62,3.4,1.94,1.87a.31.31,0,0,1,.09.11L176.2,377a.48.48,0,0,1,0,.48.52.52,0,0,1-.4.27l-2.91.25a.53.53,0,0,1-.46-.21l-3.79-5.5-3.5-7.63a.34.34,0,0,1-.05-.14l-1.92-14a.55.55,0,0,1,0-.22L166.38,340l-1.72-6a.44.44,0,0,1,0-.2l.76-6.23-1.4-6.33-4.17-3-7.06.41a.48.48,0,0,1-.49-.3l-.84-2a.49.49,0,0,1,0-.41.47.47,0,0,1,.32-.26l3.94-1.06,0-3a.52.52,0,0,1,.34-.47,29.47,29.47,0,0,0,4.24-1.7,30.14,30.14,0,0,0,2.44-2.08l3.22-3.28a.47.47,0,0,1,.39-.15l5.25.42a.49.49,0,0,1,.44.35l1.45,4.85,5.71,3.95,6.6,3-.81-1.66-4.44-2.67a.52.52,0,0,1-.24-.4.49.49,0,0,1,.18-.42l2.69-2.18a.49.49,0,0,1,.4-.11l2.9.55,1.79.63a.48.48,0,0,1,.3.29l2.23,5.92,1.22-.52.07-2.86a.51.51,0,0,1,.47-.49l1.36-.1a.48.48,0,0,1,.49.29l1.15,2.6,1.4,1.16,1.77-.57a.56.56,0,0,1,.42.05.49.49,0,0,1,.23.36L200,321a.48.48,0,0,1-.12.4l-4.47,5,.1,4.49,1.89,1.49,4.27,1a.49.49,0,0,1,.39.48l0,2.46,3.49,1.72.3-5.5L204.83,331a.49.49,0,0,1-.08-.21l-.83-5.55a.67.67,0,0,1,0-.2l.21-.84a.54.54,0,0,1,.5-.38l3.19.09a.5.5,0,0,1,.26.08l2.63,1.67,4.54-.24a.51.51,0,0,1,.21,0l5.43,2.16.11.06,5.62,4.06,4.54,1.93a.53.53,0,0,1,.2.16L233,336a.51.51,0,0,1,.09.41.49.49,0,0,1-.25.33l-2.48,1.35a.5.5,0,0,1-.5,0l-2.08-1.32-.08-.07-3.1-3.1-.81,1.46a.52.52,0,0,1-.2.19l-6,3.26L217.1,340l2-.95.11,0,2.08-.46a.49.49,0,0,1,.52.22l.7,1.07,2.63-.76a.53.53,0,0,1,.42.07.49.49,0,0,1,.21.37l.15,1.55a.53.53,0,0,1-.14.4L222,345.21a.57.57,0,0,1-.16.11l-1.59.7-1.43,4.67a.38.38,0,0,1-.08.17l-2.35,3,.59,7a.52.52,0,0,1-.21.45l-6.08,4.4.37,3.24,1.55,1.9a.42.42,0,0,1,.09.16l1.34,4.26a.51.51,0,0,1-.3.62l-1.28.48a.51.51,0,0,1-.55-.13l-4.56-4.95-2.21-.18-2.29,2.17a.47.47,0,0,1-.24.13l-2.26.5a.48.48,0,0,1-.35-.05l-1.65-.9-5.08.76-1.52,5.42,2,4,3.29,2.54,2.62-.74.29-1.75a.5.5,0,0,1,.31-.38l2.56-1a.52.52,0,0,1,.52.1l1.74,1.59a.58.58,0,0,1,.16.32l.36,3.37.7,1.17,3.43-.76a.61.61,0,0,1,.19,0l3.5.61a.5.5,0,0,1,.42.5l-.14,5.22L219,395.8l3.23-2.21,3.41-3.1a.48.48,0,0,1,.22-.12l2.08-.46,3.33-.94,5.67-2.63a.5.5,0,0,1,.21,0l5.67-.08,5.8-1.29h.17l7.95,1,6.44,1.09,9.61-5.06a.51.51,0,0,1,.42,0l2.83,1.15a.51.51,0,0,1,.29.61l-3,10.27.19,1.29a.49.49,0,0,1-.09.37,81.74,81.74,0,0,1-35.68,27.6Zm-.15-1.91.39.78a80.71,80.71,0,0,0,34.69-26.93l-.17-1.19a.38.38,0,0,1,0-.21l2.92-10-2.2-.9-9.55,5a.45.45,0,0,1-.32,0l-6.58-1.11-7.85-1L243,387.2h-.1l-5.62.08-5.66,2.62-3.43,1-2,.44-3.36,3.06-3.5,2.39a.51.51,0,0,1-.45.06l-5.81-2.08a.51.51,0,0,1-.33-.49l.14-5.14-3-.52-3.68.82a.52.52,0,0,1-.54-.23l-.94-1.58a.48.48,0,0,1-.07-.2l-.36-3.3-1.37-1.25-2,.75-.29,1.77a.49.49,0,0,1-.36.4l-3.17.9a.5.5,0,0,1-.44-.08l-3.59-2.77a.75.75,0,0,1-.14-.17l-2.14-4.28a.56.56,0,0,1,0-.36l1.66-5.92a.49.49,0,0,1,.4-.36l5.56-.83a.51.51,0,0,1,.32,0l1.64.9,1.94-.44,2.36-2.23a.48.48,0,0,1,.38-.13l2.62.21a.46.46,0,0,1,.33.16l4.47,4.85.52-.2-1.17-3.72-1.58-1.94a.46.46,0,0,1-.1-.26l-.42-3.67a.49.49,0,0,1,.2-.46l6.09-4.4-.59-6.92a.51.51,0,0,1,.11-.35l2.41-3.05,1.47-4.8a.49.49,0,0,1,.27-.31l1.72-.76,3.48-3.56-.06-.72-2.4.69a.5.5,0,0,1-.56-.2l-.71-1.1-1.69.38-3,1.44a.5.5,0,0,1-.55-.08.48.48,0,0,1-.14-.54l1-2.79a.51.51,0,0,1,.23-.27L223,334.4l1.07-1.9a.48.48,0,0,1,.37-.26.51.51,0,0,1,.42.14l3.52,3.53,1.79,1.14,1.7-.93-1.24-1.63-4.48-1.9-.09,0-5.62-4.06-5.27-2.1-4.59.25a.43.43,0,0,1-.29-.08l-2.65-1.69-2.65-.07-.09.36.81,5.34,1.11,1.63a.48.48,0,0,1,.08.31l-.36,6.42a.5.5,0,0,1-.24.4.51.51,0,0,1-.48,0l-4.44-2.18a.51.51,0,0,1-.28-.45l0-2.37-4-.92a.44.44,0,0,1-.19-.1l-2.16-1.7a.51.51,0,0,1-.2-.38l-.1-4.93a.5.5,0,0,1,.13-.34l4.44-5-.52-3.8-1.47.47a.47.47,0,0,1-.47-.09l-1.7-1.4a.55.55,0,0,1-.14-.19l-1.05-2.38-.56,0-.07,2.74a.52.52,0,0,1-.31.45l-2,.84a.53.53,0,0,1-.39,0,.51.51,0,0,1-.27-.29l-2.33-6.18-1.5-.53-2.59-.48-2,1.58,4,2.39a.48.48,0,0,1,.19.21l1.47,3a.51.51,0,0,1-.1.57.49.49,0,0,1-.56.1l-7.93-3.59-5.93-4.09a.48.48,0,0,1-.19-.27l-1.41-4.68-4.67-.38-3.07,3.13a29.15,29.15,0,0,1-2.57,2.2,26.53,26.53,0,0,1-4.15,1.71l0,3a.49.49,0,0,1-.37.48l-3.75,1,.48,1.14,6.89-.4a.49.49,0,0,1,.31.09l4.47,3.17a.52.52,0,0,1,.2.3l1.47,6.61a1,1,0,0,1,0,.17l-.77,6.21,1.73,6.05a.48.48,0,0,1,0,.29l-3.2,10.31,1.91,13.85,3.42,7.49L173.1,377l1.85-.16-1.19-2.07-2-1.88a.42.42,0,0,1-.11-.15l-1.87-3.94a.5.5,0,0,1,0-.38.48.48,0,0,1,.25-.29l1.62-.75a.51.51,0,0,1,.63.17l4.15,6.21,3.25,5.65a.78.78,0,0,1,0,.14l1.05,4.74,4.36,3.39,7.33,3.24,10.31.45a.62.62,0,0,1,.23.07l3.65,2.16,2.93,2.51,3.7,1.27,4.26.2,4-1.09a.5.5,0,0,1,.41.07.47.47,0,0,1,.21.35s.23,1.92.43,2.83-1.29,4.15-1.76,5.07l-1.14,3.94,2.19,3.44,4.32.74a.49.49,0,0,1,.19.07l7.11,4.69,2.79.52a.52.52,0,0,1,.4.39Z" style="fill:#263238;clip-path:url(#freepik--clip-path-10--inject-20)"></path></clipPath><clipPath id="freepik--clip-path-12--inject-20"><path d="M266.31,308.6l-2.87-3.12-3.57-3.57-2-5.5,3.52-.18-.23-1.93-2.49.35,1.86-1.4,2-1.83-.42-1.89L259.14,287l-1.39-4a81.52,81.52,0,0,0-98.37-1.89l5,2.12-1.89,4-3.42,1.55.75,5.18-1.38.9-1.43,2.5.94,3.35,3.3-.33-.61,3.5,3.21-.71,3.92-8.2-.1-3.15,5.2-1.55.82-2.56,5.35-1.78-.15-3.34,3.92-1.07a19.9,19.9,0,0,1,3.07-2.26,23.11,23.11,0,0,1,3.42.23l3.33,1.64,4-.88,2.94-2.83,4.43-.59a4.78,4.78,0,0,0,2.24.29,16.91,16.91,0,0,0,3.48-2.16l6.23,2.18,2.65,1.2.62,2.83,2.92-.25.57-1.91,2.7.59.15,1.55L220.23,284l4.13,3.44,7.64,2.27,3.67,3.14,4.23-.54.53-2.1,1.43-.71-5.75-2.69-3.11.3,2.29-1.3-3-2.71,3.17-.9,4.66,1.34,2,4.32,2.62,2,2.91,5.09,4.83,2.1,1.38,6.23,5,1.87.27,2.12,0,2.58,1.89,3.14.75,1.62,3.34-.15.8-3.54Z" style="fill:#fff;clip-path:url(#freepik--clip-path-11--inject-20)"></path></clipPath><clipPath id="freepik--clip-path-13--inject-20"><path d="M261.69,315.08a.49.49,0,0,1-.45-.29l-.75-1.61-1.87-3.11a.53.53,0,0,1-.07-.26l0-2.58-.23-1.75-4.68-1.76a.51.51,0,0,1-.32-.36l-1.33-6-4.59-2a.43.43,0,0,1-.23-.21l-2.87-5-2.54-1.93a.7.7,0,0,1-.15-.19l-1.85-4.11-4.3-1.24-2.17.61,2.32,2.11a.47.47,0,0,1,.16.42.51.51,0,0,1-.25.38l-.26.15.78-.07a.46.46,0,0,1,.26,0l5.75,2.69a.51.51,0,0,1,.29.44.53.53,0,0,1-.28.46l-1.22.61-.47,1.87a.51.51,0,0,1-.42.38l-4.24.54a.47.47,0,0,1-.39-.12l-3.59-3.07-7.53-2.24a.54.54,0,0,1-.18-.1l-4.13-3.44a.5.5,0,0,1-.18-.43.49.49,0,0,1,.27-.39l5-2.62-.08-.85-1.9-.41-.43,1.46a.5.5,0,0,1-.44.36l-2.91.25a.49.49,0,0,1-.53-.39l-.58-2.59-2.41-1.09-5.94-2.08a14.64,14.64,0,0,1-3.46,2.09,5,5,0,0,1-2.41-.27l-4.14.55L197,280.66a.62.62,0,0,1-.24.13l-4,.88a.53.53,0,0,1-.33,0l-3.26-1.6a19.1,19.1,0,0,0-3.17-.23,19.44,19.44,0,0,0-2.84,2.15.49.49,0,0,1-.2.11l-3.53,1,.13,2.94a.5.5,0,0,1-.34.49l-5.11,1.71-.74,2.31a.51.51,0,0,1-.34.33l-4.83,1.44.09,2.76a.46.46,0,0,1-.05.23l-3.92,8.2a.53.53,0,0,1-.34.28l-3.21.71a.51.51,0,0,1-.46-.13.49.49,0,0,1-.14-.45l.49-2.85-2.63.27a.51.51,0,0,1-.54-.36l-.94-3.36a.46.46,0,0,1,.05-.38l1.42-2.5a.55.55,0,0,1,.17-.17l1.11-.73-.71-4.86a.51.51,0,0,1,.29-.53l3.25-1.47,1.59-3.35-4.56-1.91a.51.51,0,0,1-.1-.87,82.05,82.05,0,0,1,99,1.9.55.55,0,0,1,.17.23l1.34,3.83,2.83,2.43a.47.47,0,0,1,.16.27l.42,1.88a.5.5,0,0,1-.15.48l-2.32,2.09.57-.08a.5.5,0,0,1,.57.44l.23,1.93a.53.53,0,0,1-.11.38.49.49,0,0,1-.36.17l-2.85.16,1.74,4.75,3.49,3.49,2.89,3.14a.52.52,0,0,1,.12.45l-1.28,5.83a.5.5,0,0,1-.47.39l-3.33.15Zm-2.14-5.4,1.82,3,.64,1.36,2.62-.12,1.14-5.2-2.7-2.93-3.55-3.56a.57.57,0,0,1-.12-.18l-2-5.49a.49.49,0,0,1,.44-.67l3-.17-.1-.89-2,.29a.52.52,0,0,1-.54-.31.5.5,0,0,1,.17-.59l1.86-1.4,1.73-1.6-.33-1.44-2.81-2.41a.55.55,0,0,1-.14-.22l-1.34-3.82a81,81,0,0,0-96.94-2.3l4.22,1.77a.49.49,0,0,1,.27.28.48.48,0,0,1,0,.39l-1.89,4a.49.49,0,0,1-.25.24l-3.07,1.4.7,4.81a.51.51,0,0,1-.22.49l-1.29.83-1.26,2.21.77,2.75,2.88-.29a.45.45,0,0,1,.41.16.47.47,0,0,1,.13.42l-.48,2.77,2.24-.5,3.77-7.87-.1-3a.51.51,0,0,1,.35-.5l4.95-1.47.74-2.31a.51.51,0,0,1,.32-.32l5-1.67-.13-2.95a.5.5,0,0,1,.37-.51l3.81-1a15.66,15.66,0,0,1,3.2-2.3,21.16,21.16,0,0,1,3.59.22l.16,0,3.17,1.56,3.66-.81,2.83-2.74a.51.51,0,0,1,.29-.13l4.42-.59a.54.54,0,0,1,.25,0,4,4,0,0,0,1.95.27,15.56,15.56,0,0,0,3.29-2.06.47.47,0,0,1,.47-.08l6.23,2.18,2.68,1.22a.46.46,0,0,1,.28.34l.54,2.41,2.14-.19.47-1.58a.5.5,0,0,1,.58-.35l2.71.59a.51.51,0,0,1,.39.44l.15,1.56a.51.51,0,0,1-.27.49l-4.66,2.42L224.6,287l7.54,2.24a.4.4,0,0,1,.18.1l3.5,3,3.68-.47.44-1.77a.55.55,0,0,1,.27-.33l.5-.25L236,287.29l-3,.28a.5.5,0,0,1-.29-.93l1.68-1L232,283.44a.47.47,0,0,1-.15-.48.49.49,0,0,1,.35-.37l3.16-.9a.45.45,0,0,1,.28,0l4.66,1.34a.48.48,0,0,1,.31.28l1.9,4.2,2.52,1.92a.47.47,0,0,1,.13.15l2.83,4.95,4.68,2a.56.56,0,0,1,.29.35l1.32,6,4.72,1.77a.52.52,0,0,1,.32.41l.27,2.11Z" style="fill:#263238;clip-path:url(#freepik--clip-path-12--inject-20)"></path></clipPath><clipPath id="freepik--clip-path-14--inject-20"><path d="M264.54,289l.24,1.08-.27,3.23,1.15,2.52,2.25.29.79,3.59-2.47-.44,1.7,10.32-1.35,4.66,2.69,4.95,3,1.72,2.27,10.19,4.21,7.39,4,5.45,4.59.17.67-4.11.51-.62a83.53,83.53,0,0,0-1.58-10A81.16,81.16,0,0,0,264.54,289Z" style="fill:#fff;clip-path:url(#freepik--clip-path-13--inject-20)"></path></clipPath><clipPath id="freepik--clip-path-15--inject-20"><path d="M287.28,344.66h0l-4.59-.17a.5.5,0,0,1-.39-.21l-4-5.45-4.25-7.43a.58.58,0,0,1-.05-.14l-2.22-10L269,319.67a.44.44,0,0,1-.18-.2l-2.69-5a.53.53,0,0,1,0-.37l1.31-4.55-1.68-10.21a.52.52,0,0,1,.15-.44.5.5,0,0,1,.44-.13l1.73.31-.56-2.52-1.89-.24a.51.51,0,0,1-.39-.29l-1.16-2.52a.53.53,0,0,1,0-.25l.27-3.15-.23-1a.5.5,0,0,1,.84-.47A82.26,82.26,0,0,1,289,339.38a.56.56,0,0,1-.11.37l-.43.51-.65,4A.5.5,0,0,1,287.28,344.66ZM283,343.5l3.91.14.6-3.67a.44.44,0,0,1,.11-.24l.37-.46a82.57,82.57,0,0,0-1.55-9.76,80.76,80.76,0,0,0-21.14-39.05l-.23,2.8,1,2.15,2,.26a.49.49,0,0,1,.42.39l.8,3.58a.49.49,0,0,1-.13.46.48.48,0,0,1-.44.14l-1.78-.31,1.58,9.62a.55.55,0,0,1,0,.22l-1.29,4.46,2.52,4.65,2.83,1.64a.48.48,0,0,1,.24.33L275,331l4.18,7.32Z" style="fill:#263238;clip-path:url(#freepik--clip-path-14--inject-20)"></path></clipPath><clipPath id="freepik--clip-path-16--inject-20"><polygon points="220.67 297.54 206.99 294.83 201.56 296.24 201.04 300.12 198.23 298.17 194.28 300.03 195.29 306.35 199.23 308.05 200.89 303.92 204.35 306.12 211.33 309.92 213.68 315.14 219.97 320.28 227.61 317.2 226.79 314.41 224.38 311.57 222.33 304.11 223.5 300.48 220.67 297.54" style="fill:#fff;clip-path:url(#freepik--clip-path-15--inject-20)"></polygon></clipPath></defs><g id="freepik--background-simple--inject-20"><path d="M386.46,121.47a209.09,209.09,0,0,0-10.86-19C329.49,32.17,206-6.11,144.8,66.57c-14.58,17.33-19.67,38.26-29.48,58.13-22.33,45.18-64,72.19-90.2,114-20.28,32.44-17.57,74-6.26,109.07,12.29,38.1,33.92,64.71,68.52,84.93,38.78,22.68,80.27,16.38,122.19,8.49,18.86-3.54,38.3-7.17,57.58-5.81,24.14,1.69,48,8.53,71.91,11.85,24.91,3.45,50.75,4.27,74.74-3.26,76.83-24.1,95-137,63.44-201.73-11.19-22.9-30.14-40.57-47.74-58.49C410.5,164.43,398.85,145.49,386.46,121.47Z" style="fill:#4E9462"></path><path d="M386.46,121.47a209.09,209.09,0,0,0-10.86-19C329.49,32.17,206-6.11,144.8,66.57c-14.58,17.33-19.67,38.26-29.48,58.13-22.33,45.18-64,72.19-90.2,114-20.28,32.44-17.57,74-6.26,109.07,12.29,38.1,33.92,64.71,68.52,84.93,38.78,22.68,80.27,16.38,122.19,8.49,18.86-3.54,38.3-7.17,57.58-5.81,24.14,1.69,48,8.53,71.91,11.85,24.91,3.45,50.75,4.27,74.74-3.26,76.83-24.1,95-137,63.44-201.73-11.19-22.9-30.14-40.57-47.74-58.49C410.5,164.43,398.85,145.49,386.46,121.47Z" style="fill:#fff;opacity:0.8"></path></g><g id="freepik--Plants--inject-20"><path d="M34.12,231.41c4.07.13,12.46-3.43,12.47-3.43s-4-4.83-4.33-5.1c-3.4-3.15-11.84-7.23-16.37-4.68a6.15,6.15,0,0,0-1.73,9C26.27,230.19,30.65,231.3,34.12,231.41Z" style="fill:#4E9462"></path><path d="M46.82,254.79c3.8-.91,10.49-6.11,11-6.53a109.53,109.53,0,0,0,9.64,10.87c2,2,4.07,3.94,6.18,5.86-1.09-.73-2.07-1.38-2.22-1.46-4.12-2.14-13.34-3.84-17-.19a6.16,6.16,0,0,0,.7,9.13c2.83,2.33,7.35,2.24,10.72,1.44s9.22-5.14,10.73-6.3L79,269.8c3.93,3.49,7.86,6.95,11.62,10.47,1.32,1.24,2.58,2.51,3.84,3.77-1-.65-1.79-1.19-1.93-1.26-4.11-2.14-13.33-3.85-17-.19a6.15,6.15,0,0,0,.7,9.12c2.83,2.34,7.35,2.25,10.72,1.44s8.65-4.72,10.46-6.09c1.25,1.33,2.51,2.67,3.66,4,.77.94,1.58,1.79,2.3,2.78l2.17,2.86c1.32,1.86,2.69,3.78,3.93,5.63.87,1.28,1.67,2.52,2.49,3.76-1.3-1.24-3.91-3.63-4.15-3.81-3.74-2.74-12.59-5.82-16.8-2.76a6.14,6.14,0,0,0-.69,9.12c2.45,2.74,6.93,3.33,10.38,3.05,3.8-.31,10.93-4.25,11.82-4.75,1.34,2.07,2.63,4.09,3.81,6,1.07,1.73,2.06,3.37,3,4.94l3-1.2c-1-1.71-2.18-3.5-3.41-5.38-1.35-2.1-2.84-4.32-4.39-6.59a64.66,64.66,0,0,0,5.36-5.73c3.54,1.69,11.12,2.3,12.1,2.38,0,2.46-.06,4.85-.14,7.11,0,1.56-.1,3.05-.17,4.49l3.2-1.28c0-1,0-2.06,0-3.15,0-2.5,0-5.17,0-7.91,1-.17,9-1.62,12.16-3.78,2.86-2,6-5.25,6.13-8.92a6.15,6.15,0,0,0-6.3-6.64c-5.19.28-10.1,8.26-11.28,12.75-.07.27-.51,3.22-.75,5.09,0-1.12,0-2.21-.07-3.36-.06-2.28-.2-4.56-.33-7-.1-1.18-.21-2.38-.31-3.58s-.32-2.45-.47-3.69c-.42-2.86-1-5.74-1.62-8.62,2-.06,9.09-.38,12.23-1.89s6.68-4.29,7.4-7.88a6.14,6.14,0,0,0-5.22-7.52c-5.17-.51-11.24,6.64-13.08,10.89-.12.27-1.1,3.47-1.6,5.24-.39-1.73-.78-3.46-1.23-5.2-1.31-5-2.8-10.07-4.26-15.11-.44-1.54-.87-3.08-1.3-4.63.71,0,9.14-.2,12.66-1.89,3.12-1.51,6.68-4.29,7.4-7.89a6.15,6.15,0,0,0-5.22-7.52c-5.17-.5-11.24,6.64-13.08,10.9-.14.32-1.54,4.93-1.84,6.12-1-3.4-1.88-6.79-2.65-10.18A107.18,107.18,0,0,1,120,222.48c.33,0,9.14-.17,12.73-1.9,3.13-1.51,6.69-4.29,7.41-7.89a6.15,6.15,0,0,0-5.22-7.52c-5.17-.5-11.24,6.64-13.08,10.9-.15.33-1.66,5.3-1.87,6.22,0-.27-.08-.55-.1-.82a79.07,79.07,0,0,1,.25-14.08c.24-2.58.62-5,1-7.43,1.64.14,9.16.69,12.57-.51s7.11-3.53,8.22-7a6.15,6.15,0,0,0-4.36-8.05c-5.08-1.07-11.9,5.36-14.2,9.39-.12.22-1.15,2.59-1.87,4.33.2-1.08.4-2.19.61-3.21.81-3.85,1.79-7.32,2.68-10.39.52-1.74,1-3.3,1.51-4.76,1.69-.7,8.44-3.63,10.86-6.22s4.69-6.41,4.07-10a6.16,6.16,0,0,0-7.58-5.13c-5,1.4-8.09,10.25-8.28,14.88,0,.4.46,6.7.54,6.66l.11,0c-.5,1.4-1,2.89-1.55,4.54-1,3.06-2,6.52-2.91,10.36a107.76,107.76,0,0,0-2.3,12.54,80.12,80.12,0,0,0-.56,14.25,1.11,1.11,0,0,0,0,.17c-.54-1.43-2.18-5.36-2.34-5.65-2.26-4-9-10.56-14.1-9.55a6.15,6.15,0,0,0-4.45,8c1.08,3.51,4.89,5.93,8.15,7.11,3.67,1.35,12.12.69,12.79.64a108.92,108.92,0,0,0,2,14.38c.57,2.77,1.23,5.54,1.92,8.3-.5-1.21-1-2.3-1-2.44-2.25-4.06-9-10.56-14.09-9.55a6.15,6.15,0,0,0-4.45,8c1.07,3.5,4.89,5.92,8.14,7.11s10.52.8,12.43.66c.28,1.06.54,2.12.83,3.18,1.35,5.08,2.72,10.14,3.91,15.14.42,1.76.77,3.51,1.12,5.26-.45-1.07-.83-2-.91-2.11-2.25-4.06-9-10.57-14.09-9.55a6.14,6.14,0,0,0-4.45,8c1.07,3.5,4.89,5.92,8.14,7.11s9.82.83,12.09.68c.31,1.81.62,3.62.84,5.38.12,1.21.33,2.36.38,3.58s.16,2.4.24,3.58c.07,2.28.15,4.64.17,6.86,0,1.55,0,3,0,4.52-.4-1.76-1.25-5.19-1.36-5.47a23.84,23.84,0,0,0-7.27-9.61,7.25,7.25,0,0,0-.58-1.23,6.15,6.15,0,0,0-8.92-2.06c-4.17,3.1-3.86,12.46-2.37,16.86.09.26,1.36,3,2.19,4.66-.64-.93-1.25-1.83-1.92-2.77-1.31-1.87-2.68-3.69-4.14-5.66-.73-.93-1.48-1.87-2.23-2.81s-1.62-1.87-2.43-2.82c-1.93-2.15-4-4.24-6.1-6.3,1.63-1.15,7.37-5.33,9.15-8.32s3.21-7.26,1.83-10.66a6.15,6.15,0,0,0-8.5-3.39c-4.59,2.43-5.71,11.74-4.9,16.3,0,.29,1,3.5,1.55,5.26-1.28-1.23-2.56-2.46-3.9-3.66-3.86-3.47-7.88-6.86-11.88-10.26l-3.64-3.13c.58-.41,7.51-5.22,9.51-8.57,1.77-3,3.21-7.26,1.83-10.66a6.16,6.16,0,0,0-8.5-3.4c-4.6,2.44-5.72,11.74-4.91,16.31.06.35,1.44,5,1.84,6.12-2.67-2.3-5.31-4.63-7.82-7A107.92,107.92,0,0,1,59,247.77c.27-.19,7.53-5.18,9.57-8.61,1.78-3,3.21-7.26,1.83-10.66a6.15,6.15,0,0,0-8.5-3.39c-4.59,2.43-5.72,11.73-4.91,16.3.07.36,1.55,5.33,1.88,6.21-.17-.21-.37-.41-.54-.62a80.06,80.06,0,0,1-7.56-11.88c-1.22-2.29-2.26-4.54-3.23-6.76,1.45-.8,8-4.48,10.21-7.37s4-6.87,3-10.39a6.14,6.14,0,0,0-8.07-4.31c-4.84,1.91-7,11-6.67,15.67,0,.25.47,2.79.82,4.64-.42-1-.87-2-1.25-3-1.45-3.65-2.55-7.08-3.5-10.13-.52-1.74-1-3.33-1.36-4.81,1-1.52,5-7.68,5.62-11.18s.37-7.93-2.14-10.61a6.16,6.16,0,0,0-9.15-.1c-3.41,3.93-1.1,13,1.31,17,.2.34,4.07,5.34,4.12,5.26l.06-.09c.36,1.43.75,3,1.22,4.64.88,3.08,1.91,6.54,3.29,10.24a107.9,107.9,0,0,0,5,11.73,80.33,80.33,0,0,0,7.4,12.19l.11.13c-1.24-.89-4.78-3.26-5.07-3.42-4.12-2.13-13.33-3.84-17-.18a6.14,6.14,0,0,0,.7,9.12C38.93,255.68,43.45,255.59,46.82,254.79Z" style="fill:#4E9462"></path><path d="M120.57,199.14c.1,0-.7-6.24-.79-6.63-1.11-4.51-5.89-12.57-11.08-12.94a6.15,6.15,0,0,0-6.4,6.54c.11,3.67,3.15,7,6,9C111.59,197.48,120.57,199.14,120.57,199.14Z" style="fill:#4E9462"></path><path d="M467.24,254.27c-4-.68-11.53-5.84-11.54-5.85s4.91-3.92,5.25-4.13c4-2.41,13.05-4.73,17-1.33a6.16,6.16,0,0,1-.09,9.16C475.17,254.63,470.66,254.85,467.24,254.27Z" style="fill:#4E9462"></path><path d="M450.14,274.66c-3.54-1.65-9.06-8.08-9.5-8.59A108.61,108.61,0,0,1,429,274.8c-2.35,1.56-4.78,3.05-7.22,4.52,1.21-.5,2.31-.95,2.47-1,4.46-1.28,13.83-1.12,16.72,3.2a6.15,6.15,0,0,1-2.5,8.8c-3.24,1.73-7.65.74-10.8-.72s-8-6.87-9.26-8.31c-.94.55-1.88,1.12-2.83,1.67-4.54,2.64-9.08,5.25-13.46,7.95-1.54.95-3,1.94-4.52,2.93,1.08-.45,2-.82,2.14-.86,4.47-1.27,13.84-1.11,16.73,3.2A6.16,6.16,0,0,1,414,305c-3.24,1.72-7.65.74-10.8-.72s-7.53-6.35-9-8.06c-1.5,1.06-3,2.12-4.4,3.21-.94.77-1.89,1.44-2.79,2.26l-2.7,2.37c-1.66,1.57-3.39,3.17-5,4.74-1.11,1.09-2.15,2.14-3.19,3.2,1.52-1,4.55-2.79,4.82-2.92,4.21-1.93,13.5-3.2,17,.63a6.15,6.15,0,0,1-1.14,9.08c-2.94,2.2-7.44,1.89-10.77.93-3.67-1.07-9.87-6.34-10.64-7-1.73,1.76-3.39,3.48-4.93,5.14-1.39,1.47-2.68,2.89-3.91,4.24l-2.73-1.78c1.38-1.46,2.84-3,4.41-4.59,1.75-1.79,3.65-3.67,5.62-5.58a68.64,68.64,0,0,1-4.12-6.69c-3.8,1-11.35.05-12.32-.08-.47,2.42-.91,4.78-1.28,7-.27,1.53-.51,3-.73,4.43l-2.88-1.89c.18-1,.37-2,.58-3.1.46-2.45,1-5.07,1.61-7.75-.93-.36-8.52-3.38-11.18-6.12-2.41-2.49-4.79-6.33-4.22-10a6.14,6.14,0,0,1,7.49-5.25c5,1.31,8.26,10.1,8.52,14.74,0,.27-.15,3.25-.28,5.14.24-1.1.47-2.16.74-3.29.51-2.22,1.09-4.42,1.71-6.8.33-1.13.68-2.28,1-3.44s.8-2.34,1.19-3.52c1-2.72,2.11-5.43,3.3-8.13-1.94-.46-8.83-2.17-11.61-4.28s-5.69-5.53-5.68-9.2a6.14,6.14,0,0,1,6.61-6.33c5.17.53,9.69,8.74,10.65,13.28.06.28.39,3.62.53,5.45.73-1.62,1.45-3.24,2.24-4.85,2.29-4.66,4.74-9.31,7.17-14,.75-1.42,1.48-2.85,2.21-4.28-.7-.15-8.93-2-12-4.37-2.76-2.1-5.7-5.54-5.69-9.2a6.14,6.14,0,0,1,6.61-6.33c5.17.53,9.69,8.74,10.65,13.28.08.34.54,5.14.59,6.36,1.61-3.14,3.19-6.28,4.62-9.45a109.32,109.32,0,0,0,5-13.12c-.32-.07-8.92-2-12.1-4.39-2.76-2.1-5.7-5.54-5.69-9.2a6.14,6.14,0,0,1,6.61-6.33c5.17.53,9.69,8.74,10.66,13.28.07.35.56,5.52.58,6.46.08-.26.19-.52.27-.78a78.67,78.67,0,0,0,2.55-13.85c.28-2.58.4-5.06.46-7.48-1.63-.19-9.11-1.15-12.21-3s-6.27-4.87-6.67-8.52a6.14,6.14,0,0,1,5.88-7c5.19,0,10.59,7.62,12,12,.08.24.61,2.76,1,4.61,0-1.1.05-2.22,0-3.27,0-3.93-.3-7.53-.56-10.71-.17-1.81-.35-3.44-.54-5-1.51-1-7.54-5.23-9.4-8.26s-3.32-7.21-2-10.63a6.15,6.15,0,0,1,8.45-3.52c4.62,2.36,5.89,11.65,5.15,16.23-.07.39-1.78,6.47-1.86,6.42l-.09-.06c.21,1.46.42,3,.61,4.76.34,3.18.68,6.78.8,10.73a110.64,110.64,0,0,1-.24,12.74,80.29,80.29,0,0,1-2.29,14.07c0,.06,0,.11-.05.17.81-1.29,3.2-4.82,3.41-5.07,3-3.52,10.92-8.56,15.72-6.56a6.16,6.16,0,0,1,2.77,8.73c-1.75,3.22-6,4.83-9.4,5.35-3.87.58-12-1.74-12.67-1.92a108.62,108.62,0,0,1-4.86,13.68c-1.11,2.6-2.31,5.18-3.54,7.76.74-1.09,1.41-2.06,1.52-2.19,3-3.52,10.92-8.56,15.71-6.55a6.15,6.15,0,0,1,2.77,8.72c-1.75,3.22-6,4.83-9.4,5.35s-10.47-1.31-12.31-1.82c-.48,1-.95,2-1.44,2.95-2.33,4.7-4.68,9.39-6.84,14.06-.77,1.64-1.46,3.29-2.15,4.93.65-1,1.21-1.78,1.31-1.89,3-3.53,10.92-8.56,15.71-6.56a6.15,6.15,0,0,1,2.77,8.73c-1.75,3.22-6,4.83-9.4,5.35s-9.78-1.14-12-1.73c-.67,1.7-1.33,3.41-1.9,5.09-.36,1.16-.79,2.25-1.08,3.44s-.64,2.32-.95,3.46c-.52,2.22-1.07,4.51-1.53,6.69-.33,1.52-.61,3-.9,4.43.74-1.65,2.26-4.84,2.42-5.09a23.83,23.83,0,0,1,9-8,7.23,7.23,0,0,1,.82-1.09A6.15,6.15,0,0,1,379,288c3.47,3.87,1.31,13-1,17-.14.24-1.92,2.64-3.07,4.13.81-.77,1.59-1.53,2.43-2.32,1.66-1.57,3.36-3.09,5.18-4.73l2.75-2.31c.9-.79,1.95-1.51,2.94-2.27,2.31-1.73,4.75-3.37,7.23-5-1.37-1.45-6.16-6.69-7.32-10s-1.69-7.76.34-10.81a6.14,6.14,0,0,1,9-1.64c4,3.3,3.27,12.64,1.56,17-.1.27-1.67,3.23-2.57,4.84,1.5-.95,3-1.91,4.55-2.82,4.48-2.62,9.09-5.15,13.69-7.68l4.19-2.35c-.49-.51-6.33-6.61-7.62-10.29-1.14-3.27-1.7-7.76.33-10.81a6.15,6.15,0,0,1,9-1.63c4,3.29,3.26,12.63,1.56,16.95-.13.33-2.39,4.58-3,5.64,3.07-1.73,6.12-3.49,9.06-5.34a108,108,0,0,0,11.41-8.19c-.23-.23-6.35-6.57-7.67-10.34-1.15-3.27-1.7-7.75.33-10.81a6.15,6.15,0,0,1,9-1.63c4,3.29,3.26,12.64,1.56,16.95-.13.34-2.57,4.92-3.08,5.72.21-.18.45-.33.66-.51a79.28,79.28,0,0,0,9.77-10.14c1.65-2,3.12-4,4.51-6-1.26-1.07-7-6-8.53-9.25s-2.54-7.52-.86-10.78a6.15,6.15,0,0,1,8.77-2.62c4.35,2.84,4.63,12.21,3.41,16.69-.06.24-1,2.64-1.73,4.38.62-.91,1.26-1.83,1.83-2.71,2.15-3.29,3.91-6.44,5.45-9.24.86-1.6,1.6-3.06,2.29-4.44-.69-1.68-3.4-8.52-3.29-12.07s1.21-7.85,4.21-10a6.16,6.16,0,0,1,9,1.72c2.55,4.53-1.52,13-4.66,16.38-.27.3-5.05,4.42-5.09,4.33l0-.1c-.63,1.34-1.33,2.77-2.12,4.31-1.47,2.84-3.17,6-5.25,9.39a110.93,110.93,0,0,1-7.23,10.49,81.08,81.08,0,0,1-9.67,10.48l-.14.11c1.39-.63,5.33-2.25,5.64-2.35,4.47-1.27,13.84-1.11,16.73,3.21a6.15,6.15,0,0,1-2.5,8.8C457.7,277.1,453.29,276.12,450.14,274.66Z" style="fill:#4E9462"></path><path d="M388.93,205.45c-.1,0,1.93-6,2.1-6.34,2-4.2,8.27-11.14,13.43-10.47a6.14,6.14,0,0,1,5,7.68c-.84,3.57-4.48,6.24-7.65,7.64C398.06,205.61,388.94,205.45,388.93,205.45Z" style="fill:#4E9462"></path><path d="M148.45,155.32c2,.06,6.05-1.67,6.05-1.67s-1.95-2.34-2.1-2.47c-1.65-1.53-5.74-3.51-7.94-2.27a3,3,0,0,0-.84,4.36C144.65,154.72,146.77,155.26,148.45,155.32Z" style="fill:#4E9462"></path><path d="M154.61,166.66c1.85-.44,5.09-3,5.35-3.17a52.24,52.24,0,0,0,4.68,5.27q1.46,1.45,3,2.85c-.53-.36-1-.67-1.08-.71-2-1-6.47-1.86-8.26-.09a3,3,0,0,0,.34,4.43c1.37,1.13,3.56,1.09,5.2.7s4.47-2.5,5.2-3.06l1.19,1.06c1.9,1.7,3.81,3.38,5.63,5.08.64.6,1.25,1.22,1.87,1.83-.47-.32-.87-.58-.94-.61-2-1-6.47-1.87-8.26-.09a3,3,0,0,0,.34,4.42c1.38,1.14,3.57,1.09,5.2.7s4.2-2.29,5.08-3c.6.64,1.22,1.29,1.78,1.94.37.46.76.87,1.11,1.35l1.05,1.39c.64.9,1.31,1.83,1.91,2.73.42.62.81,1.22,1.21,1.83-.64-.61-1.9-1.77-2-1.85-1.81-1.33-6.11-2.83-8.15-1.35a3,3,0,0,0-.33,4.43c1.19,1.33,3.36,1.62,5,1.48,1.85-.15,5.31-2.06,5.74-2.3.65,1,1.27,2,1.85,2.91s1,1.64,1.45,2.4l1.46-.58c-.51-.83-1.06-1.7-1.65-2.62s-1.38-2.09-2.13-3.19a32.48,32.48,0,0,0,2.6-2.78,21.67,21.67,0,0,0,5.87,1.15c0,1.2,0,2.36-.07,3.45,0,.76-.05,1.48-.08,2.18l1.55-.62c0-.5,0-1,0-1.53,0-1.21,0-2.51,0-3.84.48-.08,4.37-.78,5.9-1.83s2.89-2.55,3-4.33a3,3,0,0,0-3.05-3.22c-2.52.14-4.9,4-5.48,6.19,0,.13-.24,1.56-.36,2.47,0-.55,0-1.07,0-1.63,0-1.11-.1-2.21-.16-3.4l-.15-1.74c0-.58-.16-1.18-.23-1.78-.2-1.39-.48-2.79-.78-4.19,1,0,4.41-.18,5.93-.92s3.24-2.08,3.59-3.82a3,3,0,0,0-2.53-3.65c-2.51-.24-5.46,3.22-6.35,5.29-.06.13-.53,1.68-.78,2.54-.19-.84-.37-1.68-.59-2.53-.64-2.43-1.36-4.88-2.07-7.32-.22-.75-.42-1.5-.63-2.25.34,0,4.43-.1,6.14-.92,1.51-.73,3.24-2.08,3.59-3.83a3,3,0,0,0-2.53-3.64c-2.51-.25-5.45,3.22-6.35,5.28-.07.16-.75,2.4-.89,3-.47-1.65-.91-3.29-1.28-4.93A52.48,52.48,0,0,1,190.1,151c.16,0,4.44-.08,6.18-.92,1.52-.73,3.24-2.08,3.59-3.82a3,3,0,0,0-2.53-3.65c-2.51-.25-5.45,3.22-6.35,5.28-.07.17-.8,2.57-.9,3,0-.13,0-.27-.05-.4a38.61,38.61,0,0,1,.12-6.83c.12-1.25.3-2.44.5-3.6.8.07,4.45.34,6.1-.25s3.45-1.71,4-3.41a3,3,0,0,0-2.11-3.9c-2.47-.52-5.78,2.6-6.89,4.56-.06.1-.56,1.25-.91,2.09.1-.52.19-1.05.3-1.55.39-1.87.86-3.55,1.3-5,.25-.84.49-1.6.73-2.31.82-.34,4.09-1.76,5.27-3s2.27-3.11,2-4.86a3,3,0,0,0-3.68-2.49c-2.42.67-3.92,5-4,7.22,0,.19.22,3.25.26,3.23l.05,0c-.24.67-.49,1.4-.75,2.2-.47,1.48-1,3.16-1.41,5a53.78,53.78,0,0,0-1.12,6.08,39.1,39.1,0,0,0-.27,6.91s0,.06,0,.08c-.26-.69-1.06-2.59-1.13-2.73-1.1-2-4.37-5.13-6.84-4.64a3,3,0,0,0-2.16,3.88c.52,1.7,2.37,2.88,3.95,3.45,1.78.66,5.88.34,6.21.31a53.77,53.77,0,0,0,1,7c.28,1.34.6,2.69.93,4-.24-.59-.47-1.12-.51-1.19-1.09-2-4.36-5.12-6.83-4.63a3,3,0,0,0-2.16,3.88c.52,1.7,2.37,2.87,3.95,3.45s5.1.39,6,.32c.13.52.26,1,.4,1.54.65,2.47,1.32,4.92,1.9,7.35.2.85.37,1.7.54,2.55-.22-.52-.4-1-.44-1-1.1-2-4.37-5.13-6.84-4.64a3,3,0,0,0-2.16,3.88c.52,1.7,2.38,2.88,4,3.45s4.77.41,5.87.34c.15.87.3,1.75.41,2.6.06.59.15,1.15.18,1.74l.12,1.74c0,1.1.07,2.25.08,3.33,0,.75,0,1.47,0,2.19-.19-.86-.61-2.52-.66-2.65a11.52,11.52,0,0,0-3.53-4.67,3.52,3.52,0,0,0-.28-.59,3,3,0,0,0-4.32-1c-2,1.5-1.88,6-1.16,8.17.05.13.66,1.44,1.06,2.26-.31-.44-.6-.88-.93-1.34-.63-.9-1.29-1.79-2-2.74L183,184.84c-.35-.46-.78-.9-1.17-1.36-.94-1-1.94-2.06-3-3.06.8-.56,3.58-2.58,4.45-4s1.55-3.52.88-5.17a3,3,0,0,0-4.12-1.64c-2.23,1.18-2.77,5.69-2.38,7.91,0,.13.49,1.69.75,2.55-.62-.6-1.24-1.2-1.89-1.78-1.87-1.68-3.82-3.33-5.76-5-.6-.5-1.18-1-1.77-1.52.28-.19,3.65-2.53,4.62-4.15.86-1.45,1.55-3.53.88-5.18a3,3,0,0,0-4.12-1.64c-2.23,1.18-2.77,5.69-2.38,7.91,0,.17.7,2.41.89,3-1.29-1.12-2.57-2.25-3.79-3.41a52.86,52.86,0,0,1-4.64-5c.13-.09,3.66-2.51,4.65-4.17.86-1.45,1.55-3.53.88-5.17a3,3,0,0,0-4.12-1.65c-2.23,1.18-2.77,5.69-2.38,7.91,0,.17.75,2.59.91,3l-.26-.3a39.13,39.13,0,0,1-3.67-5.76c-.59-1.11-1.1-2.21-1.56-3.28.7-.39,3.89-2.18,4.94-3.58s1.94-3.33,1.45-5a3,3,0,0,0-3.91-2.09c-2.35.93-3.38,5.36-3.24,7.6,0,.12.23,1.36.4,2.25-.2-.49-.42-1-.61-1.46-.7-1.77-1.23-3.44-1.69-4.92-.26-.84-.47-1.61-.67-2.33.5-.74,2.44-3.73,2.73-5.43s.18-3.84-1-5.14a3,3,0,0,0-4.44,0c-1.65,1.91-.53,6.31.64,8.24.1.17,2,2.59,2,2.55l0-.05c.17.7.36,1.45.59,2.26.43,1.49.93,3.17,1.59,5a52.71,52.71,0,0,0,2.43,5.69,39.8,39.8,0,0,0,3.58,5.91l.06.06c-.6-.43-2.32-1.58-2.46-1.65-2-1-6.47-1.87-8.26-.1a3,3,0,0,0,.34,4.43C150.78,167.09,153,167.05,154.61,166.66Z" style="fill:#4E9462"></path><path d="M190.4,139.66s-.34-3-.39-3.22c-.54-2.18-2.86-6.09-5.37-6.27a3,3,0,0,0-3.11,3.17c.05,1.78,1.53,3.4,2.9,4.37C186,138.86,190.39,139.66,190.4,139.66Z" style="fill:#4E9462"></path><path d="M358.47,155.32c-2,.06-6.05-1.67-6.05-1.67s1.95-2.34,2.1-2.47c1.65-1.53,5.74-3.51,7.94-2.27a3,3,0,0,1,.84,4.36C362.27,154.72,360.15,155.26,358.47,155.32Z" style="fill:#4E9462"></path><path d="M352.31,166.66c-1.85-.44-5.09-3-5.35-3.17a52.24,52.24,0,0,1-4.68,5.27q-1.45,1.45-3,2.85c.53-.36,1-.67,1.08-.71,2-1,6.47-1.86,8.26-.09a3,3,0,0,1-.34,4.43c-1.37,1.13-3.56,1.09-5.2.7s-4.47-2.5-5.2-3.06l-1.19,1.06c-1.9,1.7-3.81,3.38-5.63,5.08-.64.6-1.26,1.22-1.87,1.83.47-.32.87-.58.94-.61,2-1,6.47-1.87,8.26-.09a3,3,0,0,1-.34,4.42c-1.38,1.14-3.57,1.09-5.2.7s-4.2-2.29-5.08-3c-.6.64-1.22,1.29-1.78,1.94-.37.46-.76.87-1.11,1.35L323.83,187c-.64.9-1.31,1.83-1.91,2.73-.42.62-.81,1.22-1.21,1.83.64-.61,1.9-1.77,2-1.85,1.82-1.33,6.12-2.83,8.16-1.35a3,3,0,0,1,.33,4.43c-1.19,1.33-3.36,1.62-5,1.48-1.85-.15-5.31-2.06-5.74-2.3-.65,1-1.27,2-1.85,2.91s-1,1.64-1.45,2.4l-1.47-.58c.52-.83,1.06-1.7,1.66-2.62s1.38-2.09,2.13-3.19a32.48,32.48,0,0,1-2.6-2.78,21.67,21.67,0,0,1-5.87,1.15c0,1.2,0,2.36.07,3.45,0,.76.05,1.48.08,2.18l-1.55-.62c0-.5,0-1,0-1.53,0-1.21,0-2.51,0-3.84-.48-.08-4.37-.78-5.9-1.83s-2.89-2.55-3-4.33a3,3,0,0,1,3.05-3.22c2.52.14,4.9,4,5.47,6.19,0,.13.25,1.56.37,2.47,0-.55,0-1.07,0-1.63,0-1.11.1-2.21.16-3.4l.15-1.74c0-.58.16-1.18.23-1.78.2-1.39.48-2.79.78-4.19-1,0-4.41-.18-5.93-.92s-3.24-2.08-3.59-3.82a3,3,0,0,1,2.53-3.65c2.51-.24,5.46,3.22,6.35,5.29.06.13.53,1.68.78,2.54.19-.84.37-1.68.59-2.53.64-2.43,1.36-4.88,2.07-7.32.22-.75.42-1.5.63-2.25-.34,0-4.43-.1-6.14-.92-1.51-.73-3.24-2.08-3.59-3.83a3,3,0,0,1,2.53-3.64c2.51-.25,5.45,3.22,6.35,5.28.07.16.75,2.4.89,3,.46-1.65.91-3.29,1.28-4.93a52.48,52.48,0,0,0,1.12-6.73c-.16,0-4.44-.08-6.18-.92-1.52-.73-3.24-2.08-3.59-3.82a3,3,0,0,1,2.53-3.65c2.51-.25,5.45,3.22,6.35,5.28.07.17.8,2.57.9,3,0-.13,0-.27.05-.4a38.61,38.61,0,0,0-.12-6.83c-.12-1.25-.3-2.44-.5-3.6-.8.07-4.45.34-6.1-.25s-3.45-1.71-4-3.41a3,3,0,0,1,2.11-3.9c2.47-.52,5.78,2.6,6.89,4.56.06.1.56,1.25.91,2.09-.1-.52-.19-1.05-.3-1.55-.39-1.87-.86-3.55-1.3-5-.25-.84-.49-1.6-.73-2.31-.82-.34-4.09-1.76-5.27-3s-2.27-3.11-2-4.86a3,3,0,0,1,3.67-2.49c2.43.67,3.93,5,4,7.22,0,.19-.22,3.25-.26,3.23l-.05,0c.24.67.49,1.4.75,2.2.46,1.48,1,3.16,1.41,5a53.78,53.78,0,0,1,1.12,6.08,40.08,40.08,0,0,1,.27,6.91s0,.06,0,.08c.26-.69,1.06-2.59,1.13-2.73,1.1-2,4.37-5.13,6.84-4.64a3,3,0,0,1,2.16,3.88c-.52,1.7-2.37,2.88-3.95,3.45-1.78.66-5.88.34-6.21.31a53.77,53.77,0,0,1-1,7c-.28,1.34-.6,2.69-.93,4,.24-.59.47-1.12.5-1.19,1.1-2,4.37-5.12,6.84-4.63A3,3,0,0,1,325,160c-.52,1.7-2.37,2.87-4,3.45s-5.1.39-6,.32c-.13.52-.26,1-.4,1.54-.65,2.47-1.32,4.92-1.9,7.35-.2.85-.37,1.7-.54,2.55.22-.52.4-1,.44-1,1.09-2,4.37-5.13,6.84-4.64a3,3,0,0,1,2.16,3.88c-.52,1.7-2.38,2.88-4,3.45s-4.76.41-5.86.34c-.15.87-.3,1.75-.41,2.6-.06.59-.15,1.15-.18,1.74l-.12,1.74c0,1.1-.07,2.25-.08,3.33,0,.75,0,1.47,0,2.19.19-.86.61-2.52.66-2.65a11.52,11.52,0,0,1,3.53-4.67,2.88,2.88,0,0,1,.28-.59,3,3,0,0,1,4.32-1c2,1.5,1.88,6,1.16,8.17-.05.13-.66,1.44-1.06,2.26.31-.44.6-.88.93-1.34.63-.9,1.29-1.79,2-2.74l1.09-1.37c.35-.46.78-.9,1.17-1.36.94-1,1.94-2.06,3-3.06-.8-.56-3.58-2.58-4.45-4s-1.55-3.52-.88-5.17a3,3,0,0,1,4.12-1.64c2.23,1.18,2.77,5.69,2.38,7.91,0,.13-.49,1.69-.76,2.55.63-.6,1.25-1.2,1.9-1.78,1.87-1.68,3.82-3.33,5.76-5l1.77-1.52c-.29-.19-3.65-2.53-4.62-4.15-.86-1.45-1.55-3.53-.88-5.18a3,3,0,0,1,4.12-1.64c2.23,1.18,2.77,5.69,2.38,7.91,0,.17-.7,2.41-.89,3,1.29-1.12,2.57-2.25,3.79-3.41a52.86,52.86,0,0,0,4.64-5c-.14-.09-3.66-2.51-4.65-4.17-.86-1.45-1.55-3.53-.88-5.17a3,3,0,0,1,4.12-1.65c2.23,1.18,2.77,5.69,2.38,7.91,0,.17-.75,2.59-.91,3l.26-.3a39.13,39.13,0,0,0,3.67-5.76c.59-1.11,1.1-2.21,1.56-3.28-.7-.39-3.89-2.18-5-3.58s-1.93-3.33-1.44-5a3,3,0,0,1,3.91-2.09c2.35.93,3.38,5.36,3.24,7.6,0,.12-.23,1.36-.4,2.25.2-.49.42-1,.61-1.46.7-1.77,1.23-3.44,1.69-4.92.26-.84.47-1.61.67-2.33-.5-.74-2.44-3.73-2.73-5.43s-.18-3.84,1-5.14a3,3,0,0,1,4.44,0c1.65,1.91.53,6.31-.64,8.24-.1.17-2,2.59-2,2.55l0-.05c-.17.7-.36,1.45-.59,2.26-.43,1.49-.93,3.17-1.59,5a54.79,54.79,0,0,1-2.43,5.69,39.05,39.05,0,0,1-3.59,5.91l-.05.06c.6-.43,2.32-1.58,2.46-1.65,2-1,6.47-1.87,8.26-.1a3,3,0,0,1-.34,4.43C356.13,167.09,353.94,167.05,352.31,166.66Z" style="fill:#4E9462"></path><path d="M316.52,139.66s.34-3,.39-3.22c.54-2.18,2.86-6.09,5.37-6.27a3,3,0,0,1,3.11,3.17c-.05,1.78-1.53,3.4-2.9,4.37C320.88,138.86,316.53,139.66,316.52,139.66Z" style="fill:#4E9462"></path><path d="M428.51,381.78c-1.07-1.66-1.69-6-1.69-6s3,.46,3.2.52c2.16.63,6,3.11,6,5.63a3,3,0,0,1-3.31,3C431,384.73,429.42,383.19,428.51,381.78Z" style="fill:#4E9462"></path><path d="M415.61,382.35c-.57-1.81-.08-5.89,0-6.22a51,51,0,0,1-6.93-1.29c-1.33-.33-2.66-.71-4-1.1l1.16.56c1.92,1.18,4.93,4.58,4.34,7a3,3,0,0,1-4,2c-1.68-.59-2.77-2.49-3.28-4.1s-.17-5.11-.06-6l-1.53-.47c-2.43-.76-4.85-1.53-7.25-2.21-.85-.24-1.69-.44-2.53-.65.51.24.94.44,1,.48,1.92,1.18,4.94,4.58,4.34,7a3,3,0,0,1-4,2c-1.68-.6-2.77-2.5-3.28-4.1s-.2-4.78-.08-5.87c-.87-.19-1.74-.38-2.59-.52-.58-.09-1.13-.21-1.72-.26l-1.74-.19c-1.1-.08-2.24-.17-3.32-.22l-2.19-.1c.85.23,2.49.71,2.62.77,2.08.87,5.57,3.78,5.36,6.29a3,3,0,0,1-3.62,2.57c-1.75-.33-3.12-2-3.87-3.55-.82-1.66-1-5.61-1-6.1-1.19,0-2.36-.07-3.45-.08h-2.8l-.26-1.56,3.09.07c1.21,0,2.51.11,3.84.19a30.26,30.26,0,0,1,1-3.67,21.66,21.66,0,0,1-4-4.43c-1,.62-2,1.24-2.93,1.83l-1.82,1.2-.27-1.65c.42-.27.85-.54,1.3-.81,1-.64,2.14-1.3,3.29-2-.17-.45-1.58-4.15-1.47-6,.1-1.68.7-3.79,2.18-4.78a3,3,0,0,1,4.33,1c1.18,2.23-.9,6.27-2.47,7.88-.1.1-1.22,1-1.93,1.58l1.41-.8c1-.55,1.94-1.07,3-1.62l1.57-.77c.52-.26,1.1-.48,1.65-.72,1.3-.54,2.63-1,4-1.49-.47-.85-2.12-3.87-2.27-5.55s.11-3.85,1.42-5.05a3,3,0,0,1,4.43.28c1.51,2,.06,6.34-1.25,8.17-.08.11-1.17,1.32-1.78,2,.82-.27,1.63-.55,2.47-.79,2.42-.72,4.88-1.36,7.34-2l2.26-.62c-.18-.3-2.21-3.85-2.38-5.74-.16-1.67.11-3.85,1.42-5.05a3,3,0,0,1,4.43.29c1.51,2,.06,6.34-1.25,8.17-.1.14-1.67,1.87-2.09,2.3,1.65-.46,3.3-.93,4.89-1.45a53.28,53.28,0,0,0,6.34-2.51c-.08-.14-2.22-3.84-2.4-5.77-.15-1.68.12-3.85,1.43-5a3,3,0,0,1,4.43.28c1.5,2,.05,6.34-1.26,8.17-.1.14-1.79,2-2.12,2.33l.37-.16A38.48,38.48,0,0,0,417,340c1-.74,1.94-1.52,2.83-2.29-.47-.65-2.58-3.63-2.93-5.35s-.31-3.84.86-5.18a3,3,0,0,1,4.44-.2c1.71,1.85.74,6.29-.36,8.26-.06.1-.78,1.12-1.33,1.86l1.18-1.06c1.4-1.3,2.6-2.57,3.65-3.71.59-.65,1.12-1.25,1.6-1.82-.13-.88-.6-4.42-.13-6.07s1.5-3.56,3.15-4.2a3,3,0,0,1,4,1.87c.68,2.43-2.23,5.92-4.11,7.16-.17.11-2.9,1.49-2.91,1.44v-.05c-.45.55-.94,1.14-1.5,1.78-1,1.16-2.2,2.46-3.57,3.8a53.75,53.75,0,0,1-4.64,4.09,38.47,38.47,0,0,1-5.78,3.79l-.08,0c.73-.13,2.77-.44,2.93-.44,2.25-.08,6.64,1.1,7.5,3.47a3,3,0,0,1-2.21,3.85c-1.73.43-3.69-.55-5-1.61-1.48-1.19-3.32-4.86-3.46-5.16a51.59,51.59,0,0,1-6.49,2.75c-1.3.46-2.61.88-3.94,1.28l1.28-.18c2.25-.07,6.64,1.1,7.5,3.47a3,3,0,0,1-2.21,3.85c-1.73.44-3.69-.55-5-1.6s-3-4.18-3.38-5l-1.53.45c-2.45.71-4.89,1.4-7.27,2.16-.84.27-1.65.56-2.47.85.56-.08,1-.15,1.11-.15,2.25-.08,6.64,1.1,7.49,3.47A3,3,0,0,1,394,359.5c-1.73.43-3.69-.55-5-1.61s-2.81-3.87-3.31-4.85c-.83.32-1.66.64-2.45,1-.53.25-1.06.46-1.58.74l-1.55.8c-1,.54-2,1.09-2.89,1.65-.65.37-1.26.75-1.88,1.12.83-.27,2.47-.77,2.61-.8a11.48,11.48,0,0,1,5.81.62,3.7,3.7,0,0,1,.66-.07,3,3,0,0,1,3.09,3.19c-.25,2.51-4.22,4.73-6.42,5.21-.12,0-1.57.17-2.48.25l1.63.11c1.1.08,2.2.19,3.39.3l1.73.23c.57.06,1.18.2,1.77.3,1.38.27,2.76.6,4.15,1,.07-1,.37-4.39,1.17-5.88s2.22-3.15,4-3.43A3,3,0,0,1,400,362c.14,2.51-3.45,5.31-5.55,6.11-.13.05-1.71.46-2.58.67.84.23,1.67.45,2.5.7,2.41.74,4.82,1.57,7.24,2.38l2.21.73c0-.34.29-4.43,1.18-6.1.8-1.48,2.22-3.15,4-3.42a3,3,0,0,1,3.53,2.68c.14,2.52-3.44,5.31-5.55,6.12-.16.06-2.42.64-3,.76,1.62.54,3.25,1.05,4.88,1.5a54.54,54.54,0,0,0,6.66,1.4c0-.17.27-4.43,1.19-6.14.79-1.48,2.22-3.15,4-3.42a3,3,0,0,1,3.54,2.68c.14,2.52-3.45,5.31-5.55,6.12-.17.06-2.6.69-3.05.77l.39.07a39.41,39.41,0,0,0,6.83.17c1.26-.06,2.46-.2,3.62-.35,0-.8-.14-4.45.51-6.08s1.86-3.38,3.57-3.84a3,3,0,0,1,3.81,2.28c.42,2.48-2.84,5.65-4.84,6.69-.11.05-1.28.5-2.14.81.53-.07,1.07-.14,1.57-.23,1.88-.31,3.58-.71,5.09-1.08.85-.22,1.62-.43,2.34-.64.38-.8,1.93-4,3.24-5.13s3.2-2.14,4.94-1.76a3,3,0,0,1,2.33,3.78c-.77,2.39-5.13,3.71-7.38,3.7-.19,0-3.24-.36-3.22-.4l0-.05-2.24.66c-1.5.4-3.2.84-5.08,1.19a52.77,52.77,0,0,1-6.12.86,39.07,39.07,0,0,1-6.92,0h-.08c.68.29,2.55,1.17,2.68,1.25,1.92,1.18,4.94,4.58,4.34,7a3,3,0,0,1-4,2C417.22,385.85,416.12,384,415.61,382.35Z" style="fill:#4E9462"></path><path d="M420.3,337.77s2.77-1.27,3-1.33c2.15-.67,6.69-.69,8.14,1.37a3,3,0,0,1-1.11,4.3c-1.56.87-3.71.44-5.25-.23C423.23,341.08,420.3,337.77,420.3,337.77Z" style="fill:#4E9462"></path><path d="M78.42,381.78c1.07-1.66,1.69-6,1.69-6s-3,.46-3.2.52c-2.16.63-6,3.11-6,5.63a3,3,0,0,0,3.3,3C75.94,384.73,77.5,383.19,78.42,381.78Z" style="fill:#4E9462"></path><path d="M91.31,382.35c.58-1.81.09-5.89,0-6.22a50.44,50.44,0,0,0,6.93-1.29c1.33-.33,2.66-.71,4-1.1l-1.17.56c-1.91,1.18-4.93,4.58-4.33,7a3,3,0,0,0,4,2c1.67-.59,2.77-2.49,3.28-4.1s.16-5.11.06-6l1.52-.47c2.43-.76,4.86-1.53,7.26-2.21.84-.24,1.69-.44,2.53-.65-.52.24-1,.44-1,.48-1.92,1.18-4.93,4.58-4.34,7a3,3,0,0,0,4,2c1.68-.6,2.77-2.5,3.28-4.1s.2-4.78.08-5.87c.87-.19,1.74-.38,2.59-.52.58-.09,1.14-.21,1.73-.26l1.73-.19c1.1-.08,2.24-.17,3.32-.22l2.19-.1c-.84.23-2.49.71-2.62.77-2.08.87-5.57,3.78-5.35,6.29a3,3,0,0,0,3.62,2.57c1.75-.33,3.12-2,3.86-3.55.82-1.66,1-5.61,1-6.1,1.2,0,2.36-.07,3.46-.08h2.8l.25-1.56-3.09.07c-1.21,0-2.5.11-3.83.19a34.77,34.77,0,0,0-1-3.67,22.29,22.29,0,0,0,4-4.43c1,.62,2,1.24,2.92,1.83.64.41,1.24.81,1.82,1.2L137,360c-.43-.27-.85-.54-1.3-.81-1-.64-2.15-1.3-3.3-2,.17-.45,1.58-4.15,1.47-6-.1-1.68-.69-3.79-2.17-4.78a3,3,0,0,0-4.34,1c-1.18,2.23.91,6.27,2.48,7.88.09.1,1.21,1,1.93,1.58l-1.42-.8c-1-.55-1.94-1.07-3-1.62l-1.57-.77c-.51-.26-1.09-.48-1.65-.72-1.29-.54-2.63-1-4-1.49.48-.85,2.12-3.87,2.28-5.55s-.11-3.85-1.43-5.05a3,3,0,0,0-4.43.28c-1.5,2,0,6.34,1.26,8.17.08.11,1.17,1.32,1.78,2-.82-.27-1.64-.55-2.48-.79-2.41-.72-4.88-1.36-7.34-2l-2.25-.62c.17-.3,2.2-3.85,2.38-5.74.15-1.67-.11-3.85-1.43-5.05a3,3,0,0,0-4.43.29c-1.5,2,0,6.34,1.26,8.17.1.14,1.66,1.87,2.08,2.3-1.65-.46-3.29-.93-4.89-1.45a53.12,53.12,0,0,1-6.33-2.51c.08-.14,2.21-3.84,2.39-5.77.16-1.68-.11-3.85-1.42-5a3,3,0,0,0-4.44.28c-1.5,2,0,6.34,1.26,8.17.1.14,1.79,2,2.12,2.33l-.37-.16A39,39,0,0,1,89.93,340c-1-.74-1.94-1.52-2.82-2.29.47-.65,2.57-3.63,2.93-5.35s.31-3.84-.87-5.18a3,3,0,0,0-4.43-.2c-1.72,1.85-.75,6.29.35,8.26.06.1.79,1.12,1.33,1.86l-1.18-1.06c-1.4-1.3-2.59-2.57-3.65-3.71-.59-.65-1.11-1.25-1.6-1.82.13-.88.6-4.42.13-6.07s-1.49-3.56-3.15-4.2a3,3,0,0,0-4,1.87c-.67,2.43,2.24,5.92,4.12,7.16.16.11,2.9,1.49,2.9,1.44v-.05c.45.55,1,1.14,1.5,1.78,1,1.16,2.21,2.46,3.58,3.8a53.55,53.55,0,0,0,4.63,4.09,38.58,38.58,0,0,0,5.79,3.79l.07,0c-.72-.13-2.77-.44-2.93-.44-2.25-.08-6.64,1.1-7.49,3.47a3,3,0,0,0,2.21,3.85c1.73.43,3.69-.55,5-1.61,1.48-1.19,3.32-4.86,3.47-5.16a51,51,0,0,0,6.49,2.75c1.29.46,2.61.88,3.93,1.28-.63-.1-1.2-.17-1.28-.18-2.25-.07-6.64,1.1-7.49,3.47a3,3,0,0,0,2.21,3.85c1.72.44,3.68-.55,5-1.6s3-4.18,3.39-5l1.52.45c2.45.71,4.9,1.4,7.28,2.16.83.27,1.65.56,2.47.85l-1.11-.15c-2.25-.08-6.64,1.1-7.5,3.47a3,3,0,0,0,2.21,3.85c1.73.43,3.69-.55,5-1.61s2.8-3.87,3.31-4.85c.82.32,1.65.64,2.44,1,.53.25,1.06.46,1.58.74l1.55.8c1,.54,2,1.09,2.9,1.65.65.37,1.26.75,1.88,1.12-.84-.27-2.47-.77-2.62-.8a11.49,11.49,0,0,0-5.81.62,3.6,3.6,0,0,0-.66-.07,3,3,0,0,0-3.08,3.19c.24,2.51,4.21,4.73,6.41,5.21.13,0,1.57.17,2.48.25l-1.63.11c-1.1.08-2.2.19-3.38.3l-1.73.23c-.58.06-1.18.2-1.78.3-1.38.27-2.76.6-4.15,1-.07-1-.37-4.39-1.16-5.88s-2.22-3.15-4-3.43a3,3,0,0,0-3.53,2.69c-.14,2.51,3.45,5.31,5.55,6.11.13.05,1.7.46,2.57.67-.83.23-1.66.45-2.5.7-2.4.74-4.82,1.57-7.23,2.38l-2.22.73c0-.34-.29-4.43-1.18-6.1-.79-1.48-2.22-3.15-4-3.42a3,3,0,0,0-3.54,2.68c-.14,2.52,3.45,5.31,5.55,6.12.16.06,2.42.64,3,.76-1.63.54-3.26,1.05-4.88,1.5a54.3,54.3,0,0,1-6.67,1.4c0-.17-.27-4.43-1.18-6.14-.8-1.48-2.22-3.15-4-3.42a3,3,0,0,0-3.54,2.68c-.13,2.52,3.45,5.31,5.56,6.12.16.06,2.6.69,3,.77l-.4.07a39.32,39.32,0,0,1-6.82.17c-1.26-.06-2.46-.2-3.63-.35,0-.8.15-4.45-.51-6.08s-1.85-3.38-3.57-3.84a3,3,0,0,0-3.81,2.28c-.41,2.48,2.85,5.65,4.85,6.69.11.05,1.27.5,2.13.81-.52-.07-1.07-.14-1.57-.23-1.88-.31-3.58-.71-5.09-1.08-.85-.22-1.62-.43-2.33-.64-.38-.8-1.94-4-3.25-5.13s-3.2-2.14-4.94-1.76a3,3,0,0,0-2.33,3.78c.78,2.39,5.13,3.71,7.38,3.7.2,0,3.24-.36,3.22-.4l0-.05,2.23.66c1.5.4,3.2.84,5.08,1.19a52.65,52.65,0,0,0,6.13.86,39,39,0,0,0,6.91,0h.09c-.68.29-2.55,1.17-2.69,1.25-1.92,1.18-4.93,4.58-4.34,7a3,3,0,0,0,4,2C89.71,385.85,90.8,384,91.31,382.35Z" style="fill:#4E9462"></path><path d="M86.63,337.77s-2.78-1.27-3-1.33c-2.15-.67-6.7-.69-8.15,1.37a3,3,0,0,0,1.12,4.3c1.55.87,3.7.44,5.24-.23C83.69,341.08,86.62,337.77,86.63,337.77Z" style="fill:#4E9462"></path></g><g id="freepik--Character--inject-20"><path d="M329,166a53.88,53.88,0,0,1-35.68-18.5c-1.65-1.92-3.33-3.78-4.94-5.38-7.48-7.49-19.79-16-51.87-9.1s-28.88,34.77-33.16,46,.54,13.9-15.51,13.9-33.69,8.56-35.29,18.72,3.2,16-3.75,19.79-29.95,1.6-35.83,23,18.72,24.6,4.28,39-21.39,33.69-15,52.95,27.28,24.06,39,25.13a60.43,60.43,0,0,1,41.72,23c12.3,16,48.66,34.76,64.71,23s34.76-20.85,49.2-13.9,26.74,18.72,42.78,4.81,11.23-26.2,24.07-31.55,48.66-16,49.73-43.85-10.16-37.44-26.2-49.2-.54-20.86.53-35.84-2.67-26.2-15.51-27.81-28.87.54-26.2-11.23,10.7-28.87-2.67-38A29.73,29.73,0,0,0,329,166Z" style="fill:#263238"></path><path d="M234.79,421.78c-18.28,0-42.91-14.86-52.14-26.9-14.56-19-35.34-22.25-41.36-22.8-11.93-1.08-32.92-5.84-39.47-25.48-6.09-18.28-.59-37.76,15.1-53.45,7.22-7.23,4.42-11.31.55-16.95-3.5-5.08-7.84-11.4-5-21.87,4.47-16.27,18.86-19.22,28.38-21.16,3.22-.66,6-1.23,7.69-2.15,4.09-2.2,3.83-5.17,3.42-9.66a38,38,0,0,1,.07-9.76c1.73-10.95,20.32-19.14,35.79-19.14,11.6,0,11.88-1.26,13-6.56a46.49,46.49,0,0,1,2-7A54.82,54.82,0,0,0,205,170c2.45-13.43,5.81-31.83,31.42-37.38,31.22-6.76,44,.87,52.34,9.23,1.5,1.5,3.17,3.32,5,5.41a53.19,53.19,0,0,0,35.35,18.34h0a29.94,29.94,0,0,1,14.7,5.07c11.43,7.77,7.61,21.34,4.54,32.23-.63,2.22-1.22,4.31-1.66,6.27-.55,2.41-.31,4.28.75,5.69,2.53,3.38,9.46,3.8,16.79,4.25,2.73.17,5.56.34,8.24.68,11.82,1.48,17.18,11,15.94,28.34-.37,5.24-2.51,9.83-4.4,13.88-3.65,7.84-6.53,14,3.66,21.51,16.64,12.2,27.47,22.25,26.41,49.63-1,25.23-29.84,36.42-45.35,42.43-1.77.69-3.35,1.3-4.69,1.86-6.32,2.63-8.23,7-10.66,12.53-2.35,5.35-5.27,12-13.27,18.94-13.45,11.66-24.32,5.63-35.82-.76-2.44-1.35-4.95-2.75-7.51-4-11.93-5.75-28.31-1.09-48.69,13.86C244.43,420.63,239.85,421.78,234.79,421.78ZM257.88,131a101.34,101.34,0,0,0-21.25,2.57C211.67,139,208.38,157,206,170.13a54.83,54.83,0,0,1-2.14,9.1,44.83,44.83,0,0,0-2,6.88c-1.3,5.95-2.07,7.35-14,7.35-16.4,0-33.32,8.89-34.8,18.3a36.1,36.1,0,0,0-.06,9.51c.41,4.54.73,8.12-3.94,10.64-1.83,1-4.67,1.56-8,2.24-9.83,2-23.31,4.77-27.62,20.44-2.75,10,1.27,15.88,4.82,21,3.84,5.59,7.15,10.41-.67,18.22-15.41,15.41-20.82,34.53-14.85,52.44,6.37,19.1,26.92,23.73,38.61,24.79,6.12.56,27.26,3.88,42.07,23.19,12.89,16.82,48.68,34.15,64,22.9,20.7-15.18,37.43-19.87,49.72-13.95,2.58,1.24,5.11,2.65,7.55,4,11.19,6.21,21.76,12.08,34.69.87,7.82-6.78,10.58-13.05,13-18.58s4.51-10.27,11.2-13c1.34-.56,2.93-1.18,4.71-1.87,15.3-5.93,43.77-17,44.71-41.54,1-26.95-9.13-36.41-26-48.78-10.86-8-7.67-14.81-4-22.74,1.94-4.17,3.94-8.48,4.31-13.53,1.19-16.7-3.88-25.88-15.08-27.28-2.64-.33-5.46-.5-8.17-.67-7.57-.46-14.72-.9-17.53-4.65-1.24-1.66-1.55-3.79-.93-6.52.45-2,1.05-4.08,1.67-6.31,3.14-11.14,6.7-23.76-4.14-31.13A29.18,29.18,0,0,0,329,166.54a54.2,54.2,0,0,1-36-18.68c-1.78-2.07-3.43-3.87-4.91-5.35C282.09,136.55,273.83,131,257.88,131Z" style="fill:#263238"></path><path d="M377.36,363a.5.5,0,0,1,0-1s3.31-.07,7.09-3.9a.49.49,0,0,1,.7,0,.5.5,0,0,1,0,.71C381.06,362.94,377.51,363,377.36,363Z" style="fill:gray"></path><path d="M389.72,351.79a.44.44,0,0,1-.22-.05.49.49,0,0,1-.22-.67,51.16,51.16,0,0,0,3.28-8.68c3.87-13.55-4.35-22.45-14.76-33.72a163.16,163.16,0,0,1-14.4-17.2c-.5-.71-1-1.42-1.39-2.09a.5.5,0,0,1,.85-.53c.41.66.87,1.35,1.36,2A162.77,162.77,0,0,0,378.54,308c10.62,11.5,19,20.58,15,34.67a51.59,51.59,0,0,1-3.35,8.86A.5.5,0,0,1,389.72,351.79Z" style="fill:gray"></path><path d="M360.31,285.64a.49.49,0,0,1-.45-.29c-4.14-9.39.29-14.49,4.57-19.43,3.23-3.71,6.27-7.22,6-12.5-.4-8-10.46-11.18-20.18-14.3-5-1.59-10.15-3.25-14-5.54a.48.48,0,0,1-.17-.68.5.5,0,0,1,.68-.18c3.75,2.23,8.86,3.87,13.79,5.45,10.05,3.22,20.45,6.55,20.88,15.2.28,5.68-3,9.51-6.25,13.21-4.27,4.91-8.3,9.56-4.42,18.36a.5.5,0,0,1-.25.66A.52.52,0,0,1,360.31,285.64Z" style="fill:gray"></path><path d="M332.43,230.36a.52.52,0,0,1-.38-.17c-4.74-5.53-3.38-9.78-1.66-15.17,1.5-4.68,3.19-10,1.55-17.86-1.89-9.09-10-11.11-19.44-13.44-6.62-1.64-14.13-3.49-20-8.26a.51.51,0,0,1-.08-.71.52.52,0,0,1,.71-.07c5.71,4.63,12.78,6.38,19.62,8.07,9.34,2.31,18.16,4.5,20.18,14.21,1.7,8.12-.12,13.8-1.58,18.37-1.68,5.28-2.9,9.1,1.47,14.21a.49.49,0,0,1-.38.82Z" style="fill:gray"></path><path d="M288.76,171.58a.51.51,0,0,1-.37-.17,139.63,139.63,0,0,1-10.45-13.69c-5.86-8.42-10.49-15.06-17.52-15.06-11,0-18.75,12.46-18.83,12.59a.5.5,0,1,1-.85-.52c.32-.53,8.12-13.07,19.68-13.07,7.55,0,12.31,6.83,18.34,15.49a138.15,138.15,0,0,0,10.38,13.6.5.5,0,0,1-.38.83Z" style="fill:gray"></path><path d="M364.52,333a.5.5,0,0,1-.5-.5c0-13.06-4.9-16.67-12.32-22.14-2.05-1.51-4.37-3.22-6.76-5.29-7.28-6.31-5.57-18.41-4.06-29.09.78-5.5,1.51-10.69,1-14.73-.83-7-8.8-9.32-17.25-11.76-5.58-1.62-11.35-3.29-15.36-6.44a11.34,11.34,0,0,1-4.38-8.81.49.49,0,0,1,.47-.53.51.51,0,0,1,.53.46,10.42,10.42,0,0,0,4,8.09c3.86,3,9.54,4.68,15,6.27,8.77,2.54,17.06,4.93,18,12.61.49,4.16-.25,9.42-1,15-1.47,10.42-3.14,22.24,3.73,28.19,2.35,2,4.56,3.67,6.7,5.25C359.68,315,365,319,365,332.54A.5.5,0,0,1,364.52,333Z" style="fill:gray"></path><path d="M305.94,227.26h-.07a.5.5,0,0,1-.42-.56c.14-1,.31-2,.48-3.09.44-2.77.9-5.64,1.15-8.69a.51.51,0,0,1,.54-.46.49.49,0,0,1,.45.54c-.25,3.09-.71,6-1.16,8.77-.16,1.05-.33,2.07-.47,3.07A.51.51,0,0,1,305.94,227.26Z" style="fill:gray"></path><path d="M307.72,208.85a.5.5,0,0,1-.5-.48,39.79,39.79,0,0,0-.94-6.92c-2.42-10.49-10.61-10.57-18.52-10.64-5.66-.06-11.5-.11-14.89-4.12-3.76-4.45-5.28-9.9-6.62-14.71-1.52-5.43-2.82-10.11-6.79-12.27-7.46-4.07-18.58,4.85-18.7,4.94a.5.5,0,0,1-.7-.08.5.5,0,0,1,.07-.7c.48-.39,11.77-9.43,19.81-5,4.34,2.37,5.76,7.47,7.27,12.88,1.31,4.71,2.8,10,6.42,14.33,3.1,3.66,8.46,3.71,14.14,3.77,7.91.07,16.88.16,19.48,11.42a39.84,39.84,0,0,1,1,7.09.51.51,0,0,1-.48.53Z" style="fill:gray"></path><path d="M300.81,252a8,8,0,0,1-5.81-2.55c-3.1-3.11-1.43-7.09.51-11.7,1.37-3.24,2.91-6.92,2.91-10.76,0-8.66-12.92-8.77-13.05-8.77a.5.5,0,0,1,0-1c.14,0,14.05.11,14.05,9.77,0,4.05-1.59,7.82-3,11.15-1.87,4.45-3.35,8-.72,10.6,4.62,4.62,9.82.83,10,.67a.5.5,0,0,1,.6.8A10.31,10.31,0,0,1,300.81,252Z" style="fill:gray"></path><path d="M159.87,236.78a.5.5,0,0,1-.25-.93c2.88-1.73,4.14-3.55,4.08-5.9a.52.52,0,0,1,.49-.51.47.47,0,0,1,.51.49c.07,2.71-1.38,4.86-4.57,6.78A.48.48,0,0,1,159.87,236.78Z" style="fill:gray"></path><path d="M161.61,222.21a.51.51,0,0,1-.47-.32c-1.09-3-2.08-6.54-1-10.69,2.41-9.64,17.35-8.6,28.26-7.84,2.52.18,4.7.33,6.45.33,9,0,18.91-5.58,19-5.64a.5.5,0,0,1,.49.87c-.41.24-10.2,5.77-19.5,5.77-1.78,0-4-.15-6.52-.33-10.55-.73-25-1.74-27.22,7.08a16.63,16.63,0,0,0,1,10.1.5.5,0,0,1-.29.64Z" style="fill:gray"></path><path d="M114.24,345.16a.5.5,0,0,1-.48-.34c-5.13-16.05,8.89-27.5,19.13-35.86,1.36-1.11,2.66-2.17,3.84-3.18,5.57-4.78,3-12.06.33-19.77-1.89-5.43-3.85-11-2.63-15.63.87-3.25,3-5.66,6.67-7.38a.5.5,0,0,1,.66.24.51.51,0,0,1-.23.67c-3.34,1.58-5.34,3.78-6.13,6.72-1.15,4.31.76,9.77,2.61,15.05,2.68,7.69,5.46,15.64-.63,20.86-1.18,1-2.49,2.08-3.86,3.2-10,8.18-23.73,19.38-18.81,34.77a.5.5,0,0,1-.32.63A.39.39,0,0,1,114.24,345.16Z" style="fill:gray"></path><path d="M151.06,261.22a.49.49,0,0,1-.49-.42.5.5,0,0,1,.4-.58c1.68-.29,3.42-.56,5.17-.83a100.22,100.22,0,0,0,11.44-2.2c7.34-2,7.34-9.56,7.34-18.26,0-5.77,0-12.31,2.32-17.82,5.8-13.78,36.36-6.32,37.66-6a.49.49,0,1,1-.24,1c-.31-.07-31-7.58-36.5,5.42-2.24,5.32-2.24,11.48-2.24,17.43,0,8.73,0,17-8.07,19.22a101.41,101.41,0,0,1-11.56,2.23c-1.74.27-3.47.53-5.14.83Z" style="fill:gray"></path><path d="M169.86,370.83a.5.5,0,0,1-.16-1c.33-.11,8.09-2.92,5.37-16.54-1.12-5.62-4.73-7.64-8.9-10C160,339.9,153.1,336,152.24,319.73c-1.25-23.8,15.4-31.82,28.78-38.27,2-1,3.95-1.9,5.72-2.84,7.27-3.87,5.52-11.16,3.67-18.88-1.4-5.82-2.84-11.84-.32-16.57a.51.51,0,0,1,.68-.2.5.5,0,0,1,.21.67c-2.35,4.4-.95,10.23.4,15.86,1.86,7.76,3.78,15.77-4.17,20-1.79.95-3.72,1.88-5.76,2.86-13.11,6.32-29.43,14.18-28.21,37.32.83,15.72,7.52,19.47,13.42,22.78,4.2,2.37,8.18,4.59,9.39,10.66,2.91,14.53-6,17.66-6,17.69A.47.47,0,0,1,169.86,370.83Z" style="fill:gray"></path><path d="M210,239.72h-.05l-2.41-.27c-3.6-.42-7.32-.85-10.37-.24a.5.5,0,0,1-.59-.39.51.51,0,0,1,.4-.59c3.2-.64,7-.2,10.67.23l2.4.26a.5.5,0,0,1,0,1Z" style="fill:gray"></path><path d="M217.75,239.76a.5.5,0,0,1-.09-1,10,10,0,0,0,4-1.48c8.36-5.57,17.57-22.47,17.67-22.64a.5.5,0,0,1,.88.47c-.39.71-9.43,17.29-18,23a10.92,10.92,0,0,1-4.36,1.63Z" style="fill:gray"></path><path d="M215.51,192.26l-.16,0a.49.49,0,0,1-.31-.63c.87-2.61.11-6.63-.68-10.88-1.29-6.86-2.75-14.63,2.15-19.11,7.94-7.24,19.29,2.57,19.41,2.67a.51.51,0,0,1,0,.71.48.48,0,0,1-.7,0c-.11-.09-10.8-9.32-18.07-2.68-4.5,4.1-3.09,11.58-1.85,18.18.82,4.39,1.6,8.53.65,11.39A.5.5,0,0,1,215.51,192.26Z" style="fill:gray"></path><path d="M211.16,163.82a.5.5,0,0,1-.5-.5c0-7.44,3.46-13.44,10.27-17.82,3.13-2,6.09-2.69,8.82-2a10.17,10.17,0,0,1,5.94,4.52.5.5,0,0,1-.87.49,9.35,9.35,0,0,0-5.32-4c-2.45-.6-5.15,0-8,1.88-6.51,4.19-9.81,9.9-9.81,17A.5.5,0,0,1,211.16,163.82Z" style="fill:gray"></path><path d="M316.75,424c-8,0-10,1-10,1s12.54,25.49,7.9,28.95c-7.11,5.29-25-1.1-30.9-7.52-11.34-12.36-18.3-28.31-18.3-28.31s5.88,38,3.74,46.52-15.78,5.59-23.62-1.21C229.17,449.23,228,420.78,228,420.78s-11.23,35.3-17.11,44.92-11.77,8.56-23-10.16-9.62-33.69-9.62-33.69-14.44,14.44-31.56,21.93-20.32,11.23-17.11-.54c3.15-11.58,14.61-26.27,15-26.73-.69.14-25.75,5.26-32.61-.54S144,402.6,156.84,393c9.95-7.45,31.45-25.83,40.63-33.72l4.3-3.71s-2.14-1.07-12.84-13.37-21.39-35.83-21.39-35.83L176.1,293l13.9,8.55,2.14-7.48S198,275.32,202.3,267.3s15-10.7,25.14-7.49,18.18,1.07,22.46-4.28,2.14-12.3,2.14-12.3l24.06-20.86s3.21,22.47,8,30.49,18.72,2.14,24.07,1.6,19.25,2.68,21.39,20.86S320,311.15,320,311.15l-41.71,59.36h0c.29.56,9.8,18.31,21.38,27.27,11.77,9.09,36.37,19.78,38.51,20.85S324.77,424,316.75,424Z" style="fill:#fff"></path><path d="M203.49,472.18h0c-4.31,0-9.25-5.07-16-16.38-9.31-15.52-9.85-28.66-9.76-32.71-3.45,3.26-16.22,14.77-30.79,21.15-3.07,1.34-5.64,2.54-7.9,3.59-6.16,2.88-9,4.19-10.33,3-1.15-1-.76-3.37.44-7.76,2.69-9.88,11.44-22.1,14.25-25.86-5.7,1.06-25.61,4.28-31.74-.9a2.28,2.28,0,0,1-1-2.19c.55-3,8.05-5.86,20.25-10.23,9.43-3.37,20.12-7.2,25.66-11.36,9.92-7.43,31.7-26,40.6-33.7l3.82-3.3c-1.18-.94-4.44-3.92-12.41-13.07-10.62-12.22-21.36-35.72-21.47-36a.49.49,0,0,1,0-.47l8.55-13.37a.51.51,0,0,1,.69-.16l13.34,8.21,2-6.85c.06-.2,6-18.87,10.2-26.84s14.84-11.17,25.73-7.73c9.31,2.94,17.5,1.41,21.92-4.11,4.05-5.07,2.07-11.78,2.05-11.84a.5.5,0,0,1,.15-.53L275.78,222a.48.48,0,0,1,.5-.09.49.49,0,0,1,.32.39c0,.23,3.25,22.46,7.95,30.3,3.57,5.94,12.45,3.84,18.93,2.3a39.81,39.81,0,0,1,4.66-.94c5-.5,19.71,2.35,21.94,21.3,2.13,18.16-9.59,36-9.71,36.17l-41.54,59.11c1.2,2.22,10.24,18.45,21.11,26.85,10.14,7.83,29.91,16.89,36.41,19.87,1,.47,1.72.79,2,.94a.74.74,0,0,1,.46.85c-.48,2-15.46,5.44-22.07,5.44-5.74,0-8.36.52-9.34.79,2.09,4.3,12.1,25.63,7.5,29.06-7.26,5.41-25.5-1-31.57-7.58C275,437.7,269,426.62,266.4,421.36c1.38,9.5,5,36.25,3.23,43.4a6.93,6.93,0,0,1-4.86,5.14c-5.24,1.65-13.65-1-19.56-6.11-13.48-11.68-16.78-33.14-17.53-40.46-2.65,8.15-11.37,34.42-16.4,42.63C208.69,470.2,206.22,472.18,203.49,472.18Zm-25.26-50.83a.54.54,0,0,1,.22,0,.5.5,0,0,1,.28.5c0,.15-1.44,15.05,9.56,33.39,6.5,10.82,11.32,15.87,15.18,15.89h0c2.34,0,4.55-1.83,6.94-5.74,5.78-9.46,16.95-44.46,17.06-44.81a.5.5,0,0,1,.55-.34.49.49,0,0,1,.43.47c0,.28,1.38,28.4,17.39,42.28,5.58,4.84,13.75,7.44,18.6,5.9a5.88,5.88,0,0,0,4.2-4.43c2.09-8.36-3.69-45.95-3.75-46.33a.5.5,0,0,1,.36-.55.49.49,0,0,1,.59.28c.07.16,7.07,16,18.22,28.17,5.71,6.23,23.47,12.49,30.23,7.46,3.16-2.35-3.08-18.23-8-28.33a.5.5,0,0,1,.22-.67c.09-.05,2.21-1.05,10.26-1.05,7,0,19-3.18,20.9-4.53l-1.72-.79c-6.52-3-26.38-12.09-36.6-20-11.62-9-21.14-26.7-21.51-27.41a.52.52,0,0,1,0-.55l41.72-59.36c.11-.16,11.63-17.7,9.53-35.48C327,257.22,313,254.5,308.24,255a39,39,0,0,0-4.53.92c-6.4,1.51-16.07,3.8-20-2.77-4.32-7.19-7.3-25.43-8-29.76L252.6,243.4c.38,1.47,1.61,7.54-2.31,12.44-4.68,5.85-13.28,7.52-23,4.45-10.42-3.29-20.52-.32-24.55,7.24-4.21,7.89-10.06,26.47-10.12,26.66l-2.14,7.47a.5.5,0,0,1-.74.29l-13.49-8.3-8.14,12.73c1.17,2.54,11.26,24,21.2,35.46,10.32,11.87,12.6,13.2,12.69,13.26a.5.5,0,0,1,.26.38.49.49,0,0,1-.17.44s-1.62,1.41-4.3,3.71c-8.91,7.66-30.71,26.29-40.65,33.74-5.66,4.25-16.43,8.1-25.92,11.51s-19.13,6.84-19.61,9.46c0,.15-.11.62.63,1.25,5.21,4.4,22.67,2.35,32.16.44a.53.53,0,0,1,.54.22.5.5,0,0,1,0,.57c-1.24,1.6-11.89,15.58-14.88,26.56-.81,3-1.53,6.08-.76,6.73s4.21-.83,9.26-3.18c2.28-1.06,4.85-2.26,7.93-3.61,16.83-7.36,31.26-21.68,31.4-21.82A.49.49,0,0,1,178.23,421.35Z" style="fill:#263238"></path><path d="M272.81,230.64s-4.37,11.3-11.3,17.49-9.84,6.56-9.84,6.56,1.46-6.56,1.83-9.84S272.81,230.64,272.81,230.64Z" style="fill:#263238"></path><path d="M251.67,255.19a.54.54,0,0,1-.37-.16.52.52,0,0,1-.11-.45c0-.06,1.45-6.57,1.81-9.78.38-3.43,17.6-13.46,19.56-14.59a.48.48,0,0,1,.57,0,.5.5,0,0,1,.15.56c-.18.47-4.5,11.48-11.43,17.68s-10,6.67-10.11,6.69Zm20.1-23.36c-7.25,4.26-17.55,11-17.78,13.08-.29,2.6-1.24,7.17-1.64,9.05,1.23-.48,4.07-1.94,8.83-6.2C266.52,243,270.37,235,271.77,231.83Z" style="fill:#263238"></path><path d="M284.12,328.8s9.63-.54,12.84-1.61,11.76-7.48,11.76-7.48-4.27-2.68-14.44-6.42-13.9-.54-13.9-.54,10.7-10.69,11.77-13.37,5.34-12.83,5.34-12.83a74.81,74.81,0,0,0-11.23,3.74c-6.41,2.68-12.3,9.63-12.3,9.63s4.82-9.63,5.89-16,0-15,0-15-7.49,8-10.17,12.3-6.41,15-6.41,15l-2.68-16.58a95.34,95.34,0,0,0-4.28,19.25c-.53,5.06-.13,7.73.4,9.14l-10-12.88s.53,8.55,1.07,10.69,1.6,5.35,1.6,5.35l-8-.54h-6.42s7,6.42,10.16,8,11.23,3.21,11.23,3.21a90.15,90.15,0,0,0-12.3,7.48c-4.81,3.75-5.34,6.95-5.34,6.95s6.41-1.06,9.09-2.67a19.28,19.28,0,0,1,5.88-2.14l6.77-2.22s-1.07,6.71,1.08,11.82a62.91,62.91,0,0,0,3,6l6.27,8.49s0-9.63-1.07-11.77-4.27-9.09-4.27-9.09,10.69,6.95,14.44,6.95,19.25,2.68,19.25,2.68-3.75-8.56-5.35-11.23S284.12,328.8,284.12,328.8Z" style="fill:#969696"></path><path d="M270.75,356a.52.52,0,0,1-.4-.21l-6.27-8.48a59.3,59.3,0,0,1-3.05-6.09c-1.77-4.19-1.43-9.33-1.21-11.29l-6,2A18.67,18.67,0,0,0,248,334c-2.73,1.63-9,2.69-9.27,2.74a.52.52,0,0,1-.44-.14.55.55,0,0,1-.14-.44c0-.14.63-3.44,5.54-7.26a83.74,83.74,0,0,1,11.13-6.89c-2.45-.54-7.53-1.74-10-3-3.23-1.61-10-7.83-10.28-8.1a.51.51,0,0,1,.34-.87h6.42l7.32.49c-.35-1.07-1-3.15-1.39-4.68-.54-2.16-1.06-10.43-1.08-10.78a.51.51,0,0,1,.32-.5.48.48,0,0,1,.57.16l8.64,11.1a31.12,31.12,0,0,1,.1-7.1,96.74,96.74,0,0,1,4.3-19.37.52.52,0,0,1,.52-.33.5.5,0,0,1,.45.42l2.36,14.67c1.2-3.26,3.78-10,5.81-13.25,2.67-4.27,9.91-12.05,10.22-12.38a.48.48,0,0,1,.52-.13.5.5,0,0,1,.34.41c.05.35,1.07,8.7,0,15.12-.72,4.3-3,9.93-4.57,13.29,2.31-2.3,6.17-5.7,10.3-7.42a75.78,75.78,0,0,1,11.32-3.77.49.49,0,0,1,.49.17.5.5,0,0,1,.08.51c0,.1-4.29,10.19-5.35,12.83-.83,2.08-7,8.54-10.1,11.73,2.21-.53,6-.66,11.95,1.52,10.09,3.72,14.35,6.35,14.53,6.46a.51.51,0,0,1,0,.83c-.35.26-8.65,6.47-11.9,7.56-2.09.69-6.71,1.16-9.84,1.41,2.53.75,5.87,2,6.9,3.74,1.6,2.67,5.22,10.94,5.38,11.29a.53.53,0,0,1-.07.51.51.51,0,0,1-.48.18c-.15,0-15.51-2.67-19.16-2.67-3.05,0-10.2-4.21-13.28-6.12,1,2.17,2.82,6.05,3.56,7.54,1.11,2.22,1.12,11.59,1.12,12a.49.49,0,0,1-.34.47A.41.41,0,0,1,270.75,356Zm-10.34-27.29a.5.5,0,0,1,.33.12.52.52,0,0,1,.17.46c0,.06-1,6.63,1,11.55a61.55,61.55,0,0,0,3,5.92l5.32,7.2c-.06-3.23-.3-8.6-1-10-1.06-2.13-4.26-9-4.29-9.11a.5.5,0,0,1,.73-.63c.1.07,10.61,6.87,14.17,6.87,3.25,0,15,1.95,18.41,2.53-1-2.23-3.67-8.2-4.94-10.33s-7.12-3.61-9.29-4a.52.52,0,0,1-.41-.53.5.5,0,0,1,.48-.46c.09,0,9.59-.55,12.7-1.58,2.61-.87,9-5.49,11-7a98.91,98.91,0,0,0-13.7-6c-9.77-3.6-13.37-.66-13.4-.63a.5.5,0,0,1-.68-.73c3-2.95,10.8-11.09,11.65-13.2s3.89-9.36,5-11.93a80.92,80.92,0,0,0-10.19,3.48c-6.23,2.6-12.06,9.42-12.12,9.49a.48.48,0,0,1-.65.1.49.49,0,0,1-.17-.64c0-.1,4.79-9.64,5.83-15.91a59.71,59.71,0,0,0,.12-13.74c-2,2.14-7.24,8-9.36,11.42-2.61,4.18-6.33,14.76-6.37,14.87a.5.5,0,0,1-1-.08l-2.34-14.53a95.07,95.07,0,0,0-3.62,17.17c-.54,5.14-.1,7.68.37,8.91a.51.51,0,0,1-.23.62.5.5,0,0,1-.63-.13l-9-11.6a89.85,89.85,0,0,0,.94,9c.53,2.1,1.59,5.28,1.6,5.31a.53.53,0,0,1-.08.47.5.5,0,0,1-.43.19l-8-.54h-5.09c2,1.8,6.68,5.87,9.09,7.08,3.11,1.56,11,3.15,11.1,3.17a.5.5,0,0,1,.4.42.49.49,0,0,1-.27.51,90,90,0,0,0-12.22,7.44,14.86,14.86,0,0,0-4.93,5.91c1.8-.34,6.1-1.25,8.11-2.46a19.51,19.51,0,0,1,6.06-2.2l6.7-2.21A.39.39,0,0,1,260.41,328.75Z" style="fill:#263238"></path><path d="M201.77,305.2s-6.7-4.18-8.58-6.21-5.5-10-5.5-10,4.13-.23,12.9,1.09,10.19,5.09,10.19,5.09-3.46-11.89-3.17-14.23,1.21-11.33,1.21-11.33a60.8,60.8,0,0,1,6.59,7.12c3.56,4.45,5,11.76,5,11.76s.34-8.81,2.1-13.84a51.44,51.44,0,0,1,5.9-10.75s2.22,8.71,2.45,12.83S229.6,290,229.6,290l8.46-10.85a77.91,77.91,0,0,1-4.52,15.51c-1.61,3.85-2.95,5.61-3.88,6.41l12.27-5.3s-3.76,5.93-5,7.26-3.26,3.21-3.26,3.21l6,2.77,4.6,2.53s-7.52,1.87-10.45,1.76-9.33-2.12-9.33-2.12a73,73,0,0,1,5.88,10.22c2,4.58,1.1,7.1,1.1,7.1s-4.19-3.3-5.47-5.5a15.69,15.69,0,0,0-3.39-3.86l-4-4.27s-1.88,5.25-5.43,8.07a50.1,50.1,0,0,1-4.51,3.11l-7.85,3.62s3.8-6.91,5.41-8,6.65-4.84,6.65-4.84-10.42.77-13.11-.7-14.87-5.67-14.87-5.67,6.06-4.67,8.26-6S201.77,305.2,201.77,305.2Z" style="fill:#969696"></path><path d="M200.83,330.17a.5.5,0,0,1-.36-.16.52.52,0,0,1-.08-.59c.4-.71,3.9-7,5.56-8.19,1.07-.74,3.67-2.65,5.29-3.83-3.11.15-9.56.31-11.7-.86-2.62-1.44-14.67-5.6-14.79-5.64a.5.5,0,0,1-.34-.39.53.53,0,0,1,.19-.48c.25-.19,6.11-4.7,8.32-6,1.36-.79,3.94-.5,6-.08a43.27,43.27,0,0,1-6.11-4.63c-1.91-2.07-5.43-9.82-5.58-10.15a.49.49,0,0,1,.42-.71c.17,0,4.28-.22,13,1.09,4.86.73,7.54,2.21,9,3.44-1-3.64-2.76-10.34-2.54-12.15.28-2.31,1.21-11.22,1.22-11.31a.49.49,0,0,1,.82-.32,60.13,60.13,0,0,1,6.65,7.17,28,28,0,0,1,4.35,9,48.86,48.86,0,0,1,1.93-10.89,51.24,51.24,0,0,1,6-10.88.51.51,0,0,1,.89.17c.09.36,2.22,8.81,2.46,12.93a73.11,73.11,0,0,1-1,11.48l7.26-9.32a.51.51,0,0,1,.6-.15.49.49,0,0,1,.29.54A78.92,78.92,0,0,1,234,294.85a27.53,27.53,0,0,1-2.54,4.89l10.27-4.44a.5.5,0,0,1,.62.73c-.15.24-3.79,6-5,7.33-.84.91-2.05,2.07-2.74,2.72l5.3,2.47,4.64,2.54a.5.5,0,0,1,.25.51.52.52,0,0,1-.37.42c-.31.07-7.63,1.85-10.6,1.77a44.81,44.81,0,0,1-8.12-1.74,67.87,67.87,0,0,1,5.15,9.14c2,4.71,1.15,7.35,1.11,7.46a.5.5,0,0,1-.33.32.52.52,0,0,1-.45-.09c-.17-.14-4.28-3.38-5.6-5.64a15.37,15.37,0,0,0-3.25-3.72l-3.51-3.74a20,20,0,0,1-5.29,7.54,51.57,51.57,0,0,1-4.55,3.15L201,330.12A.54.54,0,0,1,200.83,330.17Zm12.06-13.87a.5.5,0,0,1,.3.9c-.05,0-5.07,3.74-6.67,4.85-1,.7-3.16,4.21-4.49,6.51l6.44-3a52.6,52.6,0,0,0,4.41-3c3.4-2.7,5.25-7.79,5.27-7.85a.52.52,0,0,1,.37-.32.52.52,0,0,1,.47.15l4,4.27a15.84,15.84,0,0,1,3.45,3.94,24.89,24.89,0,0,0,4.7,4.84,12.31,12.31,0,0,0-1.22-6,73.76,73.76,0,0,0-5.83-10.14.5.5,0,0,1,0-.58.49.49,0,0,1,.55-.18c.06,0,6.36,2,9.2,2.1,2.11.09,6.8-.93,9.06-1.44l-3.47-1.91-5.94-2.76a.49.49,0,0,1-.13-.82s2-1.89,3.23-3.18a70.22,70.22,0,0,0,4-5.81l-10.77,4.65a.49.49,0,0,1-.62-.19.51.51,0,0,1,.1-.65c.81-.69,2.12-2.33,3.75-6.22a77.6,77.6,0,0,0,4.09-13.36L230,290.3a.51.51,0,0,1-.6.15.49.49,0,0,1-.29-.54c0-.09,1.52-9.15,1.29-13.17a87.49,87.49,0,0,0-2.17-11.67,48.18,48.18,0,0,0-5.21,9.72c-1.72,4.91-2.07,13.61-2.07,13.7a.5.5,0,0,1-.46.47.51.51,0,0,1-.53-.39c0-.08-1.5-7.25-4.94-11.55a66.1,66.1,0,0,0-5.8-6.38c-.25,2.41-.89,8.48-1.12,10.34s2.21,10.75,3.16,14a.5.5,0,0,1-.94.32s-1.51-3.53-9.81-4.78a80.46,80.46,0,0,0-12-1.09c.92,2,3.6,7.58,5.09,9.19,1.81,2,8.41,6.08,8.48,6.12a.52.52,0,0,1,.19.64.51.51,0,0,1-.61.26c-1.72-.54-6.54-1.73-8.19-.76s-5.8,4.07-7.48,5.35c2.87,1,11.78,4.14,14.08,5.4,2.09,1.15,10,.85,12.83.64Z" style="fill:#263238"></path><path d="M68.84,448.31a.5.5,0,0,1-.17-1c2.28-.82,4.61-1.7,6.94-2.62a.5.5,0,0,1,.64.28.49.49,0,0,1-.28.65c-2.33.92-4.67,1.81-7,2.63A.51.51,0,0,1,68.84,448.31Z" style="fill:#263238"></path><path d="M79.33,444.25a.49.49,0,0,1-.46-.3.5.5,0,0,1,.27-.66A265.57,265.57,0,0,0,138.48,409a.49.49,0,0,1,.7.07.5.5,0,0,1-.07.7,265.81,265.81,0,0,1-59.59,34.46A.63.63,0,0,1,79.33,444.25Z" style="fill:#263238"></path><path d="M135,479.06a.52.52,0,0,1-.37-.16.5.5,0,0,1,0-.71c8.08-7.58,16.44-18,24.83-30.84a.51.51,0,0,1,.7-.15.5.5,0,0,1,.14.69c-8.44,13-16.85,23.4-25,31A.51.51,0,0,1,135,479.06Z" style="fill:#263238"></path><path d="M162.81,443.5a.56.56,0,0,1-.27-.08.51.51,0,0,1-.16-.69,301.26,301.26,0,0,0,15.93-29,.5.5,0,0,1,.66-.25.52.52,0,0,1,.25.67,300.25,300.25,0,0,1-16,29.06A.48.48,0,0,1,162.81,443.5Z" style="fill:#263238"></path><path d="M228.73,482.9a.5.5,0,0,1-.5-.47c-.11-1.82-.2-3.87-.26-6.1a.5.5,0,0,1,1,0c.06,2.22.15,4.26.26,6.07a.52.52,0,0,1-.47.53Z" style="fill:#263238"></path><path d="M228.38,471a.5.5,0,0,1-.5-.5c-.21-27.76,2.63-70.72,2.66-71.15a.49.49,0,0,1,.53-.47.5.5,0,0,1,.46.53c0,.43-2.86,43.36-2.65,71.09a.5.5,0,0,1-.5.5Z" style="fill:#263238"></path><path d="M291.76,476a.51.51,0,0,1-.36-.15c-17.56-18.32-35.3-74.2-35.48-74.76a.5.5,0,0,1,1-.3c.17.56,17.85,56.21,35.24,74.36a.5.5,0,0,1,0,.71A.52.52,0,0,1,291.76,476Z" style="fill:#263238"></path><path d="M360.18,452.92a.45.45,0,0,1-.2,0c-6.76-2.9-14-6.33-21.55-10.2a.51.51,0,0,1-.21-.68.49.49,0,0,1,.67-.21c7.52,3.86,14.75,7.28,21.48,10.17a.5.5,0,0,1-.19,1Z" style="fill:#263238"></path><path d="M334,440.33a.53.53,0,0,1-.23-.06c-39.17-20.73-75-47.14-75.4-47.41a.5.5,0,0,1,.59-.8c.36.26,36.17,26.64,75.28,47.32a.51.51,0,0,1,.21.68A.51.51,0,0,1,334,440.33Z" style="fill:#263238"></path><path d="M417.83,448.31h-.1c-6.85-1.42-14.31-3.28-22.15-5.53a.5.5,0,1,1,.28-1c7.82,2.24,15.24,4.09,22.07,5.51a.5.5,0,0,1-.1,1Z" style="fill:#263238"></path><path d="M391.07,441.43l-.14,0c-57.36-17.18-121.12-49.88-121.76-50.21a.5.5,0,1,1,.46-.89c.63.33,64.32,33,121.58,50.14a.5.5,0,0,1-.14,1Z" style="fill:#263238"></path><path d="M88.06,467.53a.5.5,0,0,1-.43-.25.5.5,0,0,1,.17-.69c4.94-2.91,10.26-6.44,15.82-10.49a.5.5,0,1,1,.59.81c-5.59,4.07-10.94,7.61-15.9,10.55A.59.59,0,0,1,88.06,467.53Z" style="fill:#263238"></path><path d="M108,454a.51.51,0,0,1-.4-.2.5.5,0,0,1,.1-.7c26.81-20.26,51.24-46.1,51.48-46.36a.5.5,0,1,1,.73.69c-.24.26-24.73,26.15-51.61,46.47A.49.49,0,0,1,108,454Z" style="fill:#263238"></path><path d="M316.75,424c-8,0-10,1-10,1s12.54,25.49,7.9,28.95c-7.1,5.29-25-1.1-30.9-7.52-11.34-12.36-18.3-28.31-18.3-28.31s5.88,38,3.74,46.52-15.78,5.59-23.62-1.21C229.17,449.23,228,420.78,228,420.78s-11.23,35.3-17.11,44.92-11.77,8.56-23-10.16a68.86,68.86,0,0,1-8.57-21.47,43.32,43.32,0,0,1-1-12.22,122.8,122.8,0,0,1-11.32,9.68,102,102,0,0,1-20.24,12.25c-10.23,4.47-15.5,7.61-17.38,6.9-1.27-.49-1-2.71.27-7.44,3.15-11.58,14.61-26.27,15-26.73-.69.14-25.75,5.26-32.61-.54S144,402.6,156.84,393c9.95-7.45,31.45-25.83,40.63-33.72l15.53-8-5.89,21.39L228,351.79a126.06,126.06,0,0,1,3.21,12.3c1.6,7.49,4.28,20.86,4.28,20.86s16-21.93,18.18-24.06,11.77,15,11.77,15,1.07-10.7,2.14-13.37,10.69,8,10.69,8h0c.29.56,9.8,18.31,21.38,27.27,11.77,9.09,36.37,19.78,38.51,20.85S324.77,424,316.75,424Z" style="fill:#969696"></path><path d="M283.45,392.25l14.3,20.43L282.43,366.2l-41.89-16.35L228,351.79,222.66,355l-2.48,4.62-13.07,13.07L213,351.26l-15.53,8c-9.18,7.89-30.68,26.27-40.63,33.72C144,402.6,105,410.09,111.92,416s31.92.68,32.61.54c-.35.46-11.81,15.15-15,26.73-1.29,4.73-1.54,6.95-.27,7.44,8.89-14.29,27-26.76,27-26.76a47.91,47.91,0,0,0,6.13,5.11c1,.65,2.67,1.55,4.53,2.5a122.8,122.8,0,0,0,11.32-9.68,43.32,43.32,0,0,0,1,12.22L193,432.6a45.65,45.65,0,0,1,2.56,8.17c1.48,5.94,5.85,22.9,6.12,24,0-.66-.5-7.43-.5-22.93a79.9,79.9,0,0,1,.77-11.24c6.46.6,16.74,1.53,19.15,1.53,3.57,0,7.15.51,11.24-1.53s17.87-8.17,17.87-8.17l6.65,21.45,1-27.58,16.85-7.67,19.92,25.54-11.23-31.67Z" style="fill:#263238"></path><circle cx="207.33" cy="347.07" r="81.48" transform="translate(-44.64 30.91) rotate(-7.7)" style="fill:#4E9462"></circle><path d="M207.17,429.08a82.23,82.23,0,1,1,17.94-2A83,83,0,0,1,207.17,429.08Zm.32-163a81.08,81.08,0,0,0-79.21,98.56,81,81,0,1,0,79.21-98.56Z" style="fill:#263238"></path><path d="M204.25,424.65h0a77,77,0,0,1-13.36-1.71.5.5,0,0,1-.39-.59.52.52,0,0,1,.6-.39,76.06,76.06,0,0,0,13.19,1.69.5.5,0,0,1,0,1Z" style="fill:#263238"></path><path d="M187.73,422.17h-.13c-2.28-.6-4.56-1.32-6.79-2.13a.5.5,0,0,1,.34-.94c2.2.8,4.45,1.51,6.7,2.1a.5.5,0,0,1-.12,1Z" style="fill:#263238"></path><path d="M178.19,419a.43.43,0,0,1-.19,0,77.68,77.68,0,0,1-45.34-93.12.5.5,0,1,1,1,.28A76.67,76.67,0,0,0,178.38,418a.5.5,0,0,1,.28.65A.51.51,0,0,1,178.19,419Z" style="fill:#263238"></path><path d="M136.39,317.31a.45.45,0,0,1-.2,0,.5.5,0,0,1-.26-.65,77.75,77.75,0,0,1,7.17-13.13.5.5,0,0,1,.69-.13.49.49,0,0,1,.13.69,77.52,77.52,0,0,0-7.07,13A.51.51,0,0,1,136.39,317.31Z" style="fill:#263238"></path><polygon points="196.29 310.88 204.6 312.6 207.43 315.54 211.12 316.1 212.3 319.61 211.44 321.98 208.92 323.13 202.75 322.12 202.59 321.37 205.5 319.33 203.49 315.62 197.97 314.86 195.04 312.35 196.29 310.88" style="fill:#fff"></polygon><path d="M208.92,323.63h-.08l-6.17-1a.5.5,0,0,1-.4-.39l-.17-.75a.48.48,0,0,1,.2-.52l2.55-1.78-1.68-3.1-5.27-.72a.42.42,0,0,1-.25-.12l-2.94-2.51a.51.51,0,0,1-.05-.71l1.25-1.47a.5.5,0,0,1,.49-.16l8.3,1.72a.51.51,0,0,1,.26.14l2.71,2.82,3.53.54a.52.52,0,0,1,.4.33l1.17,3.51a.47.47,0,0,1,0,.33l-.86,2.37a.51.51,0,0,1-.26.28l-2.52,1.15A.54.54,0,0,1,208.92,323.63Zm-5.75-1.95,5.68.93,2.19-1,.73-2-1-3.05-3.39-.52a.54.54,0,0,1-.29-.15l-2.72-2.82-7.87-1.63-.74.86,2.45,2.1,5.37.73a.55.55,0,0,1,.37.26l2,3.71a.5.5,0,0,1-.15.65l-2.64,1.85Z" style="fill:#263238"></path><path d="M263.24,387.53l-6.59-1.11-7.95-1-5.85,1.3-5.73.08-5.75,2.67-3.35.94-2.08.46L222.48,394,219,396.36l-5.81-2.08.15-5.58-3.5-.61-3.78.84-.94-1.57-.38-3.49L203,382.28l-2.56,1-.34,2.06-3.16.9-3.59-2.77-2.14-4.28,1.66-5.91,5.56-.84,1.8,1,2.27-.51,2.45-2.33,2.62.21,4.7,5.1,1.28-.48-1.34-4.26-1.64-2-.42-3.67,6.32-4.57-.61-7.2,2.48-3.12,1.49-4.89,1.8-.8,3.71-3.79-.14-1.56-3,.86-.9-1.38-2.08.46-3,1.47,1-2.79,6.19-3.36,1.13-2,3.57,3.56,2.08,1.33,2.47-1.35-1.68-2.2-4.59-1.95L220.71,328l-5.44-2.16-4.69.25-2.77-1.76-3.19-.09-.21.84.84,5.56,1.17,1.72-.35,6.42-4.45-2.18,0-2.77-4.39-1-2.16-1.7-.1-4.93,4.59-5.18-.62-4.61-2,.65-1.7-1.41L194,313l-1.37.1-.08,3.19-2,.84-2.41-6.4-1.72-.61-2.9-.54-2.68,2.18,4.57,2.74,1.47,3L179,313.94l-5.85-4.05-1.51-5-5.25-.42-3.23,3.29a30,30,0,0,1-2.49,2.14,33.29,33.29,0,0,1-4.37,1.76l0,3.38-4.3,1.15.84,2,7.24-.42,4.46,3.17,1.47,6.61-.78,6.31L166.9,340l-3.23,10.42,1.93,14,3.46,7.56,3.8,5.49,2.91-.25-1.61-2.81-2-1.93-1.86-3.94,1.61-.76L176,374l3.23,5.62,1.09,4.91,4.56,3.55,7.46,3.29,10.41.46,3.64,2.16,2.94,2.52,3.86,1.32,4.41.21,4.11-1.11s.23,1.93.44,2.88-1.72,4.74-1.72,4.74l-1.24,4.23,2.43,3.82,4.53.78,7.19,4.74,2.9.55.63,2.83.62,1.24A81.24,81.24,0,0,0,273,395.32l-.21-1.39,3-10.38L273,382.39Z" style="fill:#fff"></path><path d="M237.53,423.25a.51.51,0,0,1-.45-.27l-.62-1.25a.36.36,0,0,1,0-.11l-.56-2.51-2.57-.49a.56.56,0,0,1-.18-.07L226,413.86l-4.42-.75a.51.51,0,0,1-.34-.23l-2.43-3.82a.49.49,0,0,1-.06-.41l1.24-4.23c.92-1.85,1.81-4,1.71-4.49-.14-.64-.29-1.7-.38-2.35l-3.55,1a.43.43,0,0,1-.16,0l-4.4-.21-.14,0L209.21,397a1,1,0,0,1-.17-.1l-2.93-2.52-3.47-2-10.28-.46a.58.58,0,0,1-.18,0l-7.47-3.3a.27.27,0,0,1-.1-.06l-4.55-3.54a.48.48,0,0,1-.18-.29l-1.08-4.83-3.19-5.56-3.9-5.82-.77.36,1.62,3.4,1.94,1.87a.31.31,0,0,1,.09.11L176.2,377a.48.48,0,0,1,0,.48.52.52,0,0,1-.4.27l-2.91.25a.53.53,0,0,1-.46-.21l-3.79-5.5-3.5-7.63a.34.34,0,0,1-.05-.14l-1.92-14a.55.55,0,0,1,0-.22L166.38,340l-1.72-6a.44.44,0,0,1,0-.2l.76-6.23-1.4-6.33-4.17-3-7.06.41a.48.48,0,0,1-.49-.3l-.84-2a.49.49,0,0,1,0-.41.47.47,0,0,1,.32-.26l3.94-1.06,0-3a.52.52,0,0,1,.34-.47,29.47,29.47,0,0,0,4.24-1.7,30.14,30.14,0,0,0,2.44-2.08l3.22-3.28a.47.47,0,0,1,.39-.15l5.25.42a.49.49,0,0,1,.44.35l1.45,4.85,5.71,3.95,6.6,3-.81-1.66-4.44-2.67a.52.52,0,0,1-.24-.4.49.49,0,0,1,.18-.42l2.69-2.18a.49.49,0,0,1,.4-.11l2.9.55,1.79.63a.48.48,0,0,1,.3.29l2.23,5.92,1.22-.52.07-2.86a.51.51,0,0,1,.47-.49l1.36-.1a.48.48,0,0,1,.49.29l1.15,2.6,1.4,1.16,1.77-.57a.56.56,0,0,1,.42.05.49.49,0,0,1,.23.36L200,321a.48.48,0,0,1-.12.4l-4.47,5,.1,4.49,1.89,1.49,4.27,1a.49.49,0,0,1,.39.48l0,2.46,3.49,1.72.3-5.5L204.83,331a.49.49,0,0,1-.08-.21l-.83-5.55a.67.67,0,0,1,0-.2l.21-.84a.54.54,0,0,1,.5-.38l3.19.09a.5.5,0,0,1,.26.08l2.63,1.67,4.54-.24a.51.51,0,0,1,.21,0l5.43,2.16.11.06,5.62,4.06,4.54,1.93a.53.53,0,0,1,.2.16L233,336a.51.51,0,0,1,.09.41.49.49,0,0,1-.25.33l-2.48,1.35a.5.5,0,0,1-.5,0l-2.08-1.32-.08-.07-3.1-3.1-.81,1.46a.52.52,0,0,1-.2.19l-6,3.26L217.1,340l2-.95.11,0,2.08-.46a.49.49,0,0,1,.52.22l.7,1.07,2.63-.76a.53.53,0,0,1,.42.07.49.49,0,0,1,.21.37l.15,1.55a.53.53,0,0,1-.14.4L222,345.21a.57.57,0,0,1-.16.11l-1.59.7-1.43,4.67a.38.38,0,0,1-.08.17l-2.35,3,.59,7a.52.52,0,0,1-.21.45l-6.08,4.4.37,3.24,1.55,1.9a.42.42,0,0,1,.09.16l1.34,4.26a.51.51,0,0,1-.3.62l-1.28.48a.51.51,0,0,1-.55-.13l-4.56-4.95-2.21-.18-2.29,2.17a.47.47,0,0,1-.24.13l-2.26.5a.48.48,0,0,1-.35-.05l-1.65-.9-5.08.76-1.52,5.42,2,4,3.29,2.54,2.62-.74.29-1.75a.5.5,0,0,1,.31-.38l2.56-1a.52.52,0,0,1,.52.1l1.74,1.59a.58.58,0,0,1,.16.32l.36,3.37.7,1.17,3.43-.76a.61.61,0,0,1,.19,0l3.5.61a.5.5,0,0,1,.42.5l-.14,5.22L219,395.8l3.23-2.21,3.41-3.1a.48.48,0,0,1,.22-.12l2.08-.46,3.33-.94,5.67-2.63a.5.5,0,0,1,.21,0l5.67-.08,5.8-1.29h.17l7.95,1,6.44,1.09,9.61-5.06a.51.51,0,0,1,.42,0l2.83,1.15a.51.51,0,0,1,.29.61l-3,10.27.19,1.29a.49.49,0,0,1-.09.37,81.74,81.74,0,0,1-35.68,27.6Zm-.15-1.91.39.78a80.71,80.71,0,0,0,34.69-26.93l-.17-1.19a.38.38,0,0,1,0-.21l2.92-10-2.2-.9-9.55,5a.45.45,0,0,1-.32,0l-6.58-1.11-7.85-1L243,387.2h-.1l-5.62.08-5.66,2.62-3.43,1-2,.44-3.36,3.06-3.5,2.39a.51.51,0,0,1-.45.06l-5.81-2.08a.51.51,0,0,1-.33-.49l.14-5.14-3-.52-3.68.82a.52.52,0,0,1-.54-.23l-.94-1.58a.48.48,0,0,1-.07-.2l-.36-3.3-1.37-1.25-2,.75-.29,1.77a.49.49,0,0,1-.36.4l-3.17.9a.5.5,0,0,1-.44-.08l-3.59-2.77a.75.75,0,0,1-.14-.17l-2.14-4.28a.56.56,0,0,1,0-.36l1.66-5.92a.49.49,0,0,1,.4-.36l5.56-.83a.51.51,0,0,1,.32,0l1.64.9,1.94-.44,2.36-2.23a.48.48,0,0,1,.38-.13l2.62.21a.46.46,0,0,1,.33.16l4.47,4.85.52-.2-1.17-3.72-1.58-1.94a.46.46,0,0,1-.1-.26l-.42-3.67a.49.49,0,0,1,.2-.46l6.09-4.4-.59-6.92a.51.51,0,0,1,.11-.35l2.41-3.05,1.47-4.8a.49.49,0,0,1,.27-.31l1.72-.76,3.48-3.56-.06-.72-2.4.69a.5.5,0,0,1-.56-.2l-.71-1.1-1.69.38-3,1.44a.5.5,0,0,1-.55-.08.48.48,0,0,1-.14-.54l1-2.79a.51.51,0,0,1,.23-.27L223,334.4l1.07-1.9a.48.48,0,0,1,.37-.26.51.51,0,0,1,.42.14l3.52,3.53,1.79,1.14,1.7-.93-1.24-1.63-4.48-1.9-.09,0-5.62-4.06-5.27-2.1-4.59.25a.43.43,0,0,1-.29-.08l-2.65-1.69-2.65-.07-.09.36.81,5.34,1.11,1.63a.48.48,0,0,1,.08.31l-.36,6.42a.5.5,0,0,1-.24.4.51.51,0,0,1-.48,0l-4.44-2.18a.51.51,0,0,1-.28-.45l0-2.37-4-.92a.44.44,0,0,1-.19-.1l-2.16-1.7a.51.51,0,0,1-.2-.38l-.1-4.93a.5.5,0,0,1,.13-.34l4.44-5-.52-3.8-1.47.47a.47.47,0,0,1-.47-.09l-1.7-1.4a.55.55,0,0,1-.14-.19l-1.05-2.38-.56,0-.07,2.74a.52.52,0,0,1-.31.45l-2,.84a.53.53,0,0,1-.39,0,.51.51,0,0,1-.27-.29l-2.33-6.18-1.5-.53-2.59-.48-2,1.58,4,2.39a.48.48,0,0,1,.19.21l1.47,3a.51.51,0,0,1-.1.57.49.49,0,0,1-.56.1l-7.93-3.59-5.93-4.09a.48.48,0,0,1-.19-.27l-1.41-4.68-4.67-.38-3.07,3.13a29.15,29.15,0,0,1-2.57,2.2,26.53,26.53,0,0,1-4.15,1.71l0,3a.49.49,0,0,1-.37.48l-3.75,1,.48,1.14,6.89-.4a.49.49,0,0,1,.31.09l4.47,3.17a.52.52,0,0,1,.2.3l1.47,6.61a1,1,0,0,1,0,.17l-.77,6.21,1.73,6.05a.48.48,0,0,1,0,.29l-3.2,10.31,1.91,13.85,3.42,7.49L173.1,377l1.85-.16-1.19-2.07-2-1.88a.42.42,0,0,1-.11-.15l-1.87-3.94a.5.5,0,0,1,0-.38.48.48,0,0,1,.25-.29l1.62-.75a.51.51,0,0,1,.63.17l4.15,6.21,3.25,5.65a.78.78,0,0,1,0,.14l1.05,4.74,4.36,3.39,7.33,3.24,10.31.45a.62.62,0,0,1,.23.07l3.65,2.16,2.93,2.51,3.7,1.27,4.26.2,4-1.09a.5.5,0,0,1,.41.07.47.47,0,0,1,.21.35s.23,1.92.43,2.83-1.29,4.15-1.76,5.07l-1.14,3.94,2.19,3.44,4.32.74a.49.49,0,0,1,.19.07l7.11,4.69,2.79.52a.52.52,0,0,1,.4.39Z" style="fill:#263238"></path><path d="M266.31,308.6l-2.87-3.12-3.57-3.57-2-5.5,3.52-.18-.23-1.93-2.49.35,1.86-1.4,2-1.83-.42-1.89L259.14,287l-1.39-4a81.52,81.52,0,0,0-98.37-1.89l5,2.12-1.89,4-3.42,1.55.75,5.18-1.38.9-1.43,2.5.94,3.35,3.3-.33-.61,3.5,3.21-.71,3.92-8.2-.1-3.15,5.2-1.55.82-2.56,5.35-1.78-.15-3.34,3.92-1.07a19.9,19.9,0,0,1,3.07-2.26,23.11,23.11,0,0,1,3.42.23l3.33,1.64,4-.88,2.94-2.83,4.43-.59a4.78,4.78,0,0,0,2.24.29,16.91,16.91,0,0,0,3.48-2.16l6.23,2.18,2.65,1.2.62,2.83,2.92-.25.57-1.91,2.7.59.15,1.55L220.23,284l4.13,3.44,7.64,2.27,3.67,3.14,4.23-.54.53-2.1,1.43-.71-5.75-2.69-3.11.3,2.29-1.3-3-2.71,3.17-.9,4.66,1.34,2,4.32,2.62,2,2.91,5.09,4.83,2.1,1.38,6.23,5,1.87.27,2.12,0,2.58,1.89,3.14.75,1.62,3.34-.15.8-3.54Z" style="fill:#fff"></path><path d="M261.69,315.08a.49.49,0,0,1-.45-.29l-.75-1.61-1.87-3.11a.53.53,0,0,1-.07-.26l0-2.58-.23-1.75-4.68-1.76a.51.51,0,0,1-.32-.36l-1.33-6-4.59-2a.43.43,0,0,1-.23-.21l-2.87-5-2.54-1.93a.7.7,0,0,1-.15-.19l-1.85-4.11-4.3-1.24-2.17.61,2.32,2.11a.47.47,0,0,1,.16.42.51.51,0,0,1-.25.38l-.26.15.78-.07a.46.46,0,0,1,.26,0l5.75,2.69a.51.51,0,0,1,.29.44.53.53,0,0,1-.28.46l-1.22.61-.47,1.87a.51.51,0,0,1-.42.38l-4.24.54a.47.47,0,0,1-.39-.12l-3.59-3.07-7.53-2.24a.54.54,0,0,1-.18-.1l-4.13-3.44a.5.5,0,0,1-.18-.43.49.49,0,0,1,.27-.39l5-2.62-.08-.85-1.9-.41-.43,1.46a.5.5,0,0,1-.44.36l-2.91.25a.49.49,0,0,1-.53-.39l-.58-2.59-2.41-1.09-5.94-2.08a14.64,14.64,0,0,1-3.46,2.09,5,5,0,0,1-2.41-.27l-4.14.55L197,280.66a.62.62,0,0,1-.24.13l-4,.88a.53.53,0,0,1-.33,0l-3.26-1.6a19.1,19.1,0,0,0-3.17-.23,19.44,19.44,0,0,0-2.84,2.15.49.49,0,0,1-.2.11l-3.53,1,.13,2.94a.5.5,0,0,1-.34.49l-5.11,1.71-.74,2.31a.51.51,0,0,1-.34.33l-4.83,1.44.09,2.76a.46.46,0,0,1-.05.23l-3.92,8.2a.53.53,0,0,1-.34.28l-3.21.71a.51.51,0,0,1-.46-.13.49.49,0,0,1-.14-.45l.49-2.85-2.63.27a.51.51,0,0,1-.54-.36l-.94-3.36a.46.46,0,0,1,.05-.38l1.42-2.5a.55.55,0,0,1,.17-.17l1.11-.73-.71-4.86a.51.51,0,0,1,.29-.53l3.25-1.47,1.59-3.35-4.56-1.91a.51.51,0,0,1-.1-.87,82.05,82.05,0,0,1,99,1.9.55.55,0,0,1,.17.23l1.34,3.83,2.83,2.43a.47.47,0,0,1,.16.27l.42,1.88a.5.5,0,0,1-.15.48l-2.32,2.09.57-.08a.5.5,0,0,1,.57.44l.23,1.93a.53.53,0,0,1-.11.38.49.49,0,0,1-.36.17l-2.85.16,1.74,4.75,3.49,3.49,2.89,3.14a.52.52,0,0,1,.12.45l-1.28,5.83a.5.5,0,0,1-.47.39l-3.33.15Zm-2.14-5.4,1.82,3,.64,1.36,2.62-.12,1.14-5.2-2.7-2.93-3.55-3.56a.57.57,0,0,1-.12-.18l-2-5.49a.49.49,0,0,1,.44-.67l3-.17-.1-.89-2,.29a.52.52,0,0,1-.54-.31.5.5,0,0,1,.17-.59l1.86-1.4,1.73-1.6-.33-1.44-2.81-2.41a.55.55,0,0,1-.14-.22l-1.34-3.82a81,81,0,0,0-96.94-2.3l4.22,1.77a.49.49,0,0,1,.27.28.48.48,0,0,1,0,.39l-1.89,4a.49.49,0,0,1-.25.24l-3.07,1.4.7,4.81a.51.51,0,0,1-.22.49l-1.29.83-1.26,2.21.77,2.75,2.88-.29a.45.45,0,0,1,.41.16.47.47,0,0,1,.13.42l-.48,2.77,2.24-.5,3.77-7.87-.1-3a.51.51,0,0,1,.35-.5l4.95-1.47.74-2.31a.51.51,0,0,1,.32-.32l5-1.67-.13-2.95a.5.5,0,0,1,.37-.51l3.81-1a15.66,15.66,0,0,1,3.2-2.3,21.16,21.16,0,0,1,3.59.22l.16,0,3.17,1.56,3.66-.81,2.83-2.74a.51.51,0,0,1,.29-.13l4.42-.59a.54.54,0,0,1,.25,0,4,4,0,0,0,1.95.27,15.56,15.56,0,0,0,3.29-2.06.47.47,0,0,1,.47-.08l6.23,2.18,2.68,1.22a.46.46,0,0,1,.28.34l.54,2.41,2.14-.19.47-1.58a.5.5,0,0,1,.58-.35l2.71.59a.51.51,0,0,1,.39.44l.15,1.56a.51.51,0,0,1-.27.49l-4.66,2.42L224.6,287l7.54,2.24a.4.4,0,0,1,.18.1l3.5,3,3.68-.47.44-1.77a.55.55,0,0,1,.27-.33l.5-.25L236,287.29l-3,.28a.5.5,0,0,1-.29-.93l1.68-1L232,283.44a.47.47,0,0,1-.15-.48.49.49,0,0,1,.35-.37l3.16-.9a.45.45,0,0,1,.28,0l4.66,1.34a.48.48,0,0,1,.31.28l1.9,4.2,2.52,1.92a.47.47,0,0,1,.13.15l2.83,4.95,4.68,2a.56.56,0,0,1,.29.35l1.32,6,4.72,1.77a.52.52,0,0,1,.32.41l.27,2.11Z" style="fill:#263238"></path><path d="M264.54,289l.24,1.08-.27,3.23,1.15,2.52,2.25.29.79,3.59-2.47-.44,1.7,10.32-1.35,4.66,2.69,4.95,3,1.72,2.27,10.19,4.21,7.39,4,5.45,4.59.17.67-4.11.51-.62a83.53,83.53,0,0,0-1.58-10A81.16,81.16,0,0,0,264.54,289Z" style="fill:#fff"></path><path d="M287.28,344.66h0l-4.59-.17a.5.5,0,0,1-.39-.21l-4-5.45-4.25-7.43a.58.58,0,0,1-.05-.14l-2.22-10L269,319.67a.44.44,0,0,1-.18-.2l-2.69-5a.53.53,0,0,1,0-.37l1.31-4.55-1.68-10.21a.52.52,0,0,1,.15-.44.5.5,0,0,1,.44-.13l1.73.31-.56-2.52-1.89-.24a.51.51,0,0,1-.39-.29l-1.16-2.52a.53.53,0,0,1,0-.25l.27-3.15-.23-1a.5.5,0,0,1,.84-.47A82.26,82.26,0,0,1,289,339.38a.56.56,0,0,1-.11.37l-.43.51-.65,4A.5.5,0,0,1,287.28,344.66ZM283,343.5l3.91.14.6-3.67a.44.44,0,0,1,.11-.24l.37-.46a82.57,82.57,0,0,0-1.55-9.76,80.76,80.76,0,0,0-21.14-39.05l-.23,2.8,1,2.15,2,.26a.49.49,0,0,1,.42.39l.8,3.58a.49.49,0,0,1-.13.46.48.48,0,0,1-.44.14l-1.78-.31,1.58,9.62a.55.55,0,0,1,0,.22l-1.29,4.46,2.52,4.65,2.83,1.64a.48.48,0,0,1,.24.33L275,331l4.18,7.32Z" style="fill:#263238"></path><polygon points="220.67 297.54 206.99 294.83 201.56 296.24 201.04 300.12 198.23 298.17 194.28 300.03 195.29 306.35 199.23 308.05 200.89 303.92 204.35 306.12 211.33 309.92 213.68 315.14 219.97 320.28 227.61 317.2 226.79 314.41 224.38 311.57 222.33 304.11 223.5 300.48 220.67 297.54" style="fill:#fff"></polygon><path d="M220,320.78a.51.51,0,0,1-.31-.11l-6.29-5.14a.52.52,0,0,1-.14-.19L211,310.27l-6.84-3.71-3-1.9-1.43,3.57a.48.48,0,0,1-.28.28.53.53,0,0,1-.39,0l-3.94-1.7a.51.51,0,0,1-.3-.38l-1-6.32a.5.5,0,0,1,.28-.53l3.94-1.86a.5.5,0,0,1,.5,0l2.14,1.48.42-3.07a.49.49,0,0,1,.37-.42l5.43-1.4a.55.55,0,0,1,.22,0l13.68,2.71a.51.51,0,0,1,.26.14l2.83,2.94a.51.51,0,0,1,.12.5l-1.13,3.49,2,7.21,2.34,2.75a.5.5,0,0,1,.1.19l.82,2.79a.51.51,0,0,1-.29.6l-7.64,3.08A.41.41,0,0,1,220,320.78Zm-5.88-5.95,6,4.87,6.94-2.8-.66-2.25L224,311.9a.5.5,0,0,1-.1-.19l-2.06-7.47a.57.57,0,0,1,0-.29l1.08-3.34L220.42,298,207,295.35l-5,1.29-.48,3.55a.49.49,0,0,1-.29.39.51.51,0,0,1-.49-.05l-2.57-1.79-3.35,1.59.91,5.67,3.22,1.38,1.47-3.65a.45.45,0,0,1,.31-.29.48.48,0,0,1,.42.05l3.46,2.21,6.95,3.78a.45.45,0,0,1,.22.23Z" style="fill:#263238"></path><polygon points="231.79 299.43 228.79 299.31 226.79 301.93 229.33 307.11 231.78 306.56 231.79 299.43" style="fill:#fff"></polygon><path d="M229.33,307.61a.51.51,0,0,1-.45-.28l-2.54-5.18a.51.51,0,0,1,.06-.53l2-2.62a.56.56,0,0,1,.42-.2l3,.13a.5.5,0,0,1,.48.5v7.13a.5.5,0,0,1-.4.49l-2.45.55Zm-2-5.63,2.23,4.55,1.68-.37v-6.25l-2.26-.09Z" style="fill:#263238"></path><polygon points="250.14 299.12 242.97 297.15 241.14 295.17 239.76 296.08 241.92 299.56 244.14 304.21 247.22 304.72 247.62 303.84 245.29 301.38 250.62 302.18 250.14 299.12" style="fill:#fff"></polygon><path d="M247.22,305.22h-.08l-3.08-.5a.51.51,0,0,1-.37-.28l-2.22-4.66-2.14-3.43a.51.51,0,0,1,.15-.68l1.39-.91a.5.5,0,0,1,.64.08l1.73,1.87,7,1.94a.49.49,0,0,1,.36.4l.49,3.06a.52.52,0,0,1-.14.43.5.5,0,0,1-.43.15l-3.89-.59,1.32,1.4a.51.51,0,0,1,.1.55l-.4.88A.49.49,0,0,1,247.22,305.22Zm-2.74-1.46,2.45.4.1-.22-2.1-2.21a.5.5,0,0,1-.08-.58.49.49,0,0,1,.52-.26l4.65.7-.32-2.07-6.87-1.89a.59.59,0,0,1-.23-.14l-1.54-1.67-.62.41,1.9,3.06Z" style="fill:#263238"></path><polygon points="210.15 379.51 209.56 380.43 215.6 380.88 218.46 383.01 222.13 382.6 222.99 380.23 218.48 380.44 210.15 379.51" style="fill:#fff"></polygon><path d="M218.46,383.52a.57.57,0,0,1-.31-.1l-2.73-2.06-5.89-.43a.47.47,0,0,1-.41-.27.5.5,0,0,1,0-.49l.59-.93a.51.51,0,0,1,.47-.23l8.33.93,4.43-.21a.49.49,0,0,1,.43.2.52.52,0,0,1,.07.47l-.86,2.37a.5.5,0,0,1-.42.32l-3.67.42Zm-2.29-2.84,2.43,1.82,3.16-.37.5-1.37-3.76.17Z" style="fill:#263238"></path><polygon points="227.75 379.37 224.03 381.38 224.94 382.76 229.84 381.67 230.45 379.95 228.8 380.52 227.75 379.37" style="fill:#fff"></polygon><path d="M224.94,383.26a.5.5,0,0,1-.42-.22l-.9-1.39a.49.49,0,0,1-.07-.39.47.47,0,0,1,.25-.32l3.71-2a.5.5,0,0,1,.61.1l.83.91,1.34-.46a.53.53,0,0,1,.52.12.5.5,0,0,1,.11.52l-.6,1.72a.5.5,0,0,1-.37.32L225,383.25Zm-.19-1.7.42.64,4.3-.95.17-.49L229,381a.5.5,0,0,1-.53-.13l-.79-.87Z" style="fill:#263238"></path><path d="M295.89,259.81s16-12.3,23.53-9.09,20.32,32.09,26.74,44.39,25.62,54.72,26.38,58.38-6.2,12.22-25.43,22.22S303.19,393,298.17,395.16,288.82,408,284.55,411.1s-13.62,2.82-13.62,2.82a76.6,76.6,0,0,1-17.8,3.7s-16.36.12-10.51-3.28,15.05-6.4,17.13-9.56,9.65-14,9.65-14a59.08,59.08,0,0,1-8.15.11c-4.51-.26-9.95-3.58-9.45-5.47s1.23-2.63,7.29-2.11,8.84-.35,14.82-1.59,7.52-2.45,9.8-2.93,7.47.23,10.61-.42,18.1-5.84,24.78-13.76,12.85-14,12.85-14L301,289.34" style="fill:#fff"></path><path d="M252.52,418.12c-3.8,0-11.1-.25-11.63-2.19-.27-1,1-1.77,1.48-2,2.13-1.24,4.7-2.42,7.18-3.57,4.2-1.93,8.53-3.93,9.78-5.84,1.71-2.6,7.22-10.53,9.06-13.17a61.71,61.71,0,0,1-7.16,0c-3.86-.22-8.08-2.47-9.45-4.36a2.07,2.07,0,0,1-.47-1.74c.62-2.31,1.83-3,7.82-2.48,5.18.45,7.92-.13,12.46-1.11l2.22-.47a41.86,41.86,0,0,0,7.15-2.08,17.12,17.12,0,0,1,2.64-.85,24.93,24.93,0,0,1,4.63-.16,30.19,30.19,0,0,0,6-.26c3.34-.69,18-5.86,24.49-13.6,5.85-6.94,11.38-12.5,12.63-13.74l-30.78-61a.49.49,0,0,1,.22-.67.5.5,0,0,1,.67.22l30.94,61.29a.5.5,0,0,1-.09.58c-.06.06-6.24,6.12-12.82,13.93s-21.64,13.22-25.06,13.93a31.08,31.08,0,0,1-6.21.28,25.06,25.06,0,0,0-4.4.14,16.29,16.29,0,0,0-2.5.8,43.2,43.2,0,0,1-7.3,2.13l-2.21.47c-4.63,1-7.43,1.59-12.76,1.13-6.16-.53-6.38.32-6.76,1.74a1.17,1.17,0,0,0,.31.89c1.21,1.67,5.27,3.76,8.69,3.95a60.55,60.55,0,0,0,8.07-.11.5.5,0,0,1,.48.24.5.5,0,0,1,0,.54c-.08.11-7.6,10.89-9.64,14-1.41,2.14-5.68,4.11-10.2,6.2-2.46,1.14-5,2.31-7.1,3.53-1,.59-1,.89-1,.89.22.82,5.52,1.5,11.27,1.45a82.8,82.8,0,0,0,8.91-1.31,80.61,80.61,0,0,0,8.73-2.36l.18,0c.09,0,9.21.21,13.3-2.73,1.82-1.3,3.66-4.07,5.62-7,2.53-3.8,5.16-7.74,8.1-9,1.31-.56,3.87-1.44,7.41-2.65,10.2-3.51,27.26-9.38,41.5-16.79,19.65-10.22,25.82-18.55,25.17-21.66-.73-3.51-19.92-46-26.33-58.26-1.25-2.4-2.78-5.49-4.4-8.76-6.46-13.1-16.24-32.89-22.1-35.4-7.13-3.06-22.87,8.9-23,9a.5.5,0,0,1-.7-.1.51.51,0,0,1,.09-.7c.67-.51,16.37-12.43,24-9.15,6.2,2.66,15.68,21.86,22.6,35.87,1.61,3.27,3.14,6.36,4.38,8.74,6.65,12.75,25.67,54.86,26.43,58.52.87,4.22-6.73,12.9-25.69,22.76-14.3,7.44-31.41,13.33-41.63,16.84-3.52,1.21-6.07,2.09-7.35,2.63-2.67,1.13-5.21,4.94-7.66,8.63-2,3-3.9,5.85-5.86,7.25-4.19,3-12.79,2.95-13.83,2.93a86.27,86.27,0,0,1-8.77,2.36,83.54,83.54,0,0,1-9.07,1.33Z" style="fill:#263238"></path><path d="M332,351.12a.49.49,0,0,1-.4-.8c.28-.37,7-9,16.69-11.32a.49.49,0,0,1,.6.37.5.5,0,0,1-.37.61c-9.33,2.22-16.06,10.86-16.13,10.95A.47.47,0,0,1,332,351.12Z" style="fill:#263238"></path><path d="M249,417.49s9-2.46,11.84-4.54,12.37-9.1,12.37-9.1" style="fill:#fff"></path><path d="M249,418a.49.49,0,0,1-.48-.37.5.5,0,0,1,.35-.61c.09,0,8.94-2.46,11.67-4.46s12.38-9.11,12.38-9.11l.59.81-12.38,9.11c-2.87,2.1-11.62,4.51-12,4.62Z" style="fill:#263238"></path><path d="M268.5,414.32a21.69,21.69,0,0,0,9.21-5.77" style="fill:#fff"></path><path d="M268.5,414.82a.49.49,0,0,1-.48-.37.5.5,0,0,1,.36-.61,21.32,21.32,0,0,0,9-5.63.51.51,0,0,1,.71,0,.5.5,0,0,1,0,.71,21.92,21.92,0,0,1-9.44,5.92Z" style="fill:#263238"></path><path d="M166,276.84q3-1.79,6.26-3.31c-2.28-1.64-5.46-4.19-6.25-6.17-1.27-3.17-3.8-2.32-4.85,1.69C160.29,272.33,164,275.46,166,276.84Z" style="fill:#fff"></path><path d="M166,277.34a.46.46,0,0,1-.28-.08c-1.44-1-6.07-4.44-5.05-8.34.64-2.41,1.83-3.9,3.2-4,.62,0,1.79.2,2.61,2.24.57,1.43,2.72,3.54,6.07,5.95a.55.55,0,0,1,.21.46.51.51,0,0,1-.29.4c-2.16,1-4.25,2.14-6.22,3.29A.45.45,0,0,1,166,277.34Zm-2-11.41h-.06c-.67,0-1.68.92-2.29,3.24-.82,3.1,3.07,6.16,4.38,7.08,1.68-1,3.45-1.92,5.27-2.81-2.34-1.74-5-4-5.74-5.9C165.13,266.51,164.57,265.93,164,265.93Z" style="fill:#263238"></path><path d="M142.33,296.9s-2.53,3.38-3,5.91-.21,7.81,1.48,7.39,2.53-6.33,2.74-7.18,1.06-4.22,1.06-4.22S143.17,294.37,142.33,296.9Z" style="fill:#fff"></path><path d="M140.67,310.72a1.19,1.19,0,0,1-.84-.34c-1.29-1.18-1.3-5.54-1-7.65.41-2.46,2.64-5.56,3-6.06q.38-1.05,1.08-1.05c1,0,1.79,1.9,2.16,3a.42.42,0,0,1,0,.27l-1,4.23c0,.12-.07.35-.13.65-.64,3.35-1.44,6.5-3,6.89ZM143,296.65a1.79,1.79,0,0,0-.19.41.37.37,0,0,1-.07.14s-2.47,3.31-2.86,5.7-.15,6,.63,6.75a.2.2,0,0,0,.23.06c.51-.12,1.32-1.29,2.24-6.09.06-.34.11-.58.14-.72l1-4.07A6.37,6.37,0,0,0,143,296.65Zm-.66.25h0Z" style="fill:#263238"></path><path d="M146.55,286.56s-5.28,6.55-5.28,8.87S143.81,306,144.65,306s2.74-1.9,2.74-5.49v-7.38Z" style="fill:#fff"></path><path d="M144.65,306.48c-1.57,0-3.88-9.42-3.88-11.05,0-2.43,4.84-8.5,5.39-9.18a.51.51,0,0,1,.53-.17.52.52,0,0,1,.36.42l.84,6.54v7.45C147.89,304.42,145.78,306.48,144.65,306.48Zm.17-1h0Zm1.39-17.72c-1.69,2.2-4.44,6.11-4.44,7.62,0,2.21,2.18,9.1,3,10,.58-.19,2.14-1.75,2.14-5v-7.38Z" style="fill:#263238"></path><path d="M152.46,278.75s-7.39,5.91-7.39,8,1.27,10.13,3,10.56,3.8-3.38,3.8-4.86.63-5.7.63-5.7l6.75-5.06S155.62,278.12,152.46,278.75Z" style="fill:#fff"></path><path d="M148.29,297.86a1.54,1.54,0,0,1-.39-.05c-2.3-.58-3.33-9.8-3.33-11,0-2.23,6.31-7.39,7.58-8.41a.51.51,0,0,1,.21-.1c3.38-.68,7,2.94,7.21,3.1a.49.49,0,0,1,.14.38.49.49,0,0,1-.2.37l-6.59,4.94c-.12.86-.59,4.18-.59,5.42a7.89,7.89,0,0,1-2.61,4.82A2.34,2.34,0,0,1,148.29,297.86Zm4.38-18.64c-3,2.4-7.1,6.28-7.1,7.55,0,2.6,1.43,9.78,2.58,10.07a1.25,1.25,0,0,0,.95-.34,7,7,0,0,0,2.23-4c0-1.5.61-5.6.63-5.77a.5.5,0,0,1,.2-.33l6.27-4.7C157.44,280.81,154.91,278.86,152.67,279.22Z" style="fill:#263238"></path><path d="M145.07,282.55c1.06-.21,6.12-2.32,7.39-2.32a38.13,38.13,0,0,1,5.77,1.82c1.81-1.37,3.68-2.68,5.62-3.91-2.24-.8-6.13-2.18-8-2.76-2.75-.85-11.19,1.26-13.09,4.43S144,282.76,145.07,282.55Z" style="fill:#fff"></path><path d="M144,283.16a2.46,2.46,0,0,1-2.07-.79c-.47-.66-.33-1.61.39-2.82,2-3.36,10.63-5.59,13.66-4.65,1.92.59,5.86,2,8,2.77a.51.51,0,0,1,.33.42.51.51,0,0,1-.23.48c-1.83,1.15-3.71,2.46-5.59,3.88a.49.49,0,0,1-.47.07,41.24,41.24,0,0,0-5.6-1.79,27,27,0,0,0-4.71,1.45,23.09,23.09,0,0,1-2.58.86A5.64,5.64,0,0,1,144,283.16Zm10.2-7.48c-3.41,0-9.53,1.9-11,4.39-.48.8-.64,1.43-.43,1.72s1.36.45,2.22.27c.37-.07,1.37-.43,2.44-.82a23.06,23.06,0,0,1,5.05-1.51,30.2,30.2,0,0,1,5.68,1.76q2.31-1.74,4.59-3.22c-2.23-.79-5.39-1.91-7-2.41A5.23,5.23,0,0,0,154.2,275.68Z" style="fill:#263238"></path><path d="M216.74,196.7s9.63,28.35,13.37,34.23,15,16.58,23,16.58,19.78-14.44,21.92-18.72,6.42-13.37,6.42-13.37-10.7-4.81-10.7-9.62,3.75-13.91-1.07-15.51-10.69-1.61-13.9-5.89-3.74-11.76-7.49-12.3-11.23-4.27-11.23-4.27-7.48,4.81-7.48,8-.54,9.62-3.21,12.83S216.74,196.7,216.74,196.7Z" style="fill:#fff"></path><path d="M253.11,248c-8.36,0-19.69-10.94-23.42-16.81s-13-33.18-13.42-34.34a.48.48,0,0,1,.19-.57c.06,0,6.92-4.81,9.52-7.93,3-3.53,3.1-11,3.1-12.51,0-3.39,6.92-7.94,7.71-8.45a.52.52,0,0,1,.5,0c.07,0,7.45,3.71,11.07,4.23,2.54.36,3.71,3.39,4.95,6.6a24.42,24.42,0,0,0,2.87,5.89c2.22,3,5.75,3.77,9.49,4.62,1.39.32,2.83.64,4.17,1.09,3.82,1.27,2.88,6.47,2.06,11.06a30.74,30.74,0,0,0-.65,4.93c0,3.68,7.51,7.86,10.41,9.17a.48.48,0,0,1,.26.28.46.46,0,0,1,0,.38c0,.1-4.3,9.15-6.42,13.39C273.19,233.59,261.28,248,253.11,248ZM217.33,196.9c1.13,3.29,9.76,28.35,13.2,33.76S245.23,247,253.11,247s19.5-14.49,21.47-18.44c1.84-3.68,5.31-11,6.2-12.91-2.11-1-10.53-5.33-10.53-9.86a31.27,31.27,0,0,1,.66-5.11c.8-4.39,1.61-8.93-1.38-9.93-1.3-.43-2.72-.75-4.08-1.07-3.75-.85-7.63-1.73-10.07-5a25.13,25.13,0,0,1-3-6.13c-1.18-3-2.2-5.69-4.16-6-3.43-.49-9.75-3.53-11.12-4.2-2.17,1.43-7,5.13-7,7.45,0,1.53-.16,9.36-3.33,13.15C224.36,191.88,218.73,195.91,217.33,196.9Z" style="fill:#263238"></path><path d="M230.92,214.72a7.89,7.89,0,0,1-3.7-.9.5.5,0,0,1,.52-.86c.2.12,5,2.91,9.9-2.82a.5.5,0,1,1,.76.65C235.72,213.91,233,214.72,230.92,214.72Z" style="fill:#263238"></path><path d="M257.23,209.58a14.17,14.17,0,0,1-4.46-.7.51.51,0,0,1-.28-.65.49.49,0,0,1,.64-.28c.29.11,7.11,2.61,12.34-2.81a.5.5,0,0,1,.71,0,.49.49,0,0,1,0,.7A12.11,12.11,0,0,1,257.23,209.58Z" style="fill:#263238"></path><path d="M246.94,226.38a6.73,6.73,0,0,1-2.56-.49,3.93,3.93,0,0,1-2.15-5,.5.5,0,1,1,1,.31c0,.11-.88,2.83,1.57,3.81s5.79,0,6.88-2.14a.5.5,0,0,1,.67-.23.51.51,0,0,1,.22.67A6.17,6.17,0,0,1,246.94,226.38Z" style="fill:#263238"></path><path d="M247.37,232.44a8.5,8.5,0,0,1-4.61-1.2.5.5,0,1,1,.56-.82c.12.08,3.05,2,7.71.36a11.65,11.65,0,0,0,6.45-5.3.49.49,0,0,1,.66-.25.5.5,0,0,1,.24.67,12.36,12.36,0,0,1-7,5.82A11.94,11.94,0,0,1,247.37,232.44Z" style="fill:#263238"></path><path d="M222.8,205.11a.47.47,0,0,1-.28-.09.49.49,0,0,1-.13-.69c.16-.24,4.07-5.8,12.76-4.9a.49.49,0,0,1,.44.54.51.51,0,0,1-.55.45c-8.11-.84-11.79,4.42-11.83,4.47A.5.5,0,0,1,222.8,205.11Z" style="fill:#263238"></path><path d="M248.85,198.37a.5.5,0,0,1-.29-.9A16,16,0,0,1,263.39,196a.5.5,0,1,1-.38.92,15.25,15.25,0,0,0-13.86,1.41A.53.53,0,0,1,248.85,198.37Z" style="fill:#263238"></path><path d="M252.08,160.83a30.4,30.4,0,0,1,2.54-10.45c2.26-4.52,10.74-8.76,10.74-8.76s2.82,6.5-1.41,11.59S252.08,160.83,252.08,160.83Z" style="fill:#4E9462"></path><path d="M255.19,166.2S258.86,160,264,160s11.86,4.8,11.86,4.8-6.21,3.39-10.45,3.39S255.19,166.2,255.19,166.2Z" style="fill:#4E9462"></path><path d="M273.27,151.79s0-5.93,2-9.6,11.58-11,11.58-11,0,9.6-3.39,14.13S273.27,151.79,273.27,151.79Z" style="fill:#4E9462"></path><path d="M280.62,155.47s5.36-4.24,9-4.24,11,3.67,11,3.67a27.59,27.59,0,0,1-11.59,4C282.59,159.42,280.62,155.47,280.62,155.47Z" style="fill:#4E9462"></path><path d="M226.09,165.36a15.25,15.25,0,0,0-5.94-6.22c-4.52-2.83-13.28-2.54-13.28-2.54s3.68,6.21,7.92,8.19S226.09,165.36,226.09,165.36Z" style="fill:#4E9462"></path><path d="M223.26,168.75s-7.34,1.69-9.32,5.65a16.66,16.66,0,0,0-1.42,8.47s5.66-1.41,7.92-5.08S223.26,168.75,223.26,168.75Z" style="fill:#4E9462"></path><path d="M210.26,162.53s-1.13-2.26-5.65-2.83-11.86.85-11.86.85a16.32,16.32,0,0,0,8.47,4.52A12.07,12.07,0,0,0,210.26,162.53Z" style="fill:#4E9462"></path><path d="M211.11,169.31s-5.93-2.54-9.89.57a19.57,19.57,0,0,0-5.65,7.91s6.5-.29,9.33-1.42S211.11,169.31,211.11,169.31Z" style="fill:#4E9462"></path></g></svg>